/* XPM */
static char *_d6c71f199124350c4776c0802616edcajkQ4QATJU71V6Lx[] = {
/* columns rows colors chars-per-pixel */
"64 64 190 2 ",
"   c None",
".  c #020102",
"X  c #020103",
"o  c #091406",
"O  c #0A1607",
"+  c #0A1608",
"@  c #0B1708",
"#  c #0B1709",
"$  c #19181A",
"%  c #1A191A",
"&  c #142B0F",
"*  c #162A10",
"=  c #162C11",
"-  c #182C11",
";  c #263123",
":  c #703B37",
">  c #713B37",
",  c #713C38",
"<  c #723C38",
"1  c #733C38",
"2  c #723D38",
"3  c #733E39",
"4  c #743F39",
"5  c #753F3A",
"6  c #75403A",
"7  c #7D473E",
"8  c #704D3B",
"9  c #714E3B",
"0  c #734F3C",
"q  c #7E483E",
"w  c #7F483E",
"e  c #7E483F",
"r  c #7E493F",
"t  c #7F493F",
"y  c #7F4F41",
"u  c #7F5142",
"i  c #7D5941",
"p  c #804A3F",
"a  c #804B40",
"s  c #805142",
"d  c #805343",
"f  c #825243",
"g  c #895143",
"h  c #8A5344",
"j  c #8B5445",
"k  c #8A5545",
"l  c #8E5E49",
"z  c #8F5E4A",
"x  c #91684E",
"c  c #92694E",
"v  c #55AF42",
"b  c #55AF43",
"n  c #56AF43",
"m  c #57AF43",
"M  c #57B244",
"N  c #58B144",
"B  c #58B345",
"V  c #58B246",
"C  c #5AB247",
"Z  c #64AD47",
"A  c #65AE48",
"S  c #64B64A",
"D  c #65B64A",
"F  c #65B74B",
"G  c #67B94C",
"H  c #73BB51",
"J  c #7FBF55",
"K  c #60C34B",
"L  c #61C44B",
"P  c #60C64B",
"I  c #61C64B",
"U  c #62C64B",
"Y  c #61C54C",
"T  c #63C54D",
"R  c #61C64C",
"E  c #62C64C",
"W  c #63C74D",
"Q  c #64C74C",
"!  c #64C64D",
"~  c #64C74E",
"^  c #65C74F",
"/  c #62C84D",
"(  c #63C84D",
")  c #65C94E",
"_  c #70C351",
"`  c #72C153",
"'  c #72C154",
"]  c #74C055",
"[  c #74C155",
"{  c #74C255",
"}  c #74C355",
"|  c #76C456",
" . c #74CB55",
".. c #72CC54",
"X. c #73CC54",
"o. c #73CD55",
"O. c #74CD55",
"+. c #74CE55",
"@. c #75CD56",
"#. c #75CE56",
"$. c #70CA5E",
"%. c #72CA5E",
"&. c #72CD5F",
"*. c #73CD5F",
"=. c #73CD60",
"-. c #CA8E65",
";. c #CB8F65",
":. c #CC8E65",
">. c #CC8F65",
",. c #CB9D68",
"<. c #CC9F68",
"1. c #D6996B",
"2. c #D79A6B",
"3. c #D89B6B",
"4. c #D89A6C",
"5. c #D89B6C",
"6. c #D99D6C",
"7. c #CAA068",
"8. c #C5AA68",
"9. c #DAA26F",
"0. c #DBA570",
"q. c #DBA671",
"w. c #DBB473",
"e. c #E2A370",
"r. c #E2A471",
"t. c #E3A471",
"y. c #E3A571",
"u. c #E4A672",
"i. c #E4A772",
"p. c #E5A772",
"a. c #E5AD75",
"s. c #E6AE75",
"d. c #E6AF76",
"f. c #E7B076",
"g. c #E8B177",
"h. c #E8B277",
"j. c #E7B979",
"k. c #E9B97A",
"l. c #EABA7A",
"z. c #84CB5A",
"x. c #84D35D",
"c. c #86D35E",
"v. c #84D45D",
"b. c #85D45D",
"n. c #EC9D8F",
"m. c #ED9D90",
"M. c #DBA287",
"N. c #ECA88F",
"B. c #ECA890",
"V. c #FFA499",
"C. c #FFA49A",
"Z. c #FFAF99",
"A. c #DFD383",
"S. c #EBDE89",
"D. c #DDE185",
"F. c #DDE285",
"G. c #DDE385",
"H. c #DBF287",
"J. c #EEE08A",
"K. c #EBEF8C",
"L. c #ECED8F",
"P. c #F0EA8F",
"I. c #F0EB8F",
"U. c #F1EB8F",
"Y. c #ECF18D",
"T. c #ECF88F",
"R. c #ECF98F",
"E. c #F8EA90",
"W. c #FAEC91",
"Q. c #EEF790",
"!. c #EDF890",
"~. c #EEF990",
"^. c #EEF991",
"/. c #FAF494",
"(. c #FBF494",
"). c #FCF594",
"_. c #FCF495",
"`. c #FCF695",
"'. c #FCFC97",
"]. c #FCFE97",
"[. c #FFF299",
"{. c #FFF399",
"}. c #FFF499",
"|. c #FEFD98",
" X c #FFFD99",
".X c #FCFE98",
"XX c #FFFF9A",
"oX c #C7C6C7",
"OX c #D4DFD1",
"+X c #DFF5DA",
/* pixels */
"                                                                                                                                ",
"                                                                                                                                ",
"                                                                                                                                ",
"                                                                                                                                ",
"                                                                                                                                ",
"                                                                                                                                ",
"                                                                                                                                ",
"                                                                                                                                ",
"                                                                                                                                ",
"                                                                                                                                ",
"                                                                                                                                ",
"                                                                                                                                ",
"                                                                                                                                ",
"                                                                                                                                ",
"                                                                                                                                ",
"                                                                                                                                ",
"                                                                                                                                ",
"                                                                                                                                ",
"                                                                                                                                ",
"                                                  ].~.T.T.T.T.T.T.T.T.T.T.~.].                                                  ",
"                                                XX~.c.O.O.O.O.O.O.O.O.O.O.c.~.XX                                                ",
"                                T.T.T.T.T.T.T.T.~.H...I R R R R R R R R I ..H.~.T.T.T.T.T.T.T.T.                                ",
"                                O.O.O.O.O.O.O.O.O...) ( I I R R R R ( ( I ^ ..O.O.O.O.O.O.O.O.O.                                ",
"                                O. .{ { { { { ' ^ K C C %.=.^ R R I C C %.&.^ R ' { { { { {  .O.                                ",
"                                T.L.N.n.n.n.m.M.{ M & ; OX+X=.I ( C & ; OX+X&._ M.m.n.n.n.N.L.T.                                ",
"                                  }.Z.C.C.C.C.B.| b O % oXOX%.I ( b O % oXOX%.{ B.C.C.C.C.Z.}.                                  ",
"                                  XX}.{.{.{.{.L.O.b @ X % ; C ( ( b @ X % ; C O.L.{.{.{.{.}.XX                                  ",
"                                              Q.z.A - @ O & C ( ( C = @ O * Z z.Q.                                              ",
"                                              /.w.8.A b b C R ( ( R C b b A 8.w./.                                              ",
"                                          ].U.S.9.,.J _ G F F F F F F G _ J ,.9.S.                                              ",
"                                          U.c f a k <.7.i 9 9 9 9 9 9 i 7.<.k a f c                                             ",
"                                        U.A.f : 1 w :.:.w 1 1 1 1 1 1 w :.:.w 1 : f A.U.                                        ",
"                                        c f 6 1 1 1 w w 1 1 1 1 1 1 1 1 w w 1 1 1 6 f c                                         ",
"                                      A.f : 1 5 w p w w p w 5 5 w p p p w w p w 5 1 : f A.                                      ",
"                                    c y 5 1 : 7 -.1.1.1.1.-.w w -.1.1.1.1.1.1.-.7 : 1 5 y c                                     ",
"                                    c u 0 0 f z 6.u.u.u.u.1.w w 1.u.u.u.u.u.u.6.z f 0 0 u c                                     ",
"                                    U.F.H H F.J.s.y.u.u.u.1.w w 1.u.u.y.u.u.y.s.J.F.H H F.U.                                    ",
"                                    XX~.v.v.~.).f.y.u.u.u.3.k h :.5.y.u.u.u.y.s.W.Y.c.v.~.                                      ",
"                                      ].~.~.XX/.f.y.u.u.u.y.5.:.h k 3.u.u.u.y.u.s.j.K.~.                                        ",
"                                          XX).E.s.y.u.u.y.u.u.1.w w 1.u.u.u.u.y.y.f./.                                          ",
"                                          ).l.s.u.y.u.u.u.u.u.1.w w 1.u.u.y.u.u.y.f./.                                          ",
"                                          /.f.y.y.u.u.u.u.u.u.3.k h :.5.y.u.u.u.y.s.E.                                          ",
"                                          /.f.y.y.y.y.y.y.y.y.e.5.-.g h 1.u.y.y.y.u.s.l.                                        ",
"                                          ).l.f.f.f.f.f.f.f.f.f.g.0.z z 0.g.f.f.f.f.s.l.                                        ",
"                                                                                                                                ",
"                                                                                                                                ",
"                                                                                                                                ",
"                                                                                                                                ",
"                                                                                                                                ",
"                                                                                                                                ",
"                                                                                                                                ",
"                                                                                                                                ",
"                                                                                                                                ",
"                                                                                                                                ",
"                                                                                                                                ",
"                                                                                                                                ",
"                                                                                                                                ",
"                                                                                                                                ",
"                                                                                                                                ",
"                                                                                                                                ",
"                                                                                                                                ",
"                                                                                                                                ",
"                                                                                                                                ",
"                                                                                                                                "
};
