/* XPM */
static char *e86bf3a38db84d15ac18474c85d9d6ef5C4s6AchYH73oGUZ[] = {
/* columns rows colors chars-per-pixel */
"64 64 256 2 ",
"   c black",
".  c #010101",
"X  c #020202",
"o  c gray1",
"O  c #040404",
"+  c gray2",
"@  c #060606",
"#  c #070707",
"$  c gray3",
"%  c #090909",
"&  c gray4",
"*  c #0B0B0B",
"=  c #0C0C0C",
"-  c gray5",
";  c #0E0E0E",
":  c gray6",
">  c #101010",
",  c #111111",
"<  c gray7",
"1  c #131313",
"2  c gray8",
"3  c #151515",
"4  c #161616",
"5  c gray9",
"6  c #181818",
"7  c #191919",
"8  c gray10",
"9  c #1B1B1B",
"0  c gray11",
"q  c #1D1D1D",
"w  c #1E1E1E",
"e  c gray12",
"r  c #202020",
"t  c gray13",
"y  c #222222",
"u  c #232323",
"i  c gray14",
"p  c #252525",
"a  c gray15",
"s  c #272727",
"d  c #282828",
"f  c gray16",
"g  c #2A2A2A",
"h  c gray17",
"j  c #2C2C2C",
"k  c #2D2D2D",
"l  c gray18",
"z  c #2F2F2F",
"x  c gray19",
"c  c #313131",
"v  c #323232",
"b  c gray20",
"n  c #343434",
"m  c #353535",
"M  c gray21",
"N  c #373737",
"B  c gray22",
"V  c #393939",
"C  c #3A3A3A",
"Z  c gray23",
"A  c #3C3C3C",
"S  c gray24",
"D  c #3E3E3E",
"F  c #3F3F3F",
"G  c gray25",
"H  c #414141",
"J  c gray26",
"K  c #434343",
"L  c #444444",
"P  c gray27",
"I  c #464646",
"U  c gray28",
"Y  c #484848",
"T  c #494949",
"R  c gray29",
"E  c #4B4B4B",
"W  c #4C4C4C",
"Q  c gray30",
"!  c #4E4E4E",
"~  c gray31",
"^  c #505050",
"/  c #515151",
"(  c gray32",
")  c #535353",
"_  c gray33",
"`  c #555555",
"'  c #565656",
"]  c gray34",
"[  c #585858",
"{  c gray35",
"}  c #5A5A5A",
"|  c #5B5B5B",
" . c gray36",
".. c #5D5D5D",
"X. c gray37",
"o. c #5F5F5F",
"O. c #606060",
"+. c gray38",
"@. c #626262",
"#. c gray39",
"$. c #646464",
"%. c #656565",
"&. c gray40",
"*. c #676767",
"=. c #686868",
"-. c DimGray",
";. c #6A6A6A",
":. c gray42",
">. c #6C6C6C",
",. c #6D6D6D",
"<. c gray43",
"1. c #6F6F6F",
"2. c gray44",
"3. c #717171",
"4. c #727272",
"5. c gray45",
"6. c #747474",
"7. c gray46",
"8. c #767676",
"9. c #777777",
"0. c gray47",
"q. c #797979",
"w. c gray48",
"e. c #7B7B7B",
"r. c #7C7C7C",
"t. c gray49",
"y. c #7E7E7E",
"u. c gray50",
"i. c #808080",
"p. c #818181",
"a. c gray51",
"s. c #838383",
"d. c #848484",
"f. c gray52",
"g. c #868686",
"h. c gray53",
"j. c #888888",
"k. c #898989",
"l. c gray54",
"z. c #8B8B8B",
"x. c gray55",
"c. c #8D8D8D",
"v. c #8E8E8E",
"b. c gray56",
"n. c #909090",
"m. c gray57",
"M. c #929292",
"N. c #939393",
"B. c gray58",
"V. c #959595",
"C. c gray59",
"Z. c #979797",
"A. c #989898",
"S. c gray60",
"D. c #9A9A9A",
"F. c #9B9B9B",
"G. c gray61",
"H. c #9D9D9D",
"J. c gray62",
"K. c #9F9F9F",
"L. c #A0A0A0",
"P. c gray63",
"I. c #A2A2A2",
"U. c gray64",
"Y. c #A4A4A4",
"T. c #A5A5A5",
"R. c gray65",
"E. c #A7A7A7",
"W. c gray66",
"Q. c #A9A9A9",
"!. c #AAAAAA",
"~. c gray67",
"^. c #ACACAC",
"/. c gray68",
"(. c #AEAEAE",
"). c #AFAFAF",
"_. c gray69",
"`. c #B1B1B1",
"'. c #B2B2B2",
"]. c gray70",
"[. c #B4B4B4",
"{. c gray71",
"}. c #B6B6B6",
"|. c #B7B7B7",
" X c gray72",
".X c #B9B9B9",
"XX c gray73",
"oX c #BBBBBB",
"OX c #BCBCBC",
"+X c gray74",
"@X c gray",
"#X c gray75",
"$X c #C0C0C0",
"%X c #C1C1C1",
"&X c gray76",
"*X c #C3C3C3",
"=X c gray77",
"-X c #C5C5C5",
";X c #C6C6C6",
":X c gray78",
">X c #C8C8C8",
",X c gray79",
"<X c #CACACA",
"1X c #CBCBCB",
"2X c gray80",
"3X c #CDCDCD",
"4X c #CECECE",
"5X c gray81",
"6X c #D0D0D0",
"7X c gray82",
"8X c #D2D2D2",
"9X c LightGray",
"0X c gray83",
"qX c #D5D5D5",
"wX c gray84",
"eX c #D7D7D7",
"rX c #D8D8D8",
"tX c gray85",
"yX c #DADADA",
"uX c gray86",
"iX c gainsboro",
"pX c #DDDDDD",
"aX c gray87",
"sX c #DFDFDF",
"dX c gray88",
"fX c #E1E1E1",
"gX c #E2E2E2",
"hX c gray89",
"jX c #E4E4E4",
"kX c gray90",
"lX c #E6E6E6",
"zX c #E7E7E7",
"xX c gray91",
"cX c #E9E9E9",
"vX c #EAEAEA",
"bX c gray92",
"nX c #ECECEC",
"mX c gray93",
"MX c #EEEEEE",
"NX c #EFEFEF",
"BX c gray94",
"VX c #F1F1F1",
"CX c gray95",
"ZX c #F3F3F3",
"AX c #F4F4F4",
"SX c gray96",
"DX c #F6F6F6",
"FX c gray97",
"GX c #F8F8F8",
"HX c #F9F9F9",
"JX c gray98",
"KX c #FBFBFB",
"LX c gray99",
"PX c #FDFDFD",
"IX c #FEFEFE",
"UX c white",
/* pixels */
"i.i.y.W *                                                   . > p , .                                                 . $ U t.i.",
"i.u.! *   7 ` <.<.1.<.<.<.<.<.<.<.<.<.<.<.<.<.<.<.<.<.<.,.Y ;       = K :.1.1.<.<.<.<.<.<.<.<.<.<.<.<.<.<.<.<.<.<.1.{ q . % Y t.",
"p.{ =   K %XGXUXUXUXUXUXUXUXUXUXUXUXUXUXUXUXUXUXUXUXUXUXUXCXW.F h C L.BXUXUXUXUXUXUXUXUXUXUXUXUXUXUXUXUXUXUXUXUXUXUXJX>XW . & W ",
"2.9   D wXPX1Xm.v.v.v.b.b.b.b.b.b.b.b.b.b.b.b.b.b.b.b.v.A.iXPXMXxXnXLXfXG.c.v.v.b.b.b.b.b.b.b.b.b.b.b.b.b.b.b.b.v.n.-XKXpXT   = ",
"E o 2 XXIXI.e o o o o X X o o o o o o X X X X X X o o o O v &XPXLXLX1XA O o o o X X X X X X X X X X o o X o @ o o o 7 V.LX>X0   ",
"u   Q SX1Xr - v B B B B B B B V G B B B B B B B B B B V h # C qXbXuXY + f B B B B B B B B B B B V B N N N A Y V B v , 5 @XHX]   ",
"-   >.UXj.. u C V V C C C C C C A V V V V C V C V V V H Y d = /.mX].: 2 B V V V V V V C V C C V L F V V V C Z V S U B + y.UXw.  ",
"=   ,.UXu.  w d d d d d d d d d d d d d d f g d d d d g Z v & W.MX/.& 1 d d d d d c x d d z x d f f d d d d d d f n D % 9.UXt.  ",
"=   >.UXi.. e f f f f f f f f d f f d f d l N k g f d d j g & W.MX(.& 1 d f f f d c x d d h j f f f f d d f d d d d c $ 0.UXr.  ",
"*   >.UXi.  w f d d f f d d d f v h d f d g j l h d f d f u & E.bX^.& 1 f f d f d d d d f d d d f f d h h d d h z f g # 0.UXr.  ",
"*   >.UXi.  q f f f f d d f f g v h d d d d d d d d d f f y & U.lXQ.& 1 f f d f d f f f d f f f d f f h h d d k M g f @ 0.UXr.  ",
"*   >.UXi.  w f f f f f f d f f d d d d f d d f d f g f f y % U.lXW.& < f f d d f f f f f f f f f f f d f f d f f f f @ 0.UXr.  ",
"*   >.UXi.  w f d d f z g d d d d d f d g f d f d d f f f y % U.lXW.& 1 d d f d f f d f f f f f f f d f d d d f d f f @ 0.UXr.  ",
"*   >.UXi.  q f d j k f f f d g l g f f g f d f f d d f f y % U.lXW.& 1 f d f f d d f f f f f f f f d f j h d f d f f @ 0.UXr.  ",
"*   >.UXi.  q f d x v d f f d h M x d f f d f f d f k f f y & U.lXW.& 1 f d d f f f d f d f f f f f f d h x f d d d f @ 0.UXr.  ",
"*   >.UXi.  0 f d f f d d d d d f g d d d d f f d f k f f y & U.lXW.& < d d f f l g d d f f f f f f f d d d f d f f f @ 0.UXr.  ",
"=   >.UXi.  5 a f f f d d f f f d d d f d d d d f f d d f y & Y.zXW.& : u f f f f d d f f f f d f f f f f f f f k g f # 0.UXr.  ",
"=   ,.UXu.  1 q p s d d d d d d d d d d d s s d d d d f g e & U.lXQ.* ; 8 y s d d d d d d d s d d d d d d d d d f f a + 9.UXt.  ",
"3   +.PXT.% * 5 7 9 9 9 9 9 9 9 9 9 9 9 9 9 0 q 9 9 9 t t & 6  XjX$Xt @ 3 6 9 0 9 9 9 9 9 w 0 9 0 0 9 9 9 9 9 9 0 9 > + A.UX<.  ",
"B   l sXMX{ X + @ + @ @ @ @ @ @ @ @ @ @ @ + @ # + + @ # + # 3.iXdXsXu.& o @ @ @ @ @ @ @ @ $ # + + @ @ @ @ @ @ + @ +   R lXxXN   ",
"o.= o r.GXfX*.j f g h g g g g g g g g g h h k j h h h g n i.wXfXdXfXyXj.B j h h h h h h h j h h k k h h h h h h h l %.yXJXx.$ o ",
"r.b   0 9XKXwX-X-X5X7X7X7X7X7X6X6X6X6X6X6X6XrXwX7X7X7X7X0XfXgXfXfXdXfXfXwXyX9X7X7X7X6X6X7X7X6X6XtXuX8X7X7X7X7X9XqXrXlXPXfXf   r ",
"r.n   9 8XKXwX-X-X5X8X7X7X8X8XiXgXfXfXfXfXhXrX8X8X8X8X8X7X7X7X6X6X6X6X7X8X9X8X8X8X8XyXhXfXdXfXdXjXsX9X8X8X7X7XqXwXrXlXPXfXf   t ",
"O.* X w.FXfX&.k h k k k k l l ' oXhXjXdXdXL.J l l l k k k k k k k k k k k k k k l z E (.fXdXdXgX*X..x l l k k k l x %.iXKXz.$ o ",
"B   k pXNX| O > 3 2 2 2 6 6 , o m &XgXfXL.7 = 6 2 1 2 2 2 4 3 2 2 2 2 2 2 2 1 1 3 2 + i '.gXgX<XG o < 2 2 2 2 2 2 > o Q zXzXM   ",
"3   +.LXR.$ q G K K K K I U P h O 4.gX0XD # F I P W L K K L K K K K K K K K J L Y I v + ` iXgXu.o i H J K K K K L L p @ S.IX,.  ",
"*   ,.UXu.  e l k k k k k x D K - ~ dX-Xw = j k z B l k k k k k k k k k k k k k x A P 1 m qXfXX.X i k k k k k k c G F # 9.UXt.  ",
"*   >.UXi.  q f d d d d h g h C : ~ dX-Xw * s f d d d d d d d d d d d d d d d d d f V 2 m qXgXX.. r f d d d d d d k V $ 0.UXr.  ",
"*   >.UXi.  q f d d f f n z d k = ~ dX-Xw * s d g k f d f d d d f f f f f f f d d d j , m qXfXX.. r f f f f d f f d j # 0.UXr.  ",
"*   >.UXi.  q f f f f f l h d f & ~ dX;Xw * s d d f f f g j d d f f f f f f f f d d l 2 m qXfXX.. r f f f f d d l l f @ 0.UXr.  ",
"*   >.UXi.  q f d z h d d f d f & ! dX;Xw * s g f d f d l V g d f f f f f f f d d d x 4 m qXfXX.. r f f f f f d h h f @ 0.UXr.  ",
"*   >.UXi.  q f d g f d d f f k = ~ fX:Xe * s g f d f g g h f d d f f f d f f d f g g : m qXfXX.. r f f f d f f d d h $ 0.UXr.  ",
"*   >.UXi.  q f d d d d d f h v ; ! lX,Xw * s d d d g v g d d d d f f f f f d d f j g : m qXfXX.. r f f f d d f d d l & 0.UXr.  ",
"*   >.UXi.  q g f d d f f d f g & ~ gX:Xw * s f d d f f f d d f f d f d d d d f d g h : m qXfXX.. r f d f f d f d f f # 0.UXr.  ",
"*   >.UXi.  q h f d f f f f d f & ~ dX;Xw * s f f d d d d d d g f d f d f f d d d d g ; n qXfX... t f g f h j d d f f # 0.UXr.  ",
"*   >.UXi.  q h f d f f d d d g & ^ fX;Xw * s f f f f f f f d d f f f d g g d d d d g ; n qXfX..X u f v l k x d d f f @ 0.UXr.  ",
"*   >.UXi.  q g f d f f f f d g & ( gX-Xw & a f f f f d d d f f f d f d d f f f d d g ; n qXfXX.X t f g f d d d d f f @ 0.UXr.  ",
"=   >.UXi.  7 d f d f d d d d g & ! dX;Xw % y f d d d f g f f f f f f f f f f d f f g ; n qXfXX.. 0 d d d f d d d f f @ 0.UXt.  ",
"=   ,.UXu.  2 r s f f f f f f g * ! dX;Xw % 8 i d f f f k f f f f f f f f f f f g f g : n qXfX... 4 t d f f f d d f f @ 9.UXt.  ",
":   =.UXn.X : 6 w t r t r r r 0 + X.fX2Xh O 3 8 e t r t t t t t t r t t t t r r t r q + J rXgX>.  , 7 w p u r r r r 7 o f.UX9.  ",
"g   J NXyXz X = 1 < ; ; ; ; - O 5 E.gXsXw.@ # ; ; ; ; ; ; ; ; ; ; ; ; ; ; ; ; ; ; ; + * b.gXgX`.q o - ; : ; - ; ; = X p 3XSXW   ",
"( @ - T.PXOXm = & & & & & & * u n.aXdXdXqX;.4 * * * & & % & & & & & & * * & & & & * 9 r.uXdXdXdXG.f = * & & & & & * k '.IX[.1 . ",
"7.i   x pXKX4XI.K.E.W.W.W.W.Q.%XsXdXdXdXfXuX}.W.~.(.Q.W.W.W.W.W.W.W.W.!._.Q.W.W.W.W.OXaXfXdXsXdXfX=X!.Q.W.W.W.W.~.).5XKXxXS   1 ",
"i.F   1 2XKXpXeXrXhXkXkXkXkXkXjXgXgXgXgXgXhXjXkXkXlXkXkXkXkXhXhXhXhXhXkXlXzXcXkXlXkXjXgXgXgXgXgXgXjXkXkXkXkXkXkXcXnXBXLXpXr   g ",
":.4   ~ vXAXH.-.*.>.,.,.,.,.,.,.,.,.,.,.,.,.,.,.,.,.,.,.7.].dXdXdXdXfX X0.<.1.,.>.,.,.,.,.,.,.,.,.,.,.,.,.,.,.,.1.4.U.CXCXo.. % ",
"I X 9 ;XKXc., + @ + + + + + + + + + + + + + + + + + + + o w J.dXdXfXW.a O @ + & * # + + + + + + + + + + + + + + + o - i.FX9Xu   ",
"w   _ HX&X5 1 B D S S S S S S D S S A S S S S S S S S S c & h :XgX4XB # x D F ! ` L S S T R H D S S S J P D S S S B 4 : '.LXX.  ",
"-   >.UXd.. y N m M M M M m Z J N D N C B m m M M M M S Y g * T.cX].- 2 m M M M N M M m K I M m M N m N P A m m V Y Z + e.UXe.  ",
"=   >.UXu.  q d d d d d d d g k h B h f f d d d d d d f B v & U.zX!.& 1 j h d d d f v g d f d d f j d d g g d d f v S $ 9.UXt.  ",
"=   >.UXi.  q f d f d f f d d s d f f d d d f f x h f d h f & U.lXW.& 1 l j d f f f h g d d d f d d f d f l f f f f c $ 0.UXr.  ",
"*   >.UXi.  q f d d d f f d x k d d f g d f d f n k d f f y & U.lXW.& 1 f f d f f f d d d f f f d d f d f h f d d l n @ 0.UXr.  ",
"*   >.UXi.  q f d f k h x x b z d d k v f d f f f g k f f y % U.lXW.& 1 f f d d d d d d f d f f f f f d c m f d d g h @ 0.UXr.  ",
"*   >.UXi.  q f d f x l m l d d d f k l d d f f d g l f f y % U.lXW.& 1 d g g d d f k f f f f f d f f d h j d d f d f @ 0.UXr.  ",
"*   >.UXi.  q f d d f h k h f f d h z f d f f f f d f f f y & U.lXW.& < d b v d d g N h d d d d f f d f d d d d f f f @ 0.UXr.  ",
"*   >.UXi.  q f d d f d h v f d f f f d f f f f f f f f f y & Y.zXW.& 1 d h j h d d g f d f h f d d f f d d f d f f f @ 0.UXr.  ",
"*   >.UXi.  q f f f f f d f d d f f d d f f f f f f d d f y & U.jXT.& 1 d d h x d d g g d h B m g f d f f f f f f f f @ 0.UXr.  ",
"*   >.UXi.  9 f f d f f z g d d d d d d d d d d f f d d f y % S.rXJ.% < d d f f f d g h f f j z f f f d f d d d d f f @ 0.UXr.  ",
"=   >.UXu.  4 p f f f g M j d f f f f f f f f f f d f f f y % A.rXJ.& : y f f f f f f f g f f d f f f f d f f f f f f @ 0.UXr.  ",
"=   ,.UXi.  1 9 i f s s s s d s s s s s s s s s a f f s s w & D.rXK.& - 8 y a s s s s f c d s s s s s f h s s s s s p + 0.UXr.  ",
"5   ..KX(.= % 3 7 i q 7 7 8 t 8 7 7 7 7 7 7 7 7 6 9 9 7 4 # q [.eXoXs O 1 5 6 7 7 7 6 7 9 8 7 7 7 7 7 9 q 7 7 6 7 6 - # P.PX=.  ",
"S   a wXAX:.+ . o O X . . . o X . . . . . . . . . X o X   : m.ZXAXAXH.2   X . . . . . . . . . . . . . . . . . . . . o X.MXfXz   ",
"$.; . ;.VXmXx.W T T T R R T T R R R R R R R R R R R T T ( T.FXHXZXGXHX).` T T R R R R R T T R R R R R T T T R R T R d.xXDXq.+ O ",
"y.J O % 9.bXPXFXGXGXGXGXGXGXGXGXGXGXGXGXGXGXGXGXGXGXGXFXGXIXyX*.F +.9XPXGXFXGXGXGXGXGXGXGXGXGXGXGXGXGXGXGXGXGXGXGXFXPXNXs.- O c ",
"p.0.j . $ ) (.2X3X4X4X4X4X4X4X4X4X4X4X4X4X4X4X4X4X4X4X4X<XJ.A o   . n A.,X3X4X4X4X4X4X4X4X4X4X4X4X4X4X4X4X4X4X4X4X3X].| =   a 4."
};
