/* XPM */
static char *xpm_[] = {
/* columns rows colors chars-per-pixel */
"64 64 242 2 ",
"   c #0C0D03",
".  c #0A0B09",
"X  c #130C0A",
"o  c #150B06",
"O  c #0B110C",
"+  c #0C1405",
"@  c #12120C",
"#  c #141408",
"$  c #1A0C14",
"%  c #1B0F1A",
"&  c #140E15",
"*  c #0C1818",
"=  c #141313",
"-  c #15121C",
";  c #1A141C",
":  c #151A1C",
">  c #1C1C1B",
",  c #161712",
"<  c #0E0B18",
"1  c #24191A",
"2  c #151521",
"3  c #1B1D23",
"4  c #191924",
"5  c #110E21",
"6  c #231523",
"7  c #241A23",
"8  c #251B28",
"9  c #201D30",
"0  c #1C2123",
"q  c #162021",
"w  c #1D2836",
"e  c #1F3236",
"r  c #22212B",
"t  c #202022",
"y  c #2A2A3E",
"u  c #242838",
"i  c #2C323D",
"p  c #28333B",
"a  c #34353C",
"s  c #1B211F",
"d  c #34433E",
"f  c #1E2A44",
"g  c #262C43",
"h  c #2B2D43",
"j  c #2A2E4A",
"k  c #312C46",
"l  c #253544",
"z  c #2C3343",
"x  c #2B3A43",
"c  c #2C334B",
"v  c #2D3A4C",
"b  c #24344C",
"n  c #333344",
"m  c #383644",
"M  c #333B44",
"N  c #33344B",
"B  c #333C4C",
"V  c #3A3C4C",
"C  c #3A3944",
"Z  c #2D3A53",
"A  c #2C3656",
"S  c #333653",
"D  c #343B53",
"F  c #3B3D54",
"G  c #343A59",
"H  c #3D3C5C",
"J  c #393556",
"K  c #332F52",
"L  c #423B4C",
"P  c #433F56",
"I  c #35434D",
"U  c #3B434D",
"Y  c #3C494A",
"T  c #394544",
"R  c #354352",
"E  c #3C4353",
"W  c #3D4A54",
"Q  c #3D445A",
"!  c #3D4A5B",
"~  c #35435B",
"^  c #3C4963",
"/  c #3F567F",
"(  c #42434D",
")  c #46484C",
"_  c #45504F",
"`  c #424654",
"'  c #4B4354",
"]  c #434B54",
"[  c #4B4D54",
"{  c #42445A",
"}  c #444A5B",
"|  c #4A4C5C",
" . c #455254",
".. c #4A5254",
"X. c #45525B",
"o. c #4A535B",
"O. c #4A585B",
"+. c #505159",
"@. c #434362",
"#. c #454969",
"$. c #48567C",
"%. c #4C5376",
"&. c #3F5880",
"*. c #525D8B",
"=. c #4C588C",
"-. c #55648D",
";. c #586695",
":. c #626E97",
">. c #63739B",
",. c #6A7898",
"<. c #69728F",
"1. c #5C76AB",
"2. c #5A72A8",
"3. c #6674A8",
"4. c #6B7CBC",
"5. c #6777B7",
"6. c #6671B0",
"7. c #6C7CC1",
"8. c #6A7AC4",
"9. c #727CC4",
"0. c #737CCA",
"q. c #6D83BC",
"w. c #6886BB",
"e. c #7284BC",
"r. c #748CBD",
"t. c #7A88BB",
"y. c #7494BE",
"u. c #7C94BE",
"i. c #7A93B8",
"p. c #758BAA",
"a. c #7796AF",
"s. c #6F87C4",
"d. c #7484C3",
"f. c #738BC3",
"g. c #7B8CC3",
"h. c #7C8BCA",
"j. c #7887C8",
"k. c #7592C1",
"l. c #7C94C3",
"z. c #7B96C7",
"x. c #7DA3CA",
"c. c #7F99EC",
"v. c #8393BE",
"b. c #849CBC",
"n. c #8B9BBB",
"m. c #8690BE",
"M. c #8BA3BE",
"N. c #88A7BF",
"B. c #92A7BF",
"V. c #8295C4",
"C. c #849AC3",
"Z. c #8C9DC4",
"A. c #8B9CCA",
"S. c #8599CB",
"D. c #939EC9",
"F. c #889CD0",
"G. c #868ECA",
"H. c #85A3C3",
"J. c #8BA4C4",
"K. c #8DAAC3",
"L. c #85A1CA",
"P. c #8AA3CA",
"I. c #8EA9CA",
"U. c #85ABC2",
"Y. c #92A4C5",
"T. c #93ABC4",
"R. c #99ABC4",
"E. c #93ABC9",
"W. c #97A8CB",
"Q. c #99B4C5",
"!. c #9DBBC5",
"~. c #9BB5CA",
"^. c #9CBACA",
"/. c #95B6C6",
"(. c #A1BAC5",
"). c #A1BBC9",
"_. c #A1B6C9",
"`. c #819CE7",
"'. c #889BF7",
"]. c #8BA5FE",
"[. c #8CACFD",
"{. c #84A4F9",
"}. c #94A5FF",
"|. c #94ACFE",
" X c #99ACFD",
".X c #96A6FB",
"XX c #8DB2F8",
"oX c #94B3FE",
"OX c #9AB4FE",
"+X c #94BBFE",
"@X c #9BBCFF",
"#X c #99B7F4",
"$X c #8CAFEE",
"%X c #A2B6FF",
"&X c #A2BDFE",
"*X c #A9B8FB",
"=X c #9EC2CA",
"-X c #9BC0C6",
";X c #A3C3CA",
":X c #9CC3FD",
">X c #9ECAFB",
",X c #9CC1F7",
"<X c #ACCCF6",
"1X c #A4C3FE",
"2X c #ABC4FE",
"3X c #A5CAFE",
"4X c #ACCCFE",
"5X c #A2CEF5",
"6X c #B2CDFD",
"7X c #B5CCFA",
"8X c #ACD1F5",
"9X c #ACD3FD",
"0X c #AEDAFD",
"qX c #A7D3F9",
"wX c #BADBF6",
"eX c #B3D4FE",
"rX c #BBD5FE",
"tX c #B4DBFE",
"yX c #BBDCFE",
"uX c #B4D7F5",
"iX c #BBE4F7",
"pX c #BCE2FD",
"aX c #BCE9FD",
"sX c #B7E6F9",
"dX c #B7E9FA",
"fX c #C2DEFD",
"gX c #C5DBFA",
"hX c #D0DEFF",
"jX c #C3ECF7",
"kX c #C3E4FD",
"lX c #C9E4FE",
"zX c #C5EBFD",
"xX c #CAECFC",
"cX c #C4E4F5",
"vX c #D3EAFE",
"bX c #C5F3FE",
"nX c #CBF3FE",
"mX c #CDFCFE",
"MX c #C9F1F4",
"NX c #D3F3FE",
"BX c #D3FBFD",
"VX c #DAF9FD",
/* pixels */
"! #.#.H 9 X , 4 3 0 q 3 3 8 6 4 5 - @ # = : @ * : : > > s 7 > > > > s > > > : 2 @ , : ; @ + - ; ; 6 8 4 4 q q r : @ , r H %.#.~ ",
"^ #.G A { Q H Q } ] W W } | { V G g : > N ! R I { } } X.X.X.X.| | [ o.X...] | } R R ~ c 0 : g A V ` #.@.W W W } { E { E N D ^ #.",
"#.D w D ,.V.l.V.C.C.b.J.P.W.Z.V.j.-.u p >.L.H.P.D.Y.T.K.K.T.R.R.R.R.T.K.K.T.Y.D.J.H.H.>.p u *.j.V.A.W.Y.J.M.b.C.V.V.V.>.v u S #.",
"H N x =.F.2X4X4X4X4XeXeXyXrXeX2XOX4.A B l.9X0XyXgXfXaXaXaXaXxXxXxXzXaXdXsXpXyXgXtX0X9Xu.v c d.@X4X6XyXyXeXrX4X4X4X4X2XF.$.v N H ",
"8 V :.S.*X4X9X0X9X0XtXpXpXtX0X4X+Xg.V U A.0X0XyXhXlXxXaXaXmXNXNXNXNXbXbXbXzXlXhXyX0X9XH.U F j.oX4X0XdXpXtXtX0XqX9X9X4X*XS.:.V 8 ",
"O N t.*X2X<X8X0X0XtXyXkXaXaXpXeX@Xm.V E J.tXiXkXvXvXMXMXmXmXBXVXVXBXmXmXMXMXvXvXkXiXtXK.Y V m.&XtXtXpXaXpXtXtX0X0X8X<X&X*Xd.J . ",
"* G g.*X*X<X8X0X0X0XeXyXkXkXyXyX7XV.E ] B.iXzXlXvXvXNXBXmXBXBXVXBXBXBXmXmXnXvXvXkXxXkXY.] E V.7XrXkXkXkXyXrXeXqX9XeX<X*X%Xt.~ * ",
"* b 2.j.z.z.z.L.x.H.P.K.T./.T.Y.A.3.j x p.E.^.~.R._.).=X=X=X;X;X;X;X;X;X;X)._.~.~.~.E.p.B b >.A.B.T./.T.I.P.H.x.x.z.z.z.G.2.b * ",
"= q p B V V D R d ( L L @.Q ` P { N w w z ] X. .X.X.X...O...O.X.........X.X.X.X. . .} M w 9 z { P ` Q ^ L L ( T R R F N V g 3 = ",
"X - g v A S N v i y 5 6 k G D J F Q F E ` } ] ] ] W W W ` ` ] } ] ] ` ] ` ! } } ] ] ] } Q Q Q H H D A j 4 % u h B v N A A u 4 X ",
"  u $.5.4.9.s.5.>.%.u g ;.s.k.z.l.P.P.E.Y.J.K.K.Y.K.P.J.Z.Y.Y.J.J.Y.A.Y.P.Y.E.Y.K.M.K.K.I.I.P.l.l.k.s.;.g 9 %.:.4.s.7.8.1.$.u   ",
"  l 1.{.[.[.{.'.c.:.j A s.+X:X>X9XtXtXtXpXaXkXkXpXyXtXeXrXrXrXyXtXeXrXrXtXtXpXpXkXpXpXyXtXtXtX9X>X>X+Xj.A K 6.`.c.{.[.[.{.1.p + ",
"  B q.|.oXoX#X$X}.5.v V z.1X>X5X8XwXkXcXcXzXxXvXxXxXkXkXkXlXkXzXzXlXlXfXlXkXjXxXvXxXjXkXkXfXrX8X5X>X1Xz.V N 5.'.$X#XOXoXoXq.N X ",
"@ D f.OXOX#XXX$X}.4.c I V.4X4X8XuXfXcXlXjXnXNXNXnXnXnXjXxXxXxXnXnXxXxXxXxXjXnXxXNXnXnXxXlXcXyXuXqX9X4XV.I c 4..X$XXX#XOXOXf.D @ ",
"@ v q.#X&X&X:X+X}.q.v I C.6X9XrXyXwXfXkXnXmXnXNXnXnXnXbXnXnXnXnXnXnXnXbXnXbXmXNXNXNXmXbXkXfXfXyXrX6X6XV.I v s.|.+X:X&X&XOXe.v + ",
"X h ;.h.g.V.z.f.j.;.p i ,.A.Z.D.K.T.R.Q.!.!.!.(.).!.!.!.!.!.!.^.!.!.!.!.-X^.^._.(.!.!.!.Q.R.W.K.D.Z.Z.,.p p ;.j.z.z.l.g.h.;.h $ ",
"; 4 g A B U F L D z w r a ) ' { T ` ( ) ) ) Y X.! X.O.o.[ ) ]  . . .) [ ..X. .! } ) ) ' ( ( ' C P ' ( a 0 u z E L J U C S g ; ; ",
"  = w b x a M C W E U T T Y U V S h = , y R R ~ ~ ~ ! ! ! } } ^ ! } } } } ! ^ ~ ~ R ~ z , = g G V Y Y Y T Y E R T M M x b e =   ",
"O w =.5.4.e.g.t.V.V.C.J.M.J.C.z.9.*.u u ;.j.g.v.V.C.Z.Z.Y.Y.Y.Y.Y.E.Y.Z.Z.C.b.l.g.l.j.-.u u *.0.l.V.J.J.M.C.V.z.t.g.e.4.5.=.w O ",
". b 1.].|.OX&X&X6X4X6XeXyXeX6X2X|.4.c x g.&X2X2X<X6XrXrXfXfXfXkXkXkXfXfXrXrX6X4X2X2X&Xr.I l 4.|.3X6XyXeX6X7X6X6X&X%XOX X'.1.b . ",
"= N 9.}.OX@X2XuX8XeXyXyXpXyXeX9X:Xe.l x i.4X4X4XeXuXyXpXkXkXzXzXkXzXzXaXpXyXeXrX6X4X4Xu.x l r.@X4XtXpXyXpXyXeXeX7X4X@XOX].8.S = ",
"X K 9. XOX1X2X7XeXeXfXkXaXaXtX0X:Xr.I I b.4X9XeXtXwXkXzXzXzXzXbXxXxXzXkXzXaXiXwXeX8X8Xz.R D r.>X0XtXpXkXkXyXrX9XrX2X&X#X|.9.N X ",
"o a e.OX@X1X2X4XyXyXyXwXfXiXtX5X:Xq.D R C.4X9XeXyXkXkXaXzXzXxXxXxXzXzXaXkXkXpXfXeX9X9XV.E D e.:X8XeXpXwXwXwXyXyX3X2X1X@X%X4.a o ",
"X c 4.}.XX#X:X1X4XeXrXrXyXtXeX3X@Xr.B U C.9XeXeXfXfXyXyXpXpXkXzXzXkXkXpXyXyXfXkXeX9X9Xb.T B r.@X3X0XyXyXyXeXeX4X1X1X#XoX.X4.c . ",
"< A 2.`.|.oX#X:X,X,X>X3X3X3X1X:XoXe.V F b.4XeXrX<XuXrXyXyXpXpXpXpXpXyXyXyXeXuX7XeX7X9Xu.E F q.oX@X1X3X3X3X>X,X,X,X+XoX|.`.1.Z < ",
"5 f / 2.q.r.r.k.k.r.l.z.l.g.g.d.s.;.h N ,.L.A.b.Z.Z.Z.Y.K.T.J.J.J.P.E.Y.Y.Y.Z.Z.Z.A.P.,.N N ;.j.g.g.g.l.z.k.y.f.k.r.r.q.2./ f 5 ",
"% 4 e l x M B G A Z R R B S G J G h 7 7 n ! } | { { { ( W W W E W W W W ] E { { #.] W x 6 6 k G J D D B E R Z A Z V B x l w 2 % ",
"$ 2 e v M V V F R g 0 0 z E E Q R ' ' ' [  . .O.X. ..._ _ W  .X.X. ._ _ _ ..X.o.O... . .' P ' E H Q R z 0 3 g Z F F C x v p ; $ ",
"$ j ;.f.k.k.g.g.s.;.g z ,.J.J.A.N.J.W.W.Q././.Q.^.).).(.(.(.!.;X;X(.!.!.(.).).)./.~./.^.W.W.U.H.Z.J.J.,.z z :.t.g.g.u.f.r.;.b - ",
"& G s.oX@X@X&XOXoXj.v I C.eX8XeX0XtXyXfXzXaXbXxXbXnXnXxXxXnXmXBXmXmXxXnXnXnXnXbXzXzXaXaXfXyXtX0XeX8X9XJ.I Z d. X@X&XOX@X+Xs.Z & ",
"o N q.XXOX%X%X%X.Xd.N T H.0X8XeX0XtXyXyXyXpXkXzXaXMXjXxXxXxXMXbXMXnXxXxXxXjXjXdXzXlXyXyXfXfXtX0X0XuX9XZ.T z d.|.%X%XOXOX|.q.c o ",
"# b w.[.oXoXOX X[.9.c T C.6XeX6XqX4XeX6XeXtXtXwXdXiXcXkXlXzXxXjXjXzXlXlXkXcXiXiXiXyXeX0XrX6X9X4X6XeX4XC.T c 9.}. XOXOXXX[.w.v @ ",
". b 1.'.}..X|.[.].4.N B b.4X3X4X1X3X3X1X3X3X3XtXeXeXtXtXyXyXyXiXiXyXyXyXyXtXeXrXrX3X3X3X1X3X3X1X4X3X9Xb.M N 4.].].}..X}.c.1.b . ",
"& w &.1.4.9.9.0.s.*.y z <.C.C.v.l.l.l.l.u.u.l.V.A.J.H.J.P.E.J.M.N.P.Y.P.J.H.H.C.C.u.u.u.z.l.k.l.v.V.C.<.z g *.s.s.9.9.4.1.&.w = ",
"& - u j N N m J v p 3 3 a F E E U D F P U U R F E E E ] } ' ] ] ] ] | ] ] E E P G E V V E F F R U ` E y 0 3 p D J N m N j g 2 $ ",
"& 6 k m M C C L I W W W Y Y ) E E k 7 7 a ( ) ` ' ] ) [ +.o....._ ..+.+.[ ] ] ' ' ` ( a 1 7 n F E ] Y ( W W W U L C C M K k 6 $ ",
"O g -.e.y.y.l.S.n.A.P.P./.R.Z.S.z.>.z i ,.A.K.T.R.Q.Q.Q.!._.!.!.-X).).).!.Q./.E.I.J.J.,.i i :.z.C.Y.Y.T.T.P.A.Z.S.l.l.y.e.-.y O ",
". S e.OX@X:X3X4X7XgXeXyXkXpXyXeX:Xg.B V F.eXtXpXkXzXnXNXNXNXmXmXmXnXNXNXnXxXzXkXdXsXeXA.U D h.:X6XyXpXzXtXtXgX7X9X3X:X+XoXe.S . ",
"% G f.+X@X1X4X8X6XrXwXpXsXpXtXeX:Xh.D U D.rXiXpXcXxXxXNXNXBXBXmXBXBXNXNXNXMXzXkXaXsXrXD.( N g.1XeXtXsXpXiXtXrX7X<X<X1X@X+Xf.D % ",
"% Z w.+X@X1X9X9XeXeXrXyXpXpXyX6X:Xh.S E A.tXpXtXyXzXjXnXBXBXmXmXmXBXBXNXnXxXkXiX0XdXeXA.{ S j.:X6XyXpXpXyXrXeXeX9X9X1X:X+Xw.S % ",
"% Z w.+X:X1X6X4XeXrXrXfXiXpXyX6X:Xg.N E C.eXsXtXkXkXxXnXBXBXmXmXmXBXBXBXnXbXaXkXtXaXtXZ.` S j.1X6XyXpXiXfXrXrXeX4X4X2X:X+Xw.Z % ",
"$ S f.+X@X1X<X8X6XrXeXiXaXpXtX9X:Xh.D ` D.rXpXaXcXxXnXNXNXBXBXBXmXBXVXNXnXMXzXcXpXsXeXA.U V h.&XeXtXpXaXiXtXrX7X<X4X1X@X+Xf.S $ ",
". Z q.+X@X1X4X4X7XfXtXtXkXkXyXeX:Xz.V I A.eXiXiXlXkXnXnXnXNXmXmXmXNXNXNXnXnXxXkXpXtXrXF.R B h.:XeXtXkXkXyXrXyX7X9X3X3X@X+Xq.Z . ",
"X g -.e.u.l.z.S.n.P.P.I.E.T.J.J.z.;.z z ,.P.K.Y.R.Q.Q.(.(.).).!.-X(.(.(.!.!.Q.R.T.K.P.,.a z >.V.J.J.T.E.I.L.J.n.S.l.u.g.q.-.g X ",
"$ 6 h c m C C L I W R W Y U ] ` E k 8 7 m ( ] ' ' ] [ ..+.+...........+.[ [ ' ] ] ) U a 7 7 n U E ] T Y W W W I L L C m N h 4 $ ",
"$ 5 u g z N N V Z l q 0 i V E { U V P L V U U F { Q E ` | | ] ] ] [ } } ` ` { { F E U U ` P D R Q Q V a 0 3 l Z N N N z j u % X ",
". 9 =.2.4.7.9.9.4.*.y a <.C.V.V.l.k.z.z.l.z.z.S.L.H.P.J.J.Y.K.N.B.K.I.I.J.J.J.A.V.V.l.u.u.l.k.z.V.V.V.<.a y *.7.9.9.7.8.2.$.w . ",
". g 6.c.].].}.}.].5.k V n.4X3X2X1X3X3X3X3X3X4X0XtXtXtXyXyXyXiXiXaXpXtXtXyXeXeXeXeX3X4X1X1X3X3X1X2X3X4Xb.B n 5.{.}.}.].'.c.6.g . ",
"  c 5.}..X XOXXX].8.K P C.4X8X4X9XqX9X6XeXyXtXiXaXiXiXlXcXlXzXiXjXjXzXlXlXkXaXsXpXyXtXeXeX4X9X9X4XeX9XC.( K 9.[.XXOX X.X}.4.k   ",
"+ b 4..X.X#XOXXX}.d.m d D.rXeXrXtXtXyXfXgXkXaXbXjXxXxXxXNXxXMXMXMXMXxXNXxXxXjXjXxXkXiXfXyXyXyX0XrXeXrXZ.T n 9..XXX#X#X X.X4.v # ",
"+ Z d. XOX@X@X:XoXd.x d H.eX8XeXtXtXfXlXaXzXbXaXbXnXnXnXnXNXmXmXmXmXnXnXNXnXnXbXxXbXjXkXfXyXtXtXeX9XeXH.d z d.oX:X@X@XOX|.s.Z + ",
"= l -.d.h.j.u.f.s.;.p p ,.H.H.P.U.K.W.W.Q./././.~.^.!.!.!.(.=X;X;X!.!.).).!.!.)./././.~.R.W.E.U.A.N.M.,.p p ;.f.f.k.j.h.q.-.l = ",
"- q e l Z G A Z z h 8 8 a I U Q ~ } ' P ' _  .O.o.| ..] _ ) _ ] ] ] .._ _ ..o.#.O. . .[ P L | Q Q U U a r 8 y z A G G S l e 4 - ",
"< 5 w j G G S V z J H H D I S S A K ; 1 M ! ] X.} } ` ` ] ] ] ~ ~ W ] ] ( { { { } } ! m 1 6 k G G Z B D H H J i N S J G b e 2 < ",
"O u =.8.0.9.m.p.i.i.z.h.y.y.y.f.j.;.y m ,.I.I.H.Z.Z.Y.K.W.E.K.K.I.I.Y.T.K.J.Z.Z.J.P.P.,.N k ;.s.g.k.y.y.z.h.u.i.p.t.9.0.8.=.w . ",
"  b 5.}. X#X#X,X&X2X1X:X5X3X@X@XoXe.B E S.rXtXuXgX7XrXfXkXkXyXyXyXyXkXaXyXgXrXrXuXtXeXJ.U B e.OX@X@X>X>X@X1X2X1X,X#X#X.X}.4.c   ",
"o N t.OX+X>X3X3X<X6X4XeXuXuX8X3X@Xr.B Y P.eXtXwXfXlXkXsXaXzXzXzXzXaXaXaXaXaXfXlXwXeX0XP.E T g.@X3X8XuXuXeX6X4X<X9X3X>X@XOXt.k X ",
"@ S j.OX:X>X5X0XeXeXrXwXcXiXtXeX&Xu.B I M.eXtXpXlXkXkXzXzXxXbXbXbXbXbXzXjXkXkXfXpXeXeXH.U M g.:XeXwXiXgXyXyXeXeX0X5X>X+XOXj.J @ ",
"& D h.&X1XqX0X0XyXyXyXfXcXxXfXrX1Xg.v I b.eXtXtXgXcXjXxXxXnXbXbXnXbXnXxXxXzXcXwXyXeXuXZ.I B g.1XrXgXcXMXfXyXyXyX0X0XqX3X&Xh.D = ",
"9 J :.F.@X9X9X0XpXfXfXkXxXlXyX4X:Xe.v I C.eXeXtXwXiXkXzXxXzXxXzXzXbXxXxXxXcXiXwXyXeX9XC.I v g.@X4XyXlXzXkXfXfXyXtXqXqX:XF.:.F 9 ",
"P D V $.F.*X7XrXyXpXfXyXcXyXeX3XOX4.v I l.2XeXrXwXwXwXfXlXlXlXkXkXkXlXlXkXgXuXuXrX7X4XV.D c 4.OX3X0XyXkXyXkXyXyX7X2X*XF.$.V F H ",
"#.J u U >.G.G.D.K.Y.W.E.W.I.x.k.d.*.u l :.V.C.b.J.n.M.B.R.T.T.T.R.T.R.E.Y.M.M.M.n.V.l.;.x p *.d.z.x.I.E.E.W.E.M.D.D.G.,.U u F #.",
"#.Q U P P @.@.Q W } } | | | ! ~ G j 4 > h F ~ ~ ~ W } } } ' X.X.X.! } ' } ! W ~ Q Q U n 4 ; j D ~ ! @.| @.| } W { @.@.@.F F Q ^ ",
"^ ^ #.{ u ; t > : > ; 6 7 1 1 1 = 2 & $ @ # : 4 * 4 > 3 > > : s s s > 1 4 3 : * 4 : # @ & & 2 # 1 1 1 7 1 ; > : s 8 ; 9 @.#.^ ^ "
};
