/* XPM */
static char *xpm_[] = {
/* columns rows colors chars-per-pixel */
"64 64 153 2 ",
"   c #0F0D0F",
".  c #0F0D11",
"X  c #100E10",
"o  c #141315",
"O  c #15151C",
"+  c #19171A",
"@  c #19181D",
"#  c #191921",
"$  c #1E202C",
"%  c #1F2231",
"&  c #22222A",
"*  c #222535",
"=  c #242837",
"-  c #242738",
";  c #26293A",
":  c #292D3F",
">  c #272C41",
",  c #292E43",
"<  c #2C3146",
"1  c #2E334A",
"2  c #313545",
"3  c #343844",
"4  c #31364E",
"5  c #343A4E",
"6  c #383E4F",
"7  c #323750",
"8  c #353B51",
"9  c #383E52",
"0  c #3B4253",
"q  c #3C4258",
"w  c #404654",
"e  c #434B54",
"r  c #485057",
"t  c #434E78",
"y  c #46527C",
"u  c #475481",
"i  c #4B5785",
"p  c #4D5A8A",
"a  c #505D8E",
"s  c #515F90",
"d  c #536194",
"f  c #5D6B9B",
"g  c #62729C",
"h  c #6D7F9C",
"j  c #5A6AA5",
"k  c #5D6EAA",
"l  c #5F71AE",
"z  c #6274B4",
"x  c #6577B8",
"c  c #6679BB",
"v  c #687BBE",
"b  c #6A7EC2",
"n  c #6D81C5",
"m  c #7185C6",
"M  c #758AC6",
"N  c #798EC6",
"B  c #7084C8",
"V  c #758AC9",
"C  c #798FC9",
"Z  c #7C92C6",
"A  c #7B91C9",
"S  c #7B93E4",
"D  c #7D96EB",
"F  c #7F98EE",
"G  c #8097C6",
"H  c #859CC6",
"J  c #889FC6",
"K  c #829ACB",
"L  c #89A2C6",
"P  c #8DA6CA",
"I  c #93ADC7",
"U  c #90A9CA",
"Y  c #97B2C7",
"T  c #9AB5C6",
"R  c #9DB9C7",
"E  c #9FBBC8",
"W  c #A0BCC7",
"Q  c #A0BCC8",
"!  c #819AEE",
"~  c #839CF3",
"^  c #869FF9",
"/  c #86A0F5",
"(  c #88A2F7",
")  c #87A1FA",
"_  c #8AA5FD",
"`  c #8EA9FE",
"'  c #91ADFF",
"]  c #95B2FF",
"[  c #99B6FF",
"{  c #9DBBFF",
"}  c #A0BFFF",
"|  c #A6C6FF",
" . c #A5C5FF",
".. c #A4C3FF",
"X. c #A8C7FF",
"o. c #A9C9FF",
"O. c #AACAFF",
"+. c #ABCBFF",
"@. c #A9CAFF",
"#. c #ACCDFF",
"$. c #ACCCFF",
"%. c #ADCEFF",
"&. c #AECFFF",
"*. c #AACAFF",
"=. c #B3D6FF",
"-. c #B4D6FF",
";. c #B5D7FF",
":. c #B7D9FF",
">. c #B7DAFF",
",. c #B8DBFF",
"<. c #B9DBFF",
"1. c #B9DCFF",
"2. c #BADDFF",
"3. c #BBDEFF",
"4. c #BCDFFF",
"5. c #BEE1FF",
"6. c #BCE0FF",
"7. c #C0E4FF",
"8. c #C1E5FF",
"9. c #C1E6FF",
"0. c #C2E6FF",
"q. c #C4E8FF",
"w. c #C4E9FF",
"e. c #C5E9FF",
"r. c #C5EAFF",
"t. c #C6EBFF",
"y. c #C8EDFF",
"u. c #C8EEFF",
"i. c #C9EEFF",
"p. c #C9EFFF",
"a. c #CAEFFF",
"s. c #CAF0FF",
"d. c #CBF1FF",
"f. c #CCF1FF",
"g. c #CCF2FF",
"h. c #CDF3FF",
"j. c #CEF3FF",
"k. c #CDF4FF",
"l. c #CEF4FF",
"z. c #CEF5FF",
"x. c #CFF5FF",
"c. c #CFF6FF",
"v. c #CFF7FF",
"b. c #D0F6FF",
"n. c #D0F7FF",
"m. c #D1F7FF",
"M. c #D1F8FF",
"N. c #D1F9FF",
"B. c #D0F8FF",
"V. c #D2F9FF",
"C. c #D2F8FF",
"Z. c #D2FAFF",
"A. c #D3FAFF",
/* pixels */
"A.A.A.B.A.A.n.n.n.A.n.A.A.n.e.<.@.Z 6 0 L =.1.1.8.w.y.d.g.n.n.n.n.n.b.a.a.y.w.7.4.2.=.L 0 5 Z +.1.w.l.N.C.N.N.n.C.C.C.N.N.C.A.A.",
"A.A.A.A.A.n.n.A.n.n.n.C.C.g.e.<.+.Z 6 0 L ;.1.1.8.w.y.d.g.n.n.n.N.n.b.b.g.y.w.7.2.<.=.L 0 8 Z @.1.w.l.N.n.N.n.C.N.N.N.C.N.C.C.A.",
"A.v.B.B.A.n.n.A.n.n.n.n.A.g.e.<.@.Z 0 0 L =.1.4.8.w.y.d.l.n.n.n.n.n.n.g.g.y.w.7.4.<.-.L 0 0 Z @.1.w.l.N.n.n.n.N.n.N.n.C.A.C.A.A.",
"A.A.A.A.n.A.n.n.n.n.n.n.n.g.e.2.@.Z 0 0 L =.<.4.8.w.y.d.g.l.n.N.C.n.n.g.g.y.w.8.4.<.-.L 0 0 Z +.1.w.g.n.n.n.n.v.n.C.C.N.N.N.N.A.",
"A.A.B.v.A.v.n.n.v.v.g.v.n.g.e.<.+.A 5 0 L -.2.4.8.w.y.g.l.l.n.N.n.n.n.g.g.y.t.8.5.2.-.L 0 8 Z X.<.w.g.n.n.l.l.l.n.n.N.N.N.A.N.A.",
"B.A.A.A.A.A.n.v.g.g.v.v.v.g.0.<.+.Z 9 0 L >.4.5.0.t.d.d.l.n.N.N.n.n.n.n.g.y.w.q.5.2.>.L 0 9 Z +.1.w.g.l.l.l.k.l.n.n.n.N.N.C.A.A.",
"B.B.B.A.v.v.g.g.g.i.i.d.g.i.0.>.+.Z 9 0 L <.2.4.8.0.y.d.g.l.l.v.n.n.l.g.y.y.w.8.2.2.;.L w 0 Z +.;.0.d.g.d.y.y.d.g.g.l.N.N.N.N.N.",
"E E E W E E R T T Y T T T T I P K g 2 3 h P U U Y Y T T R R R R R R R R T T T I I I P h 3 2 g K P I T T T T T T T R R W W W W R ",
"r r r r r r e e e w e e e e 0 e q 2 & & 6 w e e e e e e e r e r e r e r e e e e e w w 9 & & 3 q e 0 e e 0 e 0 e e r e r r r r r ",
"q q q q q q 0 8 1 = # # : 7 8 8 9 9 q q q q q 9 9 9 9 9 8 8 9 9 9 8 9 8 9 9 9 9 9 q 9 9 q q 9 9 8 8 5 < @ @ ; 1 5 9 q q q q q 0 ",
"M N A A A M V n x i = ; d n B m M N Z Z N N N N V V m m B B m n m m B m m m m M C N A A Z A N M V n n d : = p x n M N A A A N N ",
"} } { } ..{ { ` / z < 4 n ' ' ] ] { { { } { { { { ] ] ] ] ] ] ] ] ' ' ] ] ] [ [ { { } } { { [ [ ] ] ` n 5 < z ~ ' [ { ..{ { ..{ ",
" . . . .|  .{ ] ` v 1 5 V ] ] [ { { } } } ....} } { { ] [ [ [ [ [ { [ [ [ { { { } } ..} ..} { { ] ] ] n 5 1 b ` ] {  . . . . . .",
"@.#.| #.#.|  .{ ` n 4 5 M [ { { { } } ..X. . ...} } } } } { { { { { { } { } } ......X.....} } } { { [ M 8 4 n ' { ..+.%.%.+.+.+.",
"#.%.%.%.#.#.| } ] m 5 5 M { { { } } } ....X.......} } } } } } } } } } } } ..} ..X...X.....} } { { { { M 5 5 m ] { X.%.%.%.%.#.#.",
"L H H L L L G A V f < < g A M M N N Z Z Z G G G G Z G N Z Z Z Z Z Z Z Z Z Z G Z G G G Z Z A N N N N C g < , f V Z H H L H L H H ",
"0 0 0 w 0 0 0 0 8 < & & < 9 8 8 5 5 4 5 5 5 0 0 9 6 9 9 9 6 9 9 9 9 9 9 6 9 6 6 5 0 5 8 5 5 2 5 5 8 0 < $ $ : 9 0 0 0 0 w 0 0 w ",
"8 8 8 8 9 9 9 6 9 6 9 q 9 9 8 1 < $ o O % < , < 1 4 4 5 7 8 8 7 8 7 8 8 5 4 4 1 1 < < % o O % , 4 8 8 0 0 q 0 6 8 8 8 8 9 9 9 9 ",
"M V V M m M M M N N N N A M m v k t $ % u l l z c v b n n n m m m n n b b b v x z l l u % $ t k v n V N A M N M M M M V M m m M ",
"[ [ ] [ [ [ [ [ { { { { { { ] ( S j ; > l F F ~ ~ _ ` ` ' ' ' ' ' ' ' ' ` ` _ ) ~ F D l > ; j S ( ] { } { { { { { [ [ [ [ [ ] [ ",
"{ } } } } } } } ........ .} [ ` F k > > l F ) _ ` ` ' ] ] [ [ ] [ [ [ ] ] ] ` ` _ ^ F x , , k ! ` [ ............} } } } } } } { ",
"} } } } } } } } .. .} ......[ ' ~ l < < c ) _ _ ` ] ] ] { [ { { { { [ [ ] ] ' ` _ _ ^ c , , l ~ ` [ } ..........} } } } } } } } ",
"} } } } } } } } ..{ { ..{ { [ ` F l > 1 c ) _ _ ` ] ] ] ] { { { { { [ [ ] ] ] ` _ _ ) v < , l ! ` [ { { } } } { } } } } } } } } ",
"{ } { { { { { { [ [ [ [ [ [ ' ( F l > 1 b _ _ ` ` ` ] ] ] ] ] ] ] ] [ ] ] ] ` ` ` _ ) b 1 , l ! ( ] [ [ [ [ [ { { [ { { { { { } ",
"] ] ] ] ] ' ] ' ' ` ` _ _ ( / F S j > 1 v ) _ _ ` _ _ ` ` ` ' ` ' ' ` ` ` ` _ _ _ _ ) b 1 > j S ! ~ / _ ` ` ` ` ' ' [ ] ] [ ] [ ",
"m m m m m m n b b b v v v x l l k y * = a b b b b b b b b b n n b b b b n b b b b b b s = * y j l z x v v v b b b b b m m m m m ",
"8 8 8 8 5 7 4 2 1 4 4 1 1 < < , > * O @ : 5 5 5 4 5 8 1 5 7 1 5 8 8 7 8 5 5 4 5 4 8 5 ; @ @ * > < < < 1 1 1 4 4 8 4 4 8 8 8 8 8 ",
"0 9 w 6 0 6 9 5 2 ; # @ ; 1 1 1 1 1 5 8 5 8 8 5 8 0 8 8 0 8 8 5 8 8 8 5 8 8 5 8 9 9 5 5 7 4 4 1 < < 1 ; @ # ; 2 8 6 9 0 6 0 0 0 ",
"H H H H H G Z M b s ; - a v b b n n B V V M Z N N N N N Z N Z Z Z N Z N N M A N M A N V n B n n v b v p ; ; a b M N G H H H H H ",
"O.O.+.+.+. .} ] _ c < 1 c ) ) ) _ ` ` ] ] ] ] { [ { { { { { { { { { { { { { [ { { [ ] ] ] ` ` _ _ ) ) v 2 < c _ [ } X.O.O.O.O.O.",
" .X. .X. ...{ ] ( x < 1 c ^ ( ) _ _ ` ` ` ] ] ] ] ] [ [ [ [ { [ [ { ] { { ] ] ] ] ] ] ' ` ` _ _ ) ) ) c < < x ( ] { ..X.X.X. . .",
"} } } } } } [ ' / x , < x ~ ^ ~ ) ) ) ) _ _ ` ` ' ' ] ' ] ] ] ] ] ] ] ] ] ] ' ' ` ` _ _ ) ) ) ^ ^ ~ ~ c < < z ~ ' [ } } } } } } ",
"[ [ [ [ [ [ ' _ F l < < x F ~ F ~ F F F ! ~ / ) ( ) ` ` ` ' ' ' _ ` ` ` ` ` _ _ ) F F F F F F F F F F c < < l F ` ] ] { [ { ] [ ",
"m V M M M V n b x i = - p z z z l l l l z z z z v v b b b b b b n n n b b b c c x z c z z z l z z x x p = % i x n n m M M m M M ",
"5 0 4 8 0 5 4 4 1 = O O ; 2 2 < 1 < 1 1 < < 1 1 4 4 4 4 7 7 3 8 5 5 8 5 7 1 1 1 1 < < 1 1 < < 1 < 1 1 = @ @ = < 4 1 0 7 0 7 8 8 ",
"0 0 0 0 0 0 0 0 0 5 0 5 8 5 5 5 1 = @ @ ; 1 1 5 4 4 6 8 8 9 6 6 5 0 5 8 8 5 8 8 4 4 1 % # @ % 1 4 1 5 0 4 5 0 5 0 0 0 0 0 0 0 0 ",
"Z Z Z L Z Z Z Z N N N M N M m v z i = - d n n n m m N N N Z N Z Z Z Z Z M M V m n n n s = * i x n m M N N N N Z Z Z Z Z Z Z Z Z ",
" . . . . . . .} { { { { { [ ] ( ! l < 1 b _ ` ` ] [ [ { } } } } } } { { { { ] ] ' ` ` n 1 < l ! ` ] { { [ { { { .... . . . .@.%.",
"@.|  . . . . .} } { { { { { ] ` ~ l > 1 b ` ' ' ] [ { { } } } ..} ..} } { { { ] ' ' ` n 1 > l ~ ` ] { { { { { } } .. . . .@.@.@.",
" . .@. . . .} } } { { { { { ] ` F l > 1 b ` ` ' ] [ { { } } } } } } } { { { ] ] ' ` ` n 1 > l ! ( ] { { { { { } } .. . . . . . .",
"| | | |  . ...{ } { { { } { ] ( ! l < 1 n ` ` ' ] [ [ [ } } } } } } } { { { ] ] ' ` ` b 1 > l F _ ] { { { { { { } .. . . . .@. .",
"| | @.|  . .....} { { { { { ] ` / l > 1 n _ ' ' ] [ } } } } } } ..} } } { { [ ] ] ` ` n 1 > l ~ ` ] [ } { { } } } .. . . . .@.| ",
"| | | |  . .} } { { { { { [ ] ` ! l < 1 n _ ` ' ] [ [ } } } } } } } } { { [ [ ] ` ` ` b 1 < l ! ` ] [ { { { { } } ....@. .@. . .",
"H Z Z G Z Z Z Z A N M M M N m b z i % ; s n n m m m M N M G N N Z Z Z Z N M M m m n b s - = i z v m M N N M N N N Z Z Z Z G G Z ",
"0 0 0 0 0 0 0 5 5 5 5 8 5 5 5 4 1 % @ @ ; 1 4 1 4 8 8 8 6 9 6 9 6 5 8 5 8 5 5 4 5 1 1 ; # @ - 1 5 5 5 5 8 8 5 5 0 0 0 0 0 0 0 0 ",
"8 0 5 8 0 8 8 4 1 - @ # = 1 1 1 1 < 1 1 , < 1 1 1 1 4 4 4 7 7 8 5 5 8 7 7 5 4 1 1 1 < < 1 1 < < < 1 1 = @ @ - 1 1 4 4 0 0 0 8 5 ",
"V M M M M M n n c i = - p c c z z z x z z z x x b b b b b b b b n n n n b b b v x z z z l z z z z z x p - = i z n n M M M M V V ",
"[ [ [ { { [ ] _ ~ z , 1 c F F / F F F F / F / ) ^ ` ` ` ' ' ' ` ` ` ' ` ` _ _ _ ) / ~ ~ ~ F F ~ F / ~ x 1 < l / _ ] [ [ { [ { [ ",
"} } ..}  .} [ ] ( x < < c / ) ) ^ ^ _ _ ` ` ' ' ' ' ] ' ' ] ] ] ] ] ] ] ' ] ' ' ' ` ` _ _ ) ) ) ( ) ) c 1 < z / ] [ {  .........",
"@.@.@.@.@.| { ] _ c 1 < v _ ) _ _ ` ` ' ' ' ] ] ] [ [ { { [ } { { [ { { { { [ ] ] ] ] ] ' ` ` ` _ _ ) v 1 1 v _ ] {  .+.| | |  .",
"+.+.+.+.#.| } [ _ c < 1 b ) _ _ ` ` ' ' ] { { { { { { { } } { } { } { { { { { { { { { ] ] ' ` ` _ _ ) b 1 1 v ` { ..+.#.#.#.#.#.",
"L H H H L G Z N n a ; ; s b b n m m m V N N N N N N Z N N N N G Z N Z N Z N Z N Z A M M V m n n b b b s ; - s n M Z H G H H H H ",
"0 0 0 0 0 0 0 4 5 ; # @ ; 1 1 1 2 4 7 7 8 8 9 9 6 9 8 9 6 6 9 9 6 9 6 9 9 6 8 9 5 8 8 5 8 8 1 1 1 1 1 ; # # ; 1 5 8 0 0 0 0 0 0 ",
"8 5 8 5 5 5 7 4 1 4 1 1 1 1 < , > * @ # > 7 8 8 4 4 7 7 7 4 7 8 4 5 7 4 7 7 4 7 8 7 8 : # @ * , > 1 < 1 7 1 1 1 4 5 5 5 5 8 8 8 ",
"m V m n n n n n b b v v c c z k k y * ; s b b b b b b b b b b b b b b b b b b b b b b d ; * t k l l c v v b v b n n n m m m V M ",
"] ] [ ] ] ] ' ' ` ` _ _ _ / ~ ~ S k > 4 b ` ` _ ` ` ` ` ' ' ' ` ' ' ' ' ` ` ` _ ` ` ` b 1 , k S F / ( ( _ ` ` ` ` ' ' ] ] ] ] ] ",
"{ { { { [ { [ [ ] [ ] ] ] ' ` ( ! l , 1 b _ ` ` ' ' ' ] ] ] ] ] ] ] ] ] ] ' ' ' ' ` _ b 1 , k ~ ( ` ' ] ] [ [ [ { [ [ { { { { { ",
"} } { { { { { { { { { { { { ] ` ~ l , 1 b _ ` ' ' ' ] ] [ [ [ [ { [ [ [ ] ] ] ' ` ` _ b 1 , l ! _ ] { { { { { { { { { { { } { { ",
"} } } } } } } } ..} } ..} } [ ` ~ l , 1 b _ ` ` ' ' ] [ [ [ [ } { { [ [ [ ] ' ' ` _ ) v 1 , l ~ ` [ { ....{ } { } } } } } } } } ",
"} { { } } { } } { ....} ..{ [ ` ! l > < x ^ ) _ ' ' ' ] ] [ [ [ ] ] ] [ ] ' ' ` ` _ ) v < , l ~ ` [ { ........} } { } } } { } } ",
"{ [ [ { { [ { [ { { { { { { ' ( S j ; > z ~ ^ ^ _ ` ` ' ' ] ] ' ' ' ' ' ' ' ` ^ ^ ^ ~ z , > j S ( ] { { { { { { { { ] { [ { [ [ ",
"M M M M V N M C N N N N Z N m c k t $ * i z x c v b b b b B m m m m m b b b b b c x z i - # t k c m N Z A M N N M M M V M M M M ",
"9 9 9 9 9 9 9 9 9 q q q q 9 8 4 , % O O - 1 7 4 7 7 7 8 7 8 8 9 8 9 8 8 8 8 7 4 1 1 < - O O * > 4 8 9 q q q 0 q q 0 q 0 8 q 0 0 ",
"@ + + @ + @ @ + @ + @ + + + o o . . . X X X X X X o o o o O o o o O O o o o o X o X . . . .     o o + + + O + O + + + + + O O O "
};
