/* XPM */
static char *xpm_[] = {
/* columns rows colors chars-per-pixel */
"64 64 239 2 ",
"   c #0D0D0B",
".  c #0E0C0F",
"X  c #130908",
"o  c #140F0B",
"O  c #160E0B",
"+  c #100B0F",
"@  c #141108",
"#  c #11100C",
"$  c #14100D",
"%  c #15100D",
"&  c #15120D",
"*  c #16110E",
"=  c #14130F",
"-  c #0C0B10",
";  c #0E0C11",
":  c #0F0F11",
">  c #0E0D12",
",  c #0F0E13",
"<  c #090D16",
"1  c #0D0D15",
"2  c #0F0E14",
"3  c #070D19",
"4  c #060E19",
"5  c #100B12",
"6  c #100E11",
"7  c #110C12",
"8  c #130C14",
"9  c #100F14",
"0  c #110F14",
"q  c #100F15",
"w  c #130E14",
"e  c #160F16",
"r  c #1A0B12",
"t  c #180F10",
"y  c #190E12",
"u  c #110F1A",
"i  c #150F19",
"p  c #0B1016",
"a  c #0D1015",
"s  c #0F1014",
"d  c #0E1215",
"f  c #08111A",
"g  c #0E111A",
"h  c #0E121B",
"j  c #0B111D",
"k  c #08121E",
"l  c #121011",
"z  c #101012",
"x  c #111113",
"c  c #141011",
"v  c #161010",
"b  c #141311",
"n  c #171310",
"m  c #131510",
"M  c #131512",
"N  c #141510",
"B  c #151611",
"V  c #141412",
"C  c #111015",
"Z  c #131114",
"A  c #131315",
"S  c #111016",
"D  c #101116",
"F  c #121116",
"G  c #131116",
"H  c #121117",
"J  c #131217",
"K  c #151314",
"L  c #151016",
"P  c #151017",
"I  c #111514",
"U  c #131514",
"Y  c #121615",
"T  c #151714",
"R  c #141615",
"E  c #141517",
"W  c #171813",
"Q  c #191911",
"!  c #111018",
"~  c #131019",
"^  c #121119",
"/  c #131218",
"(  c #13121A",
")  c #13131B",
"_  c #141118",
"`  c #14131B",
"'  c #131418",
"]  c #12151A",
"[  c #13171A",
"{  c #13161B",
"}  c #151419",
"|  c #141519",
" . c #13111E",
".. c #10121E",
"X. c #16101C",
"o. c #16131C",
"O. c #12151C",
"+. c #15141C",
"@. c #15151D",
"#. c #17141D",
"$. c #14171C",
"%. c #14171E",
"&. c #18131A",
"*. c #1E141C",
"=. c #141819",
"-. c #181818",
";. c #18191D",
":. c #21161E",
">. c #181520",
",. c #1A1C29",
"<. c #283043",
"1. c #2C3242",
"2. c #303642",
"3. c #333E54",
"4. c #3F484F",
"5. c #3A4151",
"6. c #394251",
"7. c #3B4453",
"8. c #3B4755",
"9. c #384855",
"0. c #3B4C5C",
"q. c #474F52",
"w. c #454C54",
"e. c #434B58",
"r. c #424B5A",
"t. c #454F58",
"y. c #504E59",
"u. c #475057",
"i. c #465157",
"p. c #485253",
"a. c #485254",
"s. c #5C6D8B",
"d. c #697585",
"f. c #667E9A",
"g. c #748599",
"h. c #83A7BF",
"j. c #85A5BE",
"k. c #88A2BD",
"l. c #8BA6C1",
"z. c #8CA6C1",
"x. c #8EA8C3",
"c. c #94AFC2",
"v. c #90ABC6",
"b. c #88B1C7",
"n. c #91B1C6",
"m. c #9FB4C5",
"M. c #93B7DB",
"N. c #A6B3C3",
"B. c #A5BEC3",
"V. c #A3BBC5",
"C. c #A3BED1",
"Z. c #A1BAD8",
"A. c #A7C0C4",
"S. c #ABC0C1",
"D. c #AAC1C7",
"F. c #A9C2C6",
"G. c #AAC2C6",
"H. c #AAC3C8",
"J. c #ADC4D6",
"K. c #ABD2F3",
"L. c #BCDFF2",
"P. c #B3D9FD",
"I. c #B0DBFD",
"U. c #B1DFFF",
"Y. c #B5DCFD",
"T. c #B8DCFE",
"R. c #BADEFE",
"E. c #BBDFFF",
"W. c #BCDFFF",
"Q. c #BFE6F5",
"!. c #BDE1FB",
"~. c #BBE3FD",
"^. c #B9E0FF",
"/. c #BAE1FF",
"(. c #B9E2FF",
"). c #BBE2FF",
"_. c #BEE1FD",
"`. c #B8E5FF",
"'. c #BBEEFF",
"]. c #C0DEFA",
"[. c #C3E7F7",
"{. c #C4E5F8",
"}. c #C3E1FD",
"|. c #C0E3FF",
" X c #C4E3FF",
".X c #C2E4FF",
"XX c #C2E9F8",
"oX c #C4E9F9",
"OX c #C7EBFB",
"+X c #C2EEFB",
"@X c #C4EBFC",
"#X c #C5EBFE",
"$X c #C3EEFE",
"%X c #C3EEFF",
"&X c #C5ECFD",
"*X c #C7ECFC",
"=X c #C7ECFE",
"-X c #C5EFFF",
";X c #C6EFFF",
":X c #C8E9FC",
">X c #CCEAFF",
",X c #CEEFFF",
"<X c #D0EBFC",
"1X c #C2F0FD",
"2X c #C3F1FF",
"3X c #C4F3FD",
"4X c #C6F0FF",
"5X c #C4F2FF",
"6X c #C6F2FF",
"7X c #C5F5FF",
"8X c #C7F5FF",
"9X c #CFF2F8",
"0X c #C9F4FA",
"qX c #CBF4FA",
"wX c #CAF5FE",
"eX c #CEF5FC",
"rX c #CEF4FF",
"tX c #CDF9FF",
"yX c #CEFDFF",
"uX c #D1F2F7",
"iX c #D6F5F7",
"pX c #D2FBF5",
"aX c #DAF8F6",
"sX c #DAFAF7",
"dX c #D9FCF6",
"fX c #D0F7FC",
"gX c #D1F9FB",
"hX c #D3FFFE",
"jX c #D4FCFE",
"kX c #D7FDFF",
"lX c #D8FAFB",
"zX c #DCFCF9",
"xX c #DEFCFA",
"cX c #D9FFFD",
"vX c #DBFDFE",
"bX c #D8FEFF",
"nX c #D9FFFF",
"mX c #DBFEFF",
"MX c #DEFFFF",
/* pixels */
"z z z z z z z z z z z z z z z z z z z z z z z z z z z z z z z z z z z z z z z z 9 9 C C C C J C / 5 C 9.j.U.`.).{.:X<XN.y.:.*.&.",
"z z z z z z z z z z z z z z z z z z z z z z z z z z z z z z z z z z z z z z z z 9 9 C C C C C J #.J C 8.j.P.(.|.[.*X,XJ.d.e.e.0.",
"z z z z z z z z z z z z z z z z z z z z z z z z z z z z z z z z z z z z z z z z 9 9 C C C C J C i y 9 3.x.T.R.].oX&X&XL.C.n.n.b.",
"z z z z z z z z z z z z z z z z z z z z z z z z z z z z z z z z z z z z z z z z 9 9 9 C C J C J >.e + 5.x.).R.].*X4X7X4X:XoX%X'.",
"z z z z z z z z z z z z z z z z z z z z z z z z z z z z z z z z z z z z z z z z 9 9 9 C C C C J j i 9 5.z.Y.R. XXX4X7XwXuXuXgXyX",
"z z z z z z z z z z z z z z z z z z z z z z z z z z z z z z z z z z z z z z z z 9 9 9 C C C J C g 9 9 8.v.).).!.Q.1X4X0XiXaXaXcX",
"z z z z z z z z z z z z z z z z z z z z z z z z z z z z z z z z z z z z z z z z 9 9 C C C C C / ) 9 9 7.k.Y.R.).+X&X%X0XlXxXdXpX",
"z z z z z z z z z z z z z z z z z z z z z z z z z z z z z z z z z z z z z z z z 9 9 C C C C C C ~ 9 5 1.f.M.K.|.#X3X7XtXcXMXcXhX",
"z z z z z z z z z z z z z z z z z z z z z z z z z z z z z z z z z z z z z z z z C C C C C C C C r X o ;.<.s.Z.>XrXeXgXhXcXMXMXzX",
"z z z z z z z z z z z z z z z z z z z z z z z z z z z z z z z z z z z z z z z z C C C C C C C C r O $   j 3.g.m.V.B.A.G.H.B.G.B.",
"z z z z z z z z z z z z z z z z z z z z z z z z z z z z z z z z z z z z z z z z 9 9 9 9 9 9 9 9 + # Q W 9 ,.2.4.w.w.p.a.t.t.u.a.",
"z z z z z z z z z z z z z z z z z z z z z z z z z z z z z z z z z z z z z z z z 9 9 9 9 9 9 9 9 h d R -.| ~ u - z n B R [ #.| | ",
"z z z z z z z z z z z z z z z z z z z z z z z z z z z z z z z z z z z z z z z z 9 9 9 9 9 9 , , k f a a 9 / #.#.n = B R [ $.$.[ ",
"z z z z z z z z z z z z z z z z z z z z z z z z z z z z z z z z z z z z z z z z 9 9 9 9 9 9 9 9 4 4 < 1 C / #.>.B = B R { $.[ Y ",
"z z z z z z z z z z z z z z z z z z z z z z z z z z z z z z z z z z z z z z z z 9 9 9 9 9 9 9 9 [ ~ ,   = 9 C ~ Y M R | #./ | J ",
"z z z z z z z z z z z z z z z z z z z z z z z z z z z z z z z z z z z z z z z z 9 9 9 9 9 9 C C o % n % $ = , C , z J / / i J t ",
"z z z z z z z z z z z z z z z z z z z z z z z z z z z z z z z z z z z z z z z z z z z z z z z z 9 C C C C C C C C C C C J C J / ",
"z z z z z z z z z z z z z z z z z z z z z z z z z z z z z z z z z z z z z z z z z z z z z z z z 9 C C C C C C C C C C C C J J C ",
"z z z z z z z z z z z z z z z z z z z z z z z z z z z z z z z z z z z z z z z z z z z z z z z z 9 9 9 9 9 9 9 9 C C C C J C C J ",
"z z z z z z z z z z z z z z z z z z z z z z z z z z z z z z z z z z z z z z z z z z z z z z z z 9 9 9 9 9 9 9 9 9 9 9 C C C C C ",
"z z z z z z z z z z z z z z z z z z z z z z z z z z z z z z z z z z z z z z z z z z z z z z z z 9 9 9 9 9 9 9 9 9 9 9 9 9 9 9 9 ",
"z z z z z z z z z z z z z z z z z z z z z z z z z z z z z z z z z z z z z z z z z z z z z z z z 9 9 9 9 9 9 9 9 9 9 9 9 9 9 9 9 ",
"z z z z z z z z z z z z z z z z z z z z z z z z z z z z z z z z z z z z z z z z z z z z z z z z 9 9 9 9 9 9 9 9 9 9 9 9 9 9 9 9 ",
"z z z z z z z z z z z z z z z z z z z z z z z z z z z z z z z z z z z z z z z z z z z z z z z z 9 9 9 9 9 9 9 9 9 9 9 9 9 9 9 9 ",
"z z z z z z z z z z z z z z z z z z z z z z z z z z z z z z z z z z z z z z z z z z z z z z z z z z z z z z z z 9 z z z z z z z ",
"z z z z z z z z z z z z z z z z z z z z z z z z z z z z z z z z z z z z z z z z z z z z z z z z z z z z z z z z z z z z z z z z ",
"z z z z z z z z z z z z z z z z z z z z z z z z z z z z z z z z z z z z z z z z z z z z z z z z z z z z z z z z z z z z z z z z ",
"z z z z z z z z z z z z z z z z z z z z z z z z z z z z z z z z z z z z z z z z z z z z z z z z z z z z z z z z z z z z z z z z ",
"z z z z z z z z z z z z z z z z z z z z z z z z z z z z z z z z z z z z z z z z z z z z z z z z z z z z z z z z z z z z z z z z ",
"z z z z z z z z z z z z z z z z z z z z z z z z z z z z z z z z z z z z z z z z z z z z z z z z z z z z z z z z z z z z z z z z ",
"z z z z z z z z z z z z z z z z z z z z z z z z z z z z z z z z z z z z z z z z z z z z z z z z z z z z z z z z z z z z z z z z ",
"z z z z z z z z z z z z z z z z z z z z z z z z z z z z z z z z z z z z z z z z z z z z z z z z z z z z z z z z z z z z z z z z ",
"z z z z z z z z z z z z z z z z z z z z z z z z z z z z z z z z z z z z z z z z z z z z z z z z z z z z z z z z z z z z z z z z ",
"z z z z z z z z z z z z z z z z z z z z z z z z z z z z z z z z z z z z z z z z z z z z z z z z z z z z z z z z z z z z z z z z ",
"z z z z z z z z z z z z z z z z z z z z z z z z z z z z z z z z z z z z z z z z z z z z z z z z z z z z z z z z z z z z z z z z ",
"z z z z z z z z z z z z z z z z z z z z z z z z z z z z z z z z z z z z z z z z z z z z z z z z z z z z z z z z z z z z z z z z ",
"z z z z z z z z z z z z z z z z z z z z z z z z z z z z z z z z z z z z z z z z z z z z z z z z z z z z z z z z z z z z z z z z ",
"z z z z z z z z z z z z z z z z z z z z z z z z z z z z z z z z z z z z z z z z z z z z z z z z z z z z z z z z z z z z z z z z ",
"z z z z z z z z z z z z z z z z z z z z z z z z z z z z z z z z z z z z z z z z z z z z z z z z z z z z z z z z z z z z z z z z ",
"z z z z z z z z z z z z z z z z z z z z z z z z z z z z z z z z z z z z z z z z z z z z z z z z z z z z z z z z z z z z z z z z ",
"z z z z z z z z z z z z z z z z z z z z z z z z z z z z z z z z z z z z z z z z z z z z z z z z z z z z z z z z z z z z z z z z ",
"z z z z z z z z z z z z z z z z z z z z z z z z z z z z z z z z z z z z z z z z z z z z z z z z z z z z z z z z z z z z z z z z ",
"z z z z z z z z z z z z z z z z z z z z z z z z z z z z z z z z z z z z z z z z z z z z z z z z z z z z z z z z z z z z z z z z ",
"z z z z z z z z z z z z z z z z z z z z z z z z z z z z z z z z z z z z z z z z z z z z z z z z z z z z z z z z z z z z z z z z ",
"z z z z z z z z z z z z z z z z z z z z z z z z z z z z z z z z z z z z z z z z z z z z z z z z z z z z z z z z z z z z z z z z ",
"z z z z z z z z z z z z z z z z z z z z z z z z z z z z z z z z z z z z z z z z z z z z z z z z z z z z z z z z z z z z z z z z ",
"z z z z z z z z z z z z z z z z z z z z z z z z z z z z z z z z z z z z z z z z z z z z z z z z z z z z z z z z z z z z z z z z ",
"z z z z z z z z z z z z z z z z z z z z z z z z z z z z z z z z z z z z z z z z z z z z z z z z z z z z z z z z z z z z z z z z ",
"z z z z z z z z z z z z z z z z z z z z z z z z z z z z z z z z z z z z z z z z z z z z z z z z z z z z z z z z z z z z z z z z ",
"z z z z z z z z z z z z z z z z z z z z z z z z z z z z z z z z z z z z z z z z z z z z z z z z z z z z z z z z z z z z z z z z ",
"z z z z z z z z z z z z z z z z z z z z z z z z z z z z z z z z z z z z z z z z z z z z z z z z z z z z z z z z z z z z z z z z ",
"z z z z z z z z z z z z z z z z z z z z z z z z z z z z z z z z z z z z z z z z z z z z z z z z z z z z z z z z z z z z z z z z ",
"z z z z z z z z z z z z z z z z z z z z z z z z z z z z z z z z z z z z z z z z z z z z z z z z z z z z z z z z z z z z z z z z ",
"z z z z z z z z z z z z z z z z z z z z z z z z z z z z z z z z z z z z z z z z z z z z z z z z z z z z z z z z z z z z z z z z ",
"z z z z z z z z z z z z z z z z z z z z z z z z z z z z z z z z z z z z z z z z z z z z z z z z z z z z z z z z z z z z z z z z ",
"z z z z z z z z z z z z z z z z z z z z z z z z z z z z z z z z z z z z z z z z z z z z z z z z z z z z z z z z z z z z z z z z ",
"z z z z z z z z z z z z z z z z z z z z z z z z z z z z z z z z z z z z z z z z z z z z z z z z z z z z z z z z z z z z z z z z ",
"z z z z z z z z z z z z z z z z z z z z z z z z z z z z z z z z z z z z z z z z z z z z z z z z z z z z z z z z z z z z z z z z ",
"z z z z z z z z z z z z z z z z z z z z z z z z z z z z z z z z z z z z z z z z z z z z z z z z z z z z z z z z z z z z z z z z ",
"z z z z z z z z z z z z z z z z z z z z z z z z z z z z z z z z z z z z z z z z z z z z z z z z z z z z z z z z z z z z z z z z ",
"z z z z z z z z z z z z z z z z z z z z z z z z z z z z z z z z z z z z z z z z z z z z z z z z z z z z z z z z z z z z z z z z ",
"z z z z z z z z z z z z z z z z z z z z z z z z z z z z z z z z z z z z z z z z z z z z z z z z z z z z z z z z z z z z z z z z ",
"z z z z z z z z z z z z z z z z z z z z z z z z z z z z z z z z z z z z z z z z z z z z z z z z z z z z z z z z z z z z z z z z ",
"z z z z z z z z z z z z z z z z z z z z z z z z z z z z z z z z z z z z z z z z z z z z z z z z z z z z z z z z z z z z z z z z "
};
