/* XPM */
static char *xpm_[] = {
/* columns rows colors chars-per-pixel */
"64 64 241 2 ",
"   c #0B0F0E",
".  c #11080D",
"X  c #12090E",
"o  c #130F0C",
"O  c #140F0C",
"+  c #0E110A",
"@  c #111107",
"#  c #11100B",
"$  c #13100B",
"%  c #11130E",
"&  c #15100D",
"*  c #12150E",
"=  c #12140F",
"-  c #18100E",
";  c #18130F",
":  c #18150E",
">  c #0E0B12",
",  c #0D0C11",
"<  c #0F0D10",
"1  c #0F0E13",
"2  c #0E0F13",
"3  c #0B0E15",
"4  c #0C0F14",
"5  c #0E0F14",
"6  c #0F0F17",
"7  c #080E1A",
"8  c #090F1B",
"9  c #100E13",
"0  c #140F13",
"q  c #100F14",
"w  c #110F14",
"e  c #100D16",
"r  c #140D15",
"t  c #120F18",
"y  c #110F1A",
"u  c #150D18",
"i  c #150F1B",
"p  c #160E1D",
"a  c #180C18",
"s  c #081012",
"d  c #0C1013",
"f  c #0B1016",
"g  c #0C1115",
"h  c #0F1014",
"j  c #0D1017",
"k  c #0D1216",
"l  c #0A1119",
"z  c #0D1218",
"x  c #0C101B",
"c  c #0F121B",
"v  c #0A121F",
"b  c #121210",
"n  c #131311",
"m  c #101012",
"M  c #111113",
"N  c gray7",
"B  c #131313",
"V  c #131510",
"C  c #121713",
"Z  c #141412",
"A  c #171612",
"S  c #111015",
"D  c #131315",
"F  c #111016",
"G  c #101116",
"H  c #121116",
"J  c #131217",
"K  c #121317",
"L  c #151014",
"P  c #121615",
"I  c #111516",
"U  c gray8",
"Y  c #151515",
"T  c #151517",
"R  c #171516",
"E  c #161616",
"W  c #191011",
"Q  c #191013",
"!  c #181212",
"~  c #111018",
"^  c #111119",
"/  c #121119",
"(  c #101318",
")  c #131218",
"_  c #151318",
"`  c #141319",
"'  c #131418",
"]  c #11141B",
"[  c #15141A",
"{  c #15161A",
"}  c #15161B",
"|  c #17161B",
" . c #10131C",
".. c #13131D",
"X. c #15121D",
"o. c #11141D",
"O. c #12151C",
"+. c #18101B",
"@. c #19171A",
"#. c #18101F",
"$. c #18171C",
"%. c #19171C",
"&. c #18171D",
"*. c #141E1F",
"=. c #181818",
"-. c #1A191F",
";. c #0E1120",
":. c #161622",
">. c #191321",
",. c #121921",
"<. c #181820",
"1. c #191820",
"2. c #181C28",
"3. c #273542",
"4. c #253245",
"5. c #323846",
"6. c #303B51",
"7. c #354151",
"8. c #384454",
"9. c #394555",
"0. c #3A4654",
"q. c #3C4856",
"w. c #3E4A58",
"e. c #3D4D5D",
"r. c #414852",
"t. c #444E57",
"y. c #434B58",
"u. c #424B5A",
"i. c #4B4F58",
"p. c #465153",
"a. c #465155",
"s. c #475254",
"d. c #455056",
"f. c #475256",
"g. c #59698A",
"h. c #687683",
"j. c #697C9A",
"k. c #75849B",
"l. c #86A6BF",
"z. c #86A4C0",
"x. c #8FA2C0",
"c. c #8DA6C4",
"v. c #88A8C1",
"b. c #8EA9C6",
"n. c #90A7C6",
"m. c #91ADC5",
"M. c #98ADC0",
"N. c #98AEC5",
"B. c #9FB0C4",
"V. c #9AB4D9",
"C. c #A4B4C1",
"Z. c #A4BAC7",
"A. c #A5BCC4",
"S. c #A4BECD",
"D. c #A3BADA",
"F. c #A8C0C4",
"G. c #A9C2C6",
"H. c #AAC7C5",
"J. c #ABC4C9",
"K. c #AAC6C9",
"L. c #AEC5D3",
"P. c #B3D2F1",
"I. c #B2DDFF",
"U. c #B5DEFC",
"Y. c #B4DFFF",
"T. c #B7DFFF",
"R. c #BCD8FD",
"E. c #B8DCFE",
"W. c #BCDFFD",
"Q. c #BEDFFF",
"!. c #BDE1EF",
"~. c #BFE4F4",
"^. c #BFE9F5",
"/. c #B5E1FE",
"(. c #BBE1F8",
"). c #B9E2F8",
"_. c #BAE4FA",
"`. c #BCE5FB",
"'. c #B9E2FF",
"]. c #BAE3FF",
"[. c #BCE1FE",
"{. c #BEE5FF",
"}. c #C6E5F7",
"|. c #C3EBF5",
" X c #C1E3FE",
".X c #C3E2FE",
"XX c #C1E6FF",
"oX c #C9E1F9",
"OX c #CCE7FC",
"+X c #CDE7FF",
"@X c #C7EBFB",
"#X c #C3EFF8",
"$X c #C2EEF9",
"%X c #C3E9FE",
"&X c #C5E9FF",
"*X c #C2EDFD",
"=X c #C1EFFC",
"-X c #C4EEFC",
";X c #CDEAFA",
":X c #CAECF8",
">X c #C9EDFB",
",X c #CAEBFC",
"<X c #CAEBFE",
"1X c #D1EBFC",
"2X c #CFFAF3",
"3X c #C1F1FB",
"4X c #C3F1FE",
"5X c #C7F1FD",
"6X c #C4F2FF",
"7X c #C6F2FF",
"8X c #C3F5FF",
"9X c #C5F7FF",
"0X c #C7F6FF",
"qX c #C9F4FB",
"wX c #C8F5FB",
"eX c #CFF0FF",
"rX c #C9F5FF",
"tX c #CFF4FC",
"yX c #CFF6FD",
"uX c #CEF9FF",
"iX c #D6FAF6",
"pX c #D1F4FA",
"aX c #D3F0FF",
"sX c #D4F2FD",
"dX c #D5F6FD",
"fX c #D2F8FB",
"gX c #D7F9F8",
"hX c #D2FCF8",
"jX c #D5FCF9",
"kX c #D6FDFA",
"lX c #D0FBFF",
"zX c #D7FAFC",
"xX c #D3FFFD",
"cX c #D9FDF9",
"vX c #DBFEFA",
"bX c #D9FAFF",
"nX c #D9FCFF",
"mX c #D8FEFF",
"MX c #DBFEFF",
"NX c #DAFFFF",
"BX c #DFFFFE",
/* pixels */
",.<.-.i.C.1XOXoX.X{./.z.0.S < _ _ P S L S S 9 S m m m m m m m m m m m m m m m m m m m m m m m m m m m m m m m m m m m m m m m m ",
"e.u.u.h.L.eX,X}..X].I.z.w._ L ' _ S ^ S S S S 9 m m m m m m m m m m m m m m m m m m m m m m m m m m m m m m m m m m m m m m m m ",
"m.N.l.J.!.7X$X|.{.].I.l.7.> r X.^ S S S S 9 S j m m m m m m m m m m m m m m m m m m m m m m m m m m m m m m m m m m m m m m m m ",
"%X,X1X1X7X8X3X#X`./.T.b.8.6 u p S ' L S S 6 < S m m m m m m m m m m m m m m m m m m m m m m m m m m m m m m m m m m m m m m m m ",
"lXfXdXtX5X9X4X^._.U.E.c.8.j +.#.S S S S S S S < m m m m m m m m m m m m m m m m m m m m m m m m m m m m m m m m m m m m m m m m ",
"lXjXiXdXwX4X*X~.(.[.W.n.8.6 t >.S S S S S 9 j S m m m m m m m m m m m m m m m m m m m m m m m m m m m m m m m m m m m m m m m m ",
"hXiXcXjXwX4X3X>X(.W.R.n.0.j < ^ S S S S S 9 S 9 m m m m m m m m m m m m m m m m m m m m m m m m m m m m m m m m m m m m m m m m ",
"hXcXBXnXuX5X5X>X%XP.V.j.3.s j 6 S S S S S S 9 S m m m m m m m m m m m m m m m m m m m m m m m m m m m m m m m m m m m m m m m m ",
"kXnXnXMXbXdXsXaX+XD.g.4.*.+ # L S S S S S 9 j 9 m m m m m m m m m m m m m m m m m m m m m m m m m m m m m m m m m m m m m m m m ",
"H.K.J.J.F.F.A.Z.C.k.6.;.+ + ! Q S S S 9 < S S < m m m m m m m m m m m m m m m m m m m m m m m m m m m m m m m m m m m m m m m m ",
"s.d.d.d.f.f.f.f.q.5.2.j A : $ . j 9 9 S S S 9 S m m m m m m m m m m m m m m m m m m m m m m m m m m m m m m m m m m m m m m m m ",
"P ^ x ' P C C C < ^ ..} =.! 9 6 S < S 9 j 9 S 9 m m m m m m m m m m m m m m m m m m m m m m m m m m m m m m m m m m m m m m m m ",
"@.%.<.%.T % % % ' v ' j f l x v S < S S 9 S 9 j m m m m m m m m m m m m m m m m m m m m m m m m m m m m m m m m m m m m m m m m ",
"T @.} %.T % % % :.O.O.x f l 8 l 9 S j 9 S 9 S S m m m m m m m m m m m m m m m m m m m m m m m m m m m m m m m m m m m m m m m m ",
"n L _ } T A m A u t _ m < j 6 L S S 9 S < S S < m m m m m m m m m m m m m m m m m m m m m m m m m m m m m m m m m m m m m m m m ",
"m S t ^ ^ A m m a . W & & ! & # S S S S 9 j 9 S m m m m m m m m m m m m m m m m m m m m m m m m m m m m m m m m m m m m m m m m ",
"P S ' S S S S S j 9 S 9 S < S 9 m m m m m m m m m m m m m m m m m m m m m m m m m m m m m m m m m m m m m m m m m m m m m m m m ",
"L S S S _ S S S S < 9 S j S 9 j m m m m m m m m m m m m m m m m m m m m m m m m m m m m m m m m m m m m m m m m m m m m m m m m ",
"^ S S _ S S S S 9 S 9 S 9 S 9 S m m m m m m m m m m m m m m m m m m m m m m m m m m m m m m m m m m m m m m m m m m m m m m m m ",
"S S S S S 9 j S S 9 S 9 S 9 S < m m m m m m m m m m m m m m m m m m m m m m m m m m m m m m m m m m m m m m m m m m m m m m m m ",
"S < S 9 m m 9 S S 9 S j S 9 S 9 m m m m m m m m m m m m m m m m m m m m m m m m m m m m m m m m m m m m m m m m m m m m m m m m ",
"j S 9 S r j 6 < 9 S < S < S 9 j m m m m m m m m m m m m m m m m m m m m m m m m m m m m m m m m m m m m m m m m m m m m m m m m ",
"9 S < j m 9 9 m j 9 9 S S j < S m m m m m m m m m m m m m m m m m m m m m m m m m m m m m m m m m m m m m m m m m m m m m m m m ",
"S 9 h h r h j r S < S 9 S 9 S 9 m m m m m m m m m m m m m m m m m m m m m m m m m m m m m m m m m m m m m m m m m m m m m m m m ",
"m m m m m m m m m m m m m m m m m m m m m m m m m m m m m m m m m m m m m m m m m m m m m m m m m m m m m m m m m m m m m m m m ",
"m m m m m m m m m m m m m m m m m m m m m m m m m m m m m m m m m m m m m m m m m m m m m m m m m m m m m m m m m m m m m m m m ",
"m m m m m m m m m m m m m m m m m m m m m m m m m m m m m m m m m m m m m m m m m m m m m m m m m m m m m m m m m m m m m m m m ",
"m m m m m m m m m m m m m m m m m m m m m m m m m m m m m m m m m m m m m m m m m m m m m m m m m m m m m m m m m m m m m m m m ",
"m m m m m m m m m m m m m m m m m m m m m m m m m m m m m m m m m m m m m m m m m m m m m m m m m m m m m m m m m m m m m m m m ",
"m m m m m m m m m m m m m m m m m m m m m m m m m m m m m m m m m m m m m m m m m m m m m m m m m m m m m m m m m m m m m m m m ",
"m m m m m m m m m m m m m m m m m m m m m m m m m m m m m m m m m m m m m m m m m m m m m m m m m m m m m m m m m m m m m m m m ",
"m m m m m m m m m m m m m m m m m m m m m m m m m m m m m m m m m m m m m m m m m m m m m m m m m m m m m m m m m m m m m m m m ",
"m m m m m m m m m m m m m m m m m m m m m m m m m m m m m m m m m m m m m m m m m m m m m m m m m m m m m m m m m m m m m m m m ",
"m m m m m m m m m m m m m m m m m m m m m m m m m m m m m m m m m m m m m m m m m m m m m m m m m m m m m m m m m m m m m m m m ",
"m m m m m m m m m m m m m m m m m m m m m m m m m m m m m m m m m m m m m m m m m m m m m m m m m m m m m m m m m m m m m m m m ",
"m m m m m m m m m m m m m m m m m m m m m m m m m m m m m m m m m m m m m m m m m m m m m m m m m m m m m m m m m m m m m m m m ",
"m m m m m m m m m m m m m m m m m m m m m m m m m m m m m m m m m m m m m m m m m m m m m m m m m m m m m m m m m m m m m m m m ",
"m m m m m m m m m m m m m m m m m m m m m m m m m m m m m m m m m m m m m m m m m m m m m m m m m m m m m m m m m m m m m m m m ",
"m m m m m m m m m m m m m m m m m m m m m m m m m m m m m m m m m m m m m m m m m m m m m m m m m m m m m m m m m m m m m m m m ",
"m m m m m m m m m m m m m m m m m m m m m m m m m m m m m m m m m m m m m m m m m m m m m m m m m m m m m m m m m m m m m m m m ",
"m m m m m m m m m m m m m m m m m m m m m m m m m m m m m m m m m m m m m m m m m m m m m m m m m m m m m m m m m m m m m m m m ",
"m m m m m m m m m m m m m m m m m m m m m m m m m m m m m m m m m m m m m m m m m m m m m m m m m m m m m m m m m m m m m m m m ",
"m m m m m m m m m m m m m m m m m m m m m m m m m m m m m m m m m m m m m m m m m m m m m m m m m m m m m m m m m m m m m m m m ",
"m m m m m m m m m m m m m m m m m m m m m m m m m m m m m m m m m m m m m m m m m m m m m m m m m m m m m m m m m m m m m m m m ",
"m m m m m m m m m m m m m m m m m m m m m m m m m m m m m m m m m m m m m m m m m m m m m m m m m m m m m m m m m m m m m m m m ",
"m m m m m m m m m m m m m m m m m m m m m m m m m m m m m m m m m m m m m m m m m m m m m m m m m m m m m m m m m m m m m m m m ",
"m m m m m m m m m m m m m m m m m m m m m m m m m m m m m m m m m m m m m m m m m m m m m m m m m m m m m m m m m m m m m m m m ",
"m m m m m m m m m m m m m m m m m m m m m m m m m m m m m m m m m m m m m m m m m m m m m m m m m m m m m m m m m m m m m m m m ",
"m m m m m m m m m m m m m m m m m m m m m m m m m m m m m m m m m m m m m m m m m m m m m m m m m m m m m m m m m m m m m m m m ",
"m m m m m m m m m m m m m m m m m m m m m m m m m m m m m m m m m m m m m m m m m m m m m m m m m m m m m m m m m m m m m m m m ",
"m m m m m m m m m m m m m m m m m m m m m m m m m m m m m m m m m m m m m m m m m m m m m m m m m m m m m m m m m m m m m m m m ",
"m m m m m m m m m m m m m m m m m m m m m m m m m m m m m m m m m m m m m m m m m m m m m m m m m m m m m m m m m m m m m m m m ",
"m m m m m m m m m m m m m m m m m m m m m m m m m m m m m m m m m m m m m m m m m m m m m m m m m m m m m m m m m m m m m m m m ",
"m m m m m m m m m m m m m m m m m m m m m m m m m m m m m m m m m m m m m m m m m m m m m m m m m m m m m m m m m m m m m m m m ",
"m m m m m m m m m m m m m m m m m m m m m m m m m m m m m m m m m m m m m m m m m m m m m m m m m m m m m m m m m m m m m m m m ",
"m m m m m m m m m m m m m m m m m m m m m m m m m m m m m m m m m m m m m m m m m m m m m m m m m m m m m m m m m m m m m m m m ",
"m m m m m m m m m m m m m m m m m m m m m m m m m m m m m m m m m m m m m m m m m m m m m m m m m m m m m m m m m m m m m m m m ",
"m m m m m m m m m m m m m m m m m m m m m m m m m m m m m m m m m m m m m m m m m m m m m m m m m m m m m m m m m m m m m m m m ",
"m m m m m m m m m m m m m m m m m m m m m m m m m m m m m m m m m m m m m m m m m m m m m m m m m m m m m m m m m m m m m m m m ",
"m m m m m m m m m m m m m m m m m m m m m m m m m m m m m m m m m m m m m m m m m m m m m m m m m m m m m m m m m m m m m m m m ",
"m m m m m m m m m m m m m m m m m m m m m m m m m m m m m m m m m m m m m m m m m m m m m m m m m m m m m m m m m m m m m m m m ",
"m m m m m m m m m m m m m m m m m m m m m m m m m m m m m m m m m m m m m m m m m m m m m m m m m m m m m m m m m m m m m m m m ",
"m m m m m m m m m m m m m m m m m m m m m m m m m m m m m m m m m m m m m m m m m m m m m m m m m m m m m m m m m m m m m m m m ",
"m m m m m m m m m m m m m m m m m m m m m m m m m m m m m m m m m m m m m m m m m m m m m m m m m m m m m m m m m m m m m m m m "
};
