/* XPM */
static char *xpm_[] = {
/* columns rows colors chars-per-pixel */
"64 64 21 1 ",
"  c #0E0B12",
". c #120D13",
"X c #100F14",
"o c #101010",
"O c #101012",
"+ c #111113",
"@ c #111015",
"# c #121116",
"$ c #2E3144",
"% c #3C4652",
"& c #42514E",
"* c #686698",
"= c #8585C1",
"- c #94AFC2",
"; c #A6C2C5",
": c #C4EAFF",
"> c #C6ECFF",
", c #CCEDFE",
"< c #CFF3FF",
"1 c #D2FAFA",
"2 c #D9FFFF",
/* pixels */
"=*$&;21<,>:-% .#++@@XXXXXXXXOooooooOOOOOOOOOOOOOOOOOOOOOOOOOOOOO",
"=*$&;21<,>:-% .#++@@XXXXXXOOOooooooOOOOOOOOOOOOOOOOOOOOOOOOOOOOO",
"=*$&;21<,>:-% .#++@@XXXXXXOOOooooooOOOOOOOOOOOOOOOOOOOOOOOOOOOOO",
"=*$&;21<,>:-% .#++@@XXXXXXOOOooooooOOOOOOOOOOOOOOOOOOOOOOOOOOOOO",
"=*$&;21<,>:-% .#++@@XXXXXXOOOOoooooOOOOOOOOOOOOOOOOOOOOOOOOOOOOO",
"=*$&;21<,>:-% .#++@@XXXXXXOOOooooooOOOOOOOOOOOOOOOOOOOOOOOOOOOOO",
"=*$&;21<,>:-% .#++@@XXXXXXOOOooooooOOOOOOOOOOOOOOOOOOOOOOOOOOOOO",
"=*$&;21<,>:-% .#++@@XXXXXXOOOooooooOOOOOOOOOOOOOOOOOOOOOOOOOOOOO",
"=*$&;21<,>:-% .#++@@XXXX+ OOOooooooOOOOOOOOOOOOOOOOOOOOOOOOOOOOO",
"=*$&;21<,>:-% .#++@@XXXX+OOOOooooooOOOOOOOOOOOOOOOOOOOOOOOOOOOOO",
"=*$&;21<,>:-% .#++@@XXXX @OOOooooooOOOOOOOOOOOOOOOOOOOOOOOOOOOOO",
"=*$&;21<,>:-% .#++@@XXXXX+OOOooooooOOOOOOOOOOOOOOOOOOOOOOOOOOOOO",
"=*$&;21<,>:-% .#++@@XXXXXXXXOooooooOOOOOOOOOOOOOOOOOOOOOOOOOOOOO",
"=*$&;21<,>:-% .#++@@XXXXXXOXOooooooOOOOOOOOOOOOOOOOOOOOOOOOOOOOO",
"=*$&;21<,>:-% .#++@+XXXXXXOOOooooooOOOOOOOOOOOOOOOOOOOOOOOOOOOOO",
"=*$&;21<,>:-% .#++@+XXXXXXOOOooooooOOOOOOOOOOOOOOOOOOOOOOOOOOOOO",
"=*$&;21<,>:-% .#++#XXXXXXXOOOOoooooOOOOOOOOOOOOOOOOOOOOOOOOOOOOO",
"=*$&;21<,>:-% .#++X#XXXXXXOOOooooooOOOOOOOOOOOOOOOOOOOOOOOOOOOOO",
"=*$&;21<,>:-% .#++#XXXXXXXOOOooooooOOOOOOOOOOOOOOOOOOOOOOOOOOOOO",
"=*$&;21<,>:-% .#++X#XXXXXXOOOooooooOOOOOOOOOOOOOOOOOOOOOOOOOOOOO",
"=*$&;21<,>:-% .#++#XXXXXXXOOOooooooOOOOOOOOOOOOOOOOOOOOOOOOOOOOO",
"=*$&;21<,>:-% .#++X#XXXXXXOOOooooooOOOOOOOOOOOOOOOOOOOOOOOOOOOOO",
"=*$&;21<,>:-% .#++#XXXXXXXOOOooooooOOOOOOOOOOOOOOOOOOOOOOOOOOOOO",
"=*$&;21<,>:-% .#++X#XXXXXOOOOooooooOOOOOOOOOOOOOOOOOOOOOOOOOOOOO",
"=*$&;21<,>:-% .#++#XXXXXXX+ OooooooOOOOOOOOOOOOOOOOOOOOOOOOOOOOO",
"=*$&;21<,>:-% .#++X#XXXXXX++OooooooOOOOOOOOOOOOOOOOOOOOOOOOOOOOO",
"=*$&;21<,>:-% .#++#XXXXX+ ooOooooooOOOOOOOOOOOOOOOOOOOOOOOOOOOOO",
"=*$&;21<,>:-% .#++X#XXXX+++oOooooooOOOOOOOOOOOOOOOOOOOOOOOOOOOOO",
"=*$&;21<,>:-% .#++#XXXXX@ o+ ooooooOOOOOOOOOOOOOOOOOOOOOOOOOOOOO",
"=*$&;21<,>:-% .#++X#XXXX@@+++ooooooOOOOOOOOOOOOOOOOOOOOOOOOOOOOO",
"=*$&;21<,>:-% .#++#XXXXX +++oOoooooOOOOOOOOOOOOOOOOOOOOOOOOOOOOO",
"=*$&;21<,>:-% .#++X#XXXX@@ ++OoooooOOOOOOOOOOOOOOOOOOOOOOOOOOOOO",
"=*$&;21<,::-% .#++@@XXXXXXOOOooooooOOOOOOOOOOOOOOOOOOOOOOOOOOOOO",
"=*$&;21<,::-%..#++@@XXXXXOOOOooooooOOOOOOOOOOOOOOOOOOOOOOOOOOOOO",
"=*$&;21<,>:-% .#++@@XXXXXXOOOooooooOOOOOOOOOOOOOOOOOOOOOOOOOOOOO",
"=*$&;21<,>:-% .#++++XXXXXXOOOooooooOOOOOOOOOOOOOOOOOOOOOOOOOOOOO",
"=*$&;21<,>:-% X#++@@XXXXXXOOOooooooOOOOOOOOOOOOOOOOOOOOOOOOOOOOO",
"=*$&;21<,>:-% .X++@@XXXXXXOOOooooooOOOOOOOOOOOOOOOOOOOOOOOOOOOOO",
"=*$&;21<,>:-% .#++@@XXXXXXOOOooooooOOOOOOOOOOOOOOOOOOOOOOOOOOOOO",
"=*$&;21<,>:-%..#++@@XXXXXXOOOooooooOOOOOOOOOOOOOOOOOOOOOOOOOOOOO",
"=*$&;21<,>:-%...++@@ XXXXXOOOOoooooOOOOOOOOOOOOOOOOOOOOOOOOOOOOO",
"=*$&;21<,>:-% X#++@@@+XXXXOOOooooooOOOOOOOOOOOOOOOOOOOOOOOOOOOOO",
"=*$&;21<,>:-% .#++@@XXXXXXOOOooooooOOOOOOOOOOOOOOOOOOOOOOOOOOOOO",
"=*$&;21<,>:-% .X++@@XXXXXXOOOooooooOOOOOOOOOOOOOOOOOOOOOOOOOOOOO",
"=*$&;21<,>:-% X#++@@XXXXXXOOOooooooOOOOOOOOOOOOOOOOOOOOOOOOOOOOO",
"=*$&;21<,>:-% X#++@@XXXXXXOOOooooooOOOOOOOOOOOOOOOOOOOOOOOOOOOOO",
"=*$&;21<,>:-% @#++@@XXXXXXOOOooooooOOOOOOOOOOOOOOOOOOOOOOOOOOOOO",
"=*$&;21<,::-%  @++@@XXXXXOOOOooooooOOOOOOOOOOOOOOOOOOOOOOOOOOOOO",
"=*$&;21<,>:-% .#++@@XXXXXXXXOooooooOOOOOOOOOOOOOOOOOOOOOOOOOOOOO",
"=*$&;21<,>:-%..#++@@XXXXXXOOOooooooOOOOOOOOOOOOOOOOOOOOOOOOOOOOO",
"=*$&;21<,>:-% .#++@@XXXXXXOOOooooooOOOOOOOOOOOOOOOOOOOOOOOOOOOOO",
"=*$&;21<,>:-% .#++@@XXXXXXOOOooooooOOOOOOOOOOOOOOOOOOOOOOOOOOOOO",
"=*$&;21<,>:-% .#++@@XXXXXXOOOOoooooOOOOOOOOOOOOOOOOOOOOOOOOOOOOO",
"=*$&;21<,::-% .#++@@XXXXXXOOOooooooOOOOOOOOOOOOOOOOOOOOOOOOOOOOO",
"=*$&;21<,>:-% .#++@@XXXXXXOOOooooooOOOOOOOOOOOOOOOOOOOOOOOOOOOOO",
"=*$&;21<,>:-% .#++@@XXXXXXOOOooooooOOOOOOOOOOOOOOOOOOOOOOOOOOOOO",
"=*$&;21<,>:-% .#++@@XXXXXXOOOooooooOOOOOOOOOOOOOOOOOOOOOOOOOOOOO",
"=*$&;21<,>:-% .#++@@XXXXXOOOOooooooOOOOOOOOOOOOOOOOOOOOOOOOOOOOO",
"=*$&;21<,>:-% .#++@@XXXXXXOOOooooooOOOOOOOOOOOOOOOOOOOOOOOOOOOOO",
"=*$&;21<,>:-% .#++@@XXXXXXOOOooooooOOOOOOOOOOOOOOOOOOOOOOOOOOOOO",
"=*$&;21<,>:-% .#++@@XXXXXXOOOooooooOOOOOOOOOOOOOOOOOOOOOOOOOOOOO",
"=*$&;21<,>:-% .#++@@XXXXXXOOOooooooOOOOOOOOOOOOOOOOOOOOOOOOOOOOO",
"=*$&;21<,>:-% .#++@+XXXXXXOOOooooooOOOOOOOOOOOOOOOOOOOOOOOOOOOOO",
"=*$&;21<,>:-% .#++@+XXXXXXOOOooooooOOOOOOOOOOOOOOOOOOOOOOOOOOOOO"
};
