/* XPM */
static char *xpm_[] = {
/* columns rows colors chars-per-pixel */
"64 64 21 1 ",
"  c #0E0B12",
". c #120D13",
"X c #100F14",
"o c #101010",
"O c #101012",
"+ c #111113",
"@ c #111015",
"# c #121116",
"$ c #2E3144",
"% c #3C4652",
"& c #42514E",
"* c #686698",
"= c #8585C1",
"- c #94AFC2",
"; c #A6C2C5",
": c #C4EAFF",
"> c #C6ECFF",
", c #CCEDFE",
"< c #CFF3FF",
"1 c #D2FAFA",
"2 c #D9FFFF",
/* pixels */
"OOOOOOOOOOOOOOOOOOOOOOOOOOOOOooooooOOOXXXXXX@@++#.X%-:>,<12;&$*=",
"OOOOOOOOOOOOOOOOOOOOOOOOOOOOOooooooOOOXXXXXX@@+O#+.%-:>,<12;&$*=",
"OOOOOOOOOOOOOOOOOOOOOOOOOOOOOooooooOOOXXXXXX@@@@X. %-:>,<12;&$*=",
"OOOOOOOOOOOOOOOOOOOOOOOOOOOOOooooooOOOXXXXXX@@OOX. %-:>,<12;&$*=",
"OOOOOOOOOOOOOOOOOOOOOOOOOOOOOooooooOOOXXXXXX@@++#. %-:>,<12;&$*=",
"OOOOOOOOOOOOOOOOOOOOOOOOOOOOOooooooOOOXXXXXX@@++#. %-:>,<12;&$*=",
"OOOOOOOOOOOOOOOOOOOOOOOOOOOOOooooooOOOXXXX@O@@++#..%-::,<12;&$*=",
"OOOOOOOOOOOOOOOOOOOOOOOOOOOOOooooooOOOXXXO@@@@++#. %-::,<12;&$*=",
"OOOOOOOOOOOOOOOOOOOOOOOOOOOOOooooooOOOXXXXXX@@++X. %-:>,<12;&$*=",
"OOOOOOOOOOOOOOOOOOOOOOOOOOOOOooooooOOOXXXXXX@@++#X %-:>,<12;&$*=",
"OOOOOOOOOOOOOOOOOOOOOOOOOOOOOooooooOOOXXXXXX@@++#. %-:>,<12;&$*=",
"OOOOOOOOOOOOOOOOOOOOOOOOOOOOOooooooOOOXXXXXX@@++#..%-:>,<12;&$*=",
"OOOOOOOOOOOOOOOOOOOOOOOOOOOOOooooooOOOXXXXXX@@++#..%-:>,<12;&$*=",
"OOOOOOOOOOOOOOOOOOOOOOOOOOOOOooooooOOOXXXXXX@@+O#. %-:>,<12;&$*=",
"OOOOOOOOOOOOOOOOOOOOOOOOOOOOOooooooOOOXXXXXX@@O@X. %-:>,<12;&$*=",
"OOOOOOOOOOOOOOOOOOOOOOOOOOOOOooooooOOOXXXXXX@@OO@. %-:>,<12;&$*=",
"OOOOOOOOOOOOOOOOOOOOOOOOOOOOOooooooOOOXXXXXX@@++@..%-:>,<12;&$*=",
"OOOOOOOOOOOOOOOOOOOOOOOOOOOOOooooooOOOXXXXXX@#++#. %-:>,<12;&$*=",
"OOOOOOOOOOOOOOOOOOOOOOOOOOOOOooooooOOOXXXXO@@@++X. %-:>,<12;&$*=",
"OOOOOOOOOOOOOOOOOOOOOOOOOOOOOoooooOOOOXXXX@O@@++#X %-:>,<12;&$*=",
"OOOOOOOOOOOOOOOOOOOOOOOOOOOOOooooooOOOXXXXXX@@O+#. %-:>,<12;&$*=",
"OOOOOOOOOOOOOOOOOOOOOOOOOOOOOooooooOOOXXXXXX@@++#. %-:>,<12;&$*=",
"OOOOOOOOOOOOOOOOOOOOOOOOOOOOOooooooOOOXXXXXX@@++#..%-::,<12;&$*=",
"OOOOOOOOOOOOOOOOOOOOOOOOOOOOOooooooOOOXXXXXX@#++#. %-::,<12;&$*=",
"OOOOOOOOOOOOOOOOOOOOOOOOOOOOOooooooOOOXXXXXX@@++X. %-:>,<12;&$*=",
"OOOOOOOOOOOOOOOOOOOOOOOOOOOOOooooooOOOXXXXXX@@O##X %-:>,<12;&$*=",
"OOOOOOOOOOOOOOOOOOOOOOOOOOOOOooooooOOOXXXXXX@@OO#. %-:>,<12;&$*=",
"OOOOOOOOOOOOOOOOOOOOOOOOOOOOOooooooOOOXXXXXX@@@O#..%-:>,<12;&$*=",
"OOOOOOOOOOOOOOOOOOOOOOOOOOOOOOoooooOOOXXXXXX@@O##..%-:>,<12;&$*=",
"OOOOOOOOOOOOOOOOOOOOOOOOOOOOOooooooOOOXXXXXX@#+O#. %-:>,<12;&$*=",
"OOOOOOOOOOOOOOOOOOOOOOOOOOOOOooooooOOOXXXXO@@@@OX. %-:>,<12;&$*=",
"OOOOOOOOOOOOOOOOOOOOOOOOOOOOOooooooOOOXXXX@O@@O@@. %-:>,<12;&$*=",
"OOOOOOOOOOOOOOOOOOOOOOOOOOOOOooooooOOOXXXXXX@@++#.X%-:>,<12;&$*=",
"OOOOOOOOOOOOOOOOOOOOOOOOOOOOOooooooOOOXXXXXX@@+O#..%-:>,<12;&$*=",
"OOOOOOOOOOOOOOOOOOOOOOOOOOOOOooooooOOOXXXXXX@@@#X. %-:>,<12;&$*=",
"OOOOOOOOOOOOOOOOOOOOOOOOOOOOOooooooOOOXXXXXX@@OO#X %-:>,<12;&$*=",
"OOOOOOOOOOOOOOOOOOOOOOOOOOOOOooooooOOOXXXXXX@@++#. %-:>,<12;&$*=",
"OOOOOOOOOOOOOOOOOOOOOOOOOOOOOooooooOOOXXXXXX@#++#. %-:>,<12;&$*=",
"OOOOOOOOOOOOOOOOOOOOOOOOOOOOOooooooOOOXXXXO@@@++#..%-::,<12;&$*=",
"OOOOOOOOOOOOOOOOOOOOOOOOOOOOOooooooOOOXXXXXO@@++#. %-::,<12;&$*=",
"OOOOOOOOOOOOOOOOOOOOOOOOOOOOOooooooOOOXXXXXX@@O+X. %-:>,<12;&$*=",
"OOOOOOOOOOOOOOOOOOOOOOOOOOOOOooooooOOOXXXXXX@@++#X %-:>,<12;&$*=",
"OOOOOOOOOOOOOOOOOOOOOOOOOOOOOooooooOOOXXXXXX@@++#. %-:>,<12;&$*=",
"OOOOOOOOOOOOOOOOOOOOOOOOOOOOOooooooOOOXXXXXX@#++#..%-:>,<12;&$*=",
"OOOOOOOOOOOOOOOOOOOOOOOOOOOOOooooooOOOXXXXXX@@++#..%-:>,<12;&$*=",
"OOOOOOOOOOOOOOOOOOOOOOOOOOOOOooooooOOOXXXXXX@@+O#. %-:>,<12;&$*=",
"OOOOOOOOOOOOOOOOOOOOOOOOOOOOOooooooOOOXXXXXX@@O#X. %-:>,<12;&$*=",
"OOOOOOOOOOOOOOOOOOOOOOOOOOOOOooooooOOOXXXXXX@@OO@. %-:>,<12;&$*=",
"OOOOOOOOOOOOOOOOOOOOOOOOOOOOOooooooOOOXXXXXX@@++@..%-:>,<12;&$*=",
"OOOOOOOOOOOOOOOOOOOOOOOOOOOOOooooooOOOXXXXXX@#++#. %-:>,<12;&$*=",
"OOOOOOOOOOOOOOOOOOOOOOOOOOOOOooooooOOOXXXXXX@@++X. %-:>,<12;&$*=",
"OOOOOOOOOOOOOOOOOOOOOOOOOOOOOooooooOOOXXXX@O@@++#X %-:>,<12;&$*=",
"OOOOOOOOOOOOOOOOOOOOOOOOOOOOOooooooOOOXXXXXX@@O+#. %-:>,<12;&$*=",
"OOOOOOOOOOOOOOOOOOOOOOOOOOOOOooooooOOOXXXXXX@@++#. %-:>,<12;&$*=",
"OOOOOOOOOOOOOOOOOOOOOOOOOOOOOooooooOOOXXXXXX@@++#..%-::,<12;&$*=",
"OOOOOOOOOOOOOOOOOOOOOOOOOOOOOooooooOOOXXXXXX@#++#. %-::,<12;&$*=",
"OOOOOOOOOOOOOOOOOOOOOOOOOOOOOooooooOOOXXXXXX@@++X. %-:>,<12;&$*=",
"OOOOOOOOOOOOOOOOOOOOOOOOOOOOOooooooOOOXXXXXX@@++#X %-:>,<12;&$*=",
"OOOOOOOOOOOOOOOOOOOOOOOOOOOOOooooooOOOXXXXXX@@OO#. %-:>,<12;&$*=",
"OOOOOOOOOOOOOOOOOOOOOOOOOOOOOooooooOOOXXXXXX@@O##..%-:>,<12;&$*=",
"OOOOOOOOOOOOOOOOOOOOOOOOOOOOOooooooOOOXXXXXX@@+O#..%-:>,<12;&$*=",
"OOOOOOOOOOOOOOOOOOOOOOOOOOOOOooooooOOOXXXXXX@#+##. %-:>,<12;&$*=",
"OOOOOOOOOOOOOOOOOOOOOOOOOOOOOooooooOOOXXXXX@@@OOX. %-:>,<12;&$*=",
"OOOOOOOOOOOOOOOOOOOOOOOOOOOOOooooooOOOXXXXXO@@@O@. %-:>,<12;&$*="
};
