/* XPM */
static char *xpm_[] = {
/* columns rows colors chars-per-pixel */
"64 64 17 1 ",
"  c #110F10",
". c #100F14",
"X c #111111",
"o c #101012",
"O c #111015",
"+ c #111016",
"@ c #111216",
"# c #17161C",
"$ c #414B55",
"% c #444B5B",
"& c #99AFC4",
"* c #9BB5C4",
"= c #CBEBFF",
"- c #CEF1FF",
"; c #CEF6FF",
": c #D2FBFD",
"> c #D1FAFE",
/* pixels */
"oooooooooooooooooooooooooooooooooooooooooooooooooooooooooooooooo",
"oooooooooooooooooooooooooooooooooooooooooooooooooooooooooooooooo",
"oooooooooooooooooooooooooooooooooooooooooooooooooooooooooooooooo",
"oooooooooooooooooooooooooooooooooooooooooooooooooooooooooooooooo",
"oooooooooooooooooooooooooooooooooooooooooooooooooooooooooooooooo",
"oooooooooooooooooooooooooooooooooooooooooooooooooooooooooooooooo",
"oooooooooooooooooooooooooooooooooooooooooooooooooooooooooooooooo",
"oooooooooooooooooooooooooooooooooooooooooooooooooooooooooooooooo",
"oooooooooooooooooooooooooooooooooooooooooooooooooooooooooooooooo",
"oooooooooooooooooooooooooooooooooooooooooooooooooooooooooooooooo",
"oooooooooooooooooooooooooooooooooooooooooooooooooooooooooooooooo",
"oooooooooooooooooooooooooooooooooooooooooooooooooooooooooooooooo",
"oooooooooooooooooooooooooooooooooooooooooooooooooooooooooooooooo",
"oooooooooooooooooooooooooooooooooooooooooooooooooooooooooooooooo",
"oooooooooooooooooooooooooooooooooooooooooooooooooooooooooooooooo",
"oooooooooooooooooooooooooooooooooooooooooooooooooooooooooooooooo",
"oooooooooooooooooooooooooooooooooooooooooooooooooooooooooooooooo",
"oooooooooooooooooooooooooooooooooooooooooooooooooooooooooooooooo",
"oooooooooooooooooooooooooooooooooooooooooooooooooooooooooooooooo",
"oooooooooooooooooooooooooooooooooooooooooooooooooooooooooooooooo",
"oooooooooooooooooooooooooooooooooooooooooooooooooooooooooooooooo",
"oooooooooooooooooooooooooooooooooooooooooooooooooooooooooooooooo",
"oooooooooooooooooooooooooooooooooooooooooooooooooooooooooooooooo",
"oooooooooooooooooooooooooooooooooooooooooooooooooooooooooooooooo",
"oooooooooooooooooooooooooooooooooooooooooooooooooooooooooooooooo",
"oooooooooooooooooooooooooooooooooooooooooooooooooooooooooooooooo",
"oooooooooooooooooooooooooooooooooooooooooooooooooooooooooooooooo",
"oooooooooooooooooooooooooooooooooooooooooooooooooooooooooooooooo",
"oooooooooooooooooooooooooooooooooooooooooooooooooooooooooooooooo",
"oooooooooooooooooooooooooooooooooooooooooooooooooooooooooooooooo",
"oooooooooooooooooooooooooooooooooooooooooooooooooooooooooooooooo",
"oooooooooooooooooooooooooooooooooooooooooooooooooooooooooooooooo",
"oooooooooooooooooooooooooooooooooooooooooooooooooooooooooooooooo",
"oooooooooooooooooooooooooooooooooooooooooooooooooooooooooooooooo",
"oooooooooooooooooooooooooooooooooooooooooooooooooooooooooooooooo",
"oooooooooooooooooooooooooooooooooooooooooooooooooooooooooooooooo",
"oooooooooooooooooooooooooooooooooooooooooooooooooooooooooooooooo",
"oooooooooooooooooooooooooooooooooooooooooooooooooooooooooooooooo",
"ooooooooooooO  Ooooooooooooooo  oooooooooooooooooooooooooooooooo",
"oooooooooooo  O.oooooooooooooooOoooooooooooooooooooooooooooooooo",
"oo..............oo..............................................",
"oO..............................................................",
"................................................................",
"................................................................",
" +++@@..++ + +++++++@@..OOOOOOOOOOOOOOOOOOOOOOOOOOOOOOOOOOOOOOOO",
"++++...@++++@++ + ++...@OOOOOOOOOOOOOOOOOOOOOOOOOOOOOOOOOOOOOOOO",
"++.@...@ @++++++++ @++.@OOOOOOOOOOOOOOOOOOOOOOOOOOOOOOOOOOOOOOOO",
"++...#..+++ ++++@ +++++.OOOOOOOOOOOOOOOOOOOOOOOOOOOOOOOOOOOOOOOO",
"++++++++++++++++O@@@.@@@..@.OO@@@@OO@@OO..@@.@@@OOO+@@..@.@@@@.+",
" @++++ +++++ @++OOOO..O@@.@.OOOOOOOOOOOO@@.@.OO@OOOOO@@.@.OO..++",
"XXXXXXXXXXXXXXXXXX OO  XXXXX O .  OX   OO  XO   ooooXXX OO  XXXX",
"                   o                          Oo   o            ",
"@@@@@@@@@@@@@@@@@@@@@@OO#.@@@@@@@@@@@@@@@@@@OOO+@@@@@@@@@@@@@@@@",
"$$$$$$$$$$$$$$$$$$$$$$$$$$$$$$$$$$$$$$$$$$$$$$$$$$$$$$$$$$$$$$$$",
"****************************************************************",
"-----------------------------------;----------------------------",
">>>>>>>>::::>>>>>>>>>>>>>>>>>>>>::>>>>>>>>>>>>>>>>>>>>>>::::::;:",
"::::::::::::::::::::::::::::::::::::::::::::::::::::::::::::::::",
">>>>>>>>::::>:>>>>>>>>>>>>>>>>>>::::>>>>>>>>>>>>>>>>>>>>::>:>>::",
";;;;;;;;-;;;;;;-;;;;;;;;;;;;;;;;;;-;;;;;;;;;;;;;;;;;;;;;;;-;;;;;",
"================================================================",
"&&&&&&&&&&&&&&&&&&&&&&&&&&&&&&&&&&&&&&&&&&&&&&&&&&&&&&&&&&&&&&&&",
"%%%%%%%%%%%%%%%%%%%%%%%%%%%%%%%%%%%%%%%%%%%%%%%%%%%%%%%%%%%%%%%%",
"################################################################"
};
