/* XPM */
static char *xpm_[] = {
/* columns rows colors chars-per-pixel */
"64 64 241 2 ",
"   c #0D0D0B",
".  c #0E0C0F",
"X  c #130908",
"o  c #140F0B",
"O  c #160E0B",
"+  c #100B0F",
"@  c #141108",
"#  c #11100C",
"$  c #14100D",
"%  c #15100D",
"&  c #15120D",
"*  c #16110E",
"=  c #14130F",
"-  c #0C0B10",
";  c #0F0F11",
":  c #0E0D12",
">  c #0F0D12",
",  c #0F0E13",
"<  c #090D16",
"1  c #0D0D15",
"2  c #0F0E14",
"3  c #070D19",
"4  c #060E19",
"5  c #100B12",
"6  c #100E11",
"7  c #110C12",
"8  c #100F14",
"9  c #110F14",
"0  c #100F15",
"q  c #140D15",
"w  c #140F15",
"e  c #160F16",
"r  c #1A0B12",
"t  c #180F10",
"y  c #190E12",
"u  c #110F1A",
"i  c #150F19",
"p  c #150F1B",
"a  c #0B1016",
"s  c #0D1015",
"d  c #0F1014",
"f  c #0E1215",
"g  c #08111A",
"h  c #0D1019",
"j  c #0E121B",
"k  c #0B111D",
"l  c #08121E",
"z  c #0F111D",
"x  c #121011",
"c  c #101012",
"v  c #111113",
"b  c #141011",
"n  c #161010",
"m  c #141311",
"M  c #171310",
"N  c #131510",
"B  c #131512",
"V  c #141510",
"C  c #151611",
"Z  c #141412",
"A  c #111015",
"S  c #131114",
"D  c #121015",
"F  c #131315",
"G  c #111016",
"H  c #101116",
"J  c #121116",
"K  c #131116",
"L  c #121117",
"P  c #131217",
"I  c #151314",
"U  c #161117",
"Y  c #111514",
"T  c #131514",
"R  c #121615",
"E  c #151714",
"W  c #141615",
"Q  c #141517",
"!  c #171813",
"~  c #191911",
"^  c #111018",
"/  c #131019",
"(  c #121119",
")  c #131218",
"_  c #12121A",
"`  c #13121A",
"'  c #161118",
"]  c #151219",
"[  c #15121B",
"{  c #14131B",
"}  c #131418",
"|  c #12151A",
" . c #13171A",
".. c #13161B",
"X. c #151419",
"o. c #141519",
"O. c #13111E",
"+. c #16131C",
"@. c #12151C",
"#. c #15141C",
"$. c #15151D",
"%. c #17141D",
"&. c #14171C",
"*. c #14171E",
"=. c #18131A",
"-. c #1E141C",
";. c #141819",
":. c #181818",
">. c #18191D",
",. c #21161E",
"<. c #181520",
"1. c #1A1C29",
"2. c #283043",
"3. c #2C3242",
"4. c #303642",
"5. c #333E54",
"6. c #3F484F",
"7. c #374754",
"8. c #394050",
"9. c #394251",
"0. c #3A4352",
"q. c #3A4654",
"w. c #3B4C5C",
"e. c #474F52",
"r. c #454C54",
"t. c #434B58",
"y. c #424B5A",
"u. c #454F58",
"i. c #504E59",
"p. c #475057",
"a. c #465157",
"s. c #485253",
"d. c #485254",
"f. c #5C6D8B",
"g. c #697585",
"h. c #677F9B",
"j. c #748599",
"k. c #86A6BF",
"l. c #89A3BE",
"z. c #8CA6C1",
"x. c #8CA7C2",
"c. c #84A8C0",
"v. c #8FA9C4",
"b. c #94AFC2",
"n. c #91ACC7",
"m. c #88B1C7",
"M. c #91B1C6",
"N. c #9FB4C5",
"B. c #93B7DB",
"V. c #A6B3C3",
"C. c #A5BEC3",
"Z. c #A3BBC5",
"A. c #A3BED1",
"S. c #A1BAD8",
"D. c #A7C0C4",
"F. c #ABC0C1",
"G. c #AAC1C7",
"H. c #A9C2C6",
"J. c #AAC2C6",
"K. c #AAC3C8",
"L. c #ADC4D6",
"P. c #AAD1F2",
"I. c #BCDFF2",
"U. c #B3D9FD",
"Y. c #B0DBFD",
"T. c #B1DFFF",
"R. c #B6DDFE",
"E. c #B9DDFD",
"W. c #B8DCFE",
"Q. c #B8DFFF",
"!. c #BBDEFE",
"~. c #BBDFFF",
"^. c #BFE6F5",
"/. c #B7E4FF",
"(. c #BDE1FB",
"). c #B9E0FF",
"_. c #B8E1FF",
"`. c #BBE2FF",
"'. c #BFE2FE",
"]. c #BCE4FE",
"[. c #BBEEFF",
"{. c #C1DFFB",
"}. c #C3E7F7",
"|. c #C4E5F8",
" X c #C4E2FE",
".X c #C1E4FF",
"XX c #C3E5FF",
"oX c #C5E4FF",
"OX c #C2E9F8",
"+X c #C4E9F9",
"@X c #C7EBFB",
"#X c #C2EEFB",
"$X c #C4EBFC",
"%X c #C5EBFE",
"&X c #C3EEFE",
"*X c #C3EEFF",
"=X c #C5ECFD",
"-X c #C7ECFC",
";X c #C7ECFE",
":X c #C5EFFF",
">X c #C6EFFF",
",X c #C8E9FC",
"<X c #CCEAFF",
"1X c #CEEFFF",
"2X c #D0EBFC",
"3X c #C2F0FD",
"4X c #C3F1FF",
"5X c #C4F3FD",
"6X c #C6F0FF",
"7X c #C4F2FF",
"8X c #C6F2FF",
"9X c #C5F5FF",
"0X c #C7F5FF",
"qX c #CFF2F8",
"wX c #C9F4FA",
"eX c #CBF4FA",
"rX c #CAF5FE",
"tX c #CEF5FC",
"yX c #CEF4FF",
"uX c #CDF9FF",
"iX c #CEFDFF",
"pX c #D1F2F7",
"aX c #D6F5F7",
"sX c #D2FBF5",
"dX c #DAF8F6",
"fX c #DAFAF7",
"gX c #D9FCF6",
"hX c #D0F7FC",
"jX c #D1F9FB",
"kX c #D3FFFE",
"lX c #D4FCFE",
"zX c #D7FDFF",
"xX c #D8FAFB",
"cX c #DCFCF9",
"vX c #DEFCFA",
"bX c #D9FFFD",
"nX c #DBFDFE",
"mX c #D8FEFF",
"MX c #D9FFFF",
"NX c #DBFEFF",
"BX c #DEFFFF",
/* pixels */
"c c c c c c c c c c c c c c c c c c c c c c c c c c c c c c c c c c c c c c c c c c c c c c c c c c c c c c c c c c c c c c c c ",
"c c c c c c c c c c c c c c c c c c c c c c c c c c c c c c c c c c c c c c c c c c c c c c c c c c c c c c c c c c c c c c c c ",
"c c c c c c c c c c c c c c c c c c c c c c c c c c c c c c c c c c c c c c c c c c c c c c c c c c c c c c c c c c c c c c c c ",
"c c c c c c c c c c c c c c c c c c c c c c c c c c c c c c c c c c c c c c c c c c c c c c c c c c c c c c c c c c c c c c c c ",
"c c c c c c c c c c c c c c c c c c c c c c c c c c c c c c c c c c c c c c c c c c c c c c c c c c c c c c c c c c c c c c c c ",
"c c c c c c c c c c c c c c c c c c c c c c c c c c c c c c c c c c c c c c c c c c c c c c c c c c c c c c c c c c c c c c c c ",
"c c c c c c c c c c c c c c c c c c c c c c c c c c c c c c c c c c c c c c c c c c c c c c c c c c c c c c c c c c c c c c c c ",
"c c c c c c c c c c c c c c c c c c c c c c c c c c c c c c c c c c c c c c c c c c c c c c c c c c c c c c c c c c c c c c c c ",
"c c c c c c c c c c c c c c c c c c c c c c c c c c c c c c c c c c c c c c c c c c c c c c c c c c c c c c c c c c c c c c c c ",
"c c c c c c c c c c c c c c c c c c c c c c c c c c c c c c c c c c c c c c c c c c c c c c c c c c c c c c c c c c c c c c c c ",
"c c c c c c c c c c c c c c c c c c c c c c c c c c c c c c c c c c c c c c c c c c c c c c c c c c c c c c c c c c c c c c c c ",
"c c c c c c c c c c c c c c c c c c c c c c c c c c c c c c c c c c c c c c c c c c c c c c c c c c c c c c c c c c c c c c c c ",
"c c c c c c c c c c c c c c c c c c c c c c c c c c c c c c c c c c c c c c c c c c c c c c c c c c c c c c c c c c c c c c c c ",
"c c c c c c c c c c c c c c c c c c c c c c c c c c c c c c c c c c c c c c c c c c c c c c c c c c c c c c c c c c c c c c c c ",
"c c c c c c c c c c c c c c c c c c c c c c c c c c c c c c c c c c c c c c c c c c c c c c c c c c c c c c c c c c c c c c c c ",
"c c c c c c c c c c c c c c c c c c c c c c c c c c c c c c c c c c c c c c c c c c c c c c c c c c c c c c c c c c c c c c c c ",
"c c c c c c c c c c c c c c c c c c c c c c c c c c c c c c c c c c c c c c c c c c c c c c c c c c c c c c c c c c c c c c c c ",
"c c c c c c c c c c c c c c c c c c c c c c c c c c c c c c c c c c c c c c c c c c c c c c c c c c c c c c c c c c c c c c c c ",
"c c c c c c c c c c c c c c c c c c c c c c c c c c c c c c c c c c c c c c c c c c c c c c c c c c c c c c c c c c c c c c c c ",
"c c c c c c c c c c c c c c c c c c c c c c c c c c c c c c c c c c c c c c c c c c c c c c c c c c c c c c c c c c c c c c c c ",
"c c c c c c c c c c c c c c c c c c c c c c c c c c c c c c c c c c c c c c c c c c c c c c c c c c c c c c c c c c c c c c c c ",
"c c c c c c c c c c c c c c c c c c c c c c c c c c c c c c c c c c c c c c c c c c c c c c c c c c c c c c c c c c c c c c c c ",
"c c c c c c c c c c c c c c c c c c c c c c c c c c c c c c c c c c c c c c c c c c c c c c c c c c c c c c c c c c c c c c c c ",
"c c c c c c c c c c c c c c c c c c c c c c c c c c c c c c c c c c c c c c c c c c c c c c c c c c c c c c c c c c c c c c c c ",
"c c c c c c c c c c c c c c c c c c c c c c c c c c c c c c c c c c c c c c c c c c c c c c c c c c c c c c c c c c c c c c c c ",
"c c c c c c c c c c c c c c c c c c c c c c c c c c c c c c c c c c c c c c c c c c c c c c c c c c c c c c c c c c c c c c c c ",
"c c c c c c c c c c c c c c c c c c c c c c c c c c c c c c c c c c c c c c c c c c c c c c c c c c c c c c c c c c c c c c c c ",
"c c c c c c c c c c c c c c c c c c c c c c c c c c c c c c c c c c c c c c c c c c c c c c c c c c c c c c c c c c c c c c c c ",
"c c c c c c c c c c c c c c c c c c c c c c c c c c c c c c c c c c c c c c c c c c c c c c c c c c c c c c c c c c c c c c c c ",
"c c c c c c c c c c c c c c c c c c c c c c c c c c c c c c c c c c c c c c c c c c c c c c c c c c c c c c c c c c c c c c c c ",
"c c c c c c c c c c c c c c c c c c c c c c c c c c c c c c c c c c c c c c c c c c c c c c c c c c c c c c c c c c c c c c c c ",
"c c c c c c c c c c c c c c c c c c c c c c c c c c c c c c c c c c c c c c c c c c c c c c c c c c c c c c c c c c c c c c c c ",
"c c c c c c c c c c c c c c c c c c c c c c c c c c c c c c c c c c c c c c c c c c c c c c c c c c c c c c c c c c c c c c c c ",
"c c c c c c c c c c c c c c c c c c c c c c c c c c c c c c c c c c c c c c c c c c c c c c c c c c c c c c c c c c c c c c c c ",
"c c c c c c c c c c c c c c c c c c c c c c c c c c c c c c c c c c c c c c c c c c c c c c c c c c c c c c c c c c c c c c c c ",
"c c c c c c c c c c c c c c c c c c c c c c c c c c c c c c c c c c c c c c c c c c c c c c c c c c c c c c c c c c c c c c c c ",
"c c c c c c c c c c c c c c c c c c c c c c c c c c c c c c c c c c c c c c c c c c c c c c c c c c c c c c c c c c c c c c c c ",
"c c c c c c c c c c c c c c c c c c c c c c c c c c c c c c c c c c c c c c c c c c c c c c c c c c c c c c c c c c c c c c c c ",
"c c c c c c c c c c c c c c c c c c c c c c c c c c c c c c c c c c c c c c c c c c c c c c c c c c c c c c c c c c c c c c c c ",
"c c c c c c c c c c c c c c c c c c c c c c c c c c c c c c c c c c c c c c c c c c c c c c c c c c c c c c c c c c c c c c c c ",
"8 8 8 8 8 8 8 8 8 8 8 8 8 8 8 8 c c c c c c c c c c c c c c c c c c c c c c c c c c c c c c c c c c c c c c c c c c c c c c c c ",
"8 8 8 8 8 8 8 8 8 8 8 8 8 8 8 8 c c c c c c c c c c c c c c c c c c c c c c c c c c c c c c c c c c c c c c c c c c c c c c c c ",
"8 8 8 8 8 8 , , 8 8 8 8 8 8 8 8 c c c c c c c c c c c c c c c c c c c c c c c c c c c c c c c c c c c c c c c c c c c c c c c c ",
"8 8 8 8 8 8 8 8 8 8 8 8 8 8 8 8 c c c c c c c c c c c c c c c c c c c c c c c c c c c c c c c c c c c c c c c c c c c c c c c c ",
"A A A A A 8 8 8 8 8 8 8 8 8 8 8 c c c c c c c c c c c c c c c c c c c c c c c c c c c c c c c c c c c c c c c c c c c c c c c c ",
"P A P A A A A A 8 8 8 8 8 8 8 8 c c c c c c c c c c c c c c c c c c c c c c c c c c c c c c c c c c c c c c c c c c c c c c c c ",
"A P A P A A A A A A A A A A A A c c c c c c c c c c c c c c c c c c c c c c c c c c c c c c c c c c c c c c c c c c c c c c c c ",
"o.A P A A A A A A A A A A A A A c c c c c c c c c c c c c c c c c c c c c c c c c c c c c c c c c c c c c c c c c c c c c c c c ",
"t e ' i Q A c d c 8 o & & o t o A A 8 8 8 8 8 8 c c c c c c c c c c c c c c c c c c c c c c c c c c c c c c c c c c c c c c c c ",
"P Q %.%.Q Q Y E u A P c . , ( o.8 8 8 8 8 8 8 8 c c c c c c c c c c c c c c c c c c c c c c c c c c c c c c c c c c c c c c c c ",
"Y  .....R ! = = %.%.%.A 2 < 3 3 8 8 8 8 8 8 8 8 c c c c c c c c c c c c c c c c c c c c c c c c c c c c c c c c c c c c c c c c ",
" .*.*...E = = M %.] ( 2 < a g l , , 8 8 8 8 8 8 c c c c c c c c c c c c c c c c c c c c c c c c c c c c c c c c c c c c c c c c ",
" ...@...Q c = 8 - A ( o.:.E f j 8 8 8 8 8 8 8 8 c c c c c c c c c c c c c c c c c c c c c c c c c c c c c c c c c c c c c c c c ",
"s.a.u.a.s.s.s.r.r.4.1.A ~ ~ o , 8 8 8 8 8 8 8 8 c c c c c c c c c c c c c c c c c c c c c c c c c c c c c c c c c c c c c c c c ",
"F.J.J.K.J.J.C.Z.N.j.5.k   o o t A A A A A A A A c c c c c c c c c c c c c c c c c c c c c c c c c c c c c c c c c c c c c c c c ",
"cXnXnXMXlXjXtXyX2XB.f.2.>.o X r A A A A A A A A c c c c c c c c c c c c c c c c c c c c c c c c c c c c c c c c c c c c c c c c ",
"lXMXBXlXuX9X*X>XoXP.B.j.2., 8 ( P A A A A A 8 8 c c c c c c c c c c c c c c c c c c c c c c c c c c c c c c c c c c c c c c c c ",
"sXgXvXxXwX3X*XOX'.!.U.l.9.2 8 ( A P A A A A 8 8 c c c c c c c c c c c c c c c c c c c c c c c c c c c c c c c c c c c c c c c c ",
"MXdXdXaXwX8X#X}.(.!._.n.q.2 8 h P A A A A 8 8 8 c c c c c c c c c c c c c c c c c c c c c c c c c c c c c c c c c c c c c c c c ",
"iXjXpXqXrX9X8XOXoX!.R.x.9.A ( O.A P A A A 8 8 8 c c c c c c c c c c c c c c c c c c c c c c c c c c c c c c c c c c c c c c c c ",
"[.>X@X@X>X8X>X-X X!.!.v.9.7 e O.A P A A A 8 8 8 c c c c c c c c c c c c c c c c c c c c c c c c c c c c c c c c c c c c c c c c ",
"m.M.b.A.I.>X%XOX{.!.R.z.5.7 q i A o.P A A A 8 8 c c c c c c c c c c c c c c c c c c c c c c c c c c c c c c c c c c c c c c c c ",
"w.y.t.g.L.1X%X}. X_.Y.k.q.A =.] A A A A A A 8 8 c c c c c c c c c c c c c c c c c c c c c c c c c c c c c c c c c c c c c c c c ",
"] -.,.i.V.2X%X}.]./.T.c.q., 8 ( A ] A A A A 8 8 c c c c c c c c c c c c c c c c c c c c c c c c c c c c c c c c c c c c c c c c "
};
