/* XPM */
static char *_ffba8b1c800462bd0bc6efa42e365c4h7KGLEvXbRulSiuO[] = {
/* columns rows colors chars-per-pixel */
"64 64 253 2 ",
"   c None",
".  c #020102",
"X  c #0C0706",
"o  c #1B0301",
"O  c #170805",
"+  c #1A1819",
"@  c #161012",
"#  c #260603",
"$  c #340300",
"%  c #3B0100",
"&  c #340B05",
"*  c #280E1E",
"=  c #370E1D",
"-  c #281815",
";  c #2F170D",
":  c #372519",
">  c #2D2D12",
",  c #060B25",
"<  c #0D1229",
"1  c #0D1433",
"2  c #171D39",
"3  c #101429",
"4  c #36162F",
"5  c #1D223A",
"6  c #24283B",
"7  c #343434",
"8  c #3B3B3C",
"9  c #2B2E29",
"0  c #430200",
"q  c #4B0200",
"w  c #470A05",
"e  c #540301",
"r  c #5A0201",
"t  c #570C04",
"y  c #481707",
"u  c #581505",
"i  c #4F1015",
"p  c #630201",
"a  c #6B0300",
"s  c #660B03",
"d  c #760801",
"f  c #6A1607",
"g  c #771702",
"h  c #671114",
"j  c #4F2616",
"k  c #712D11",
"l  c #461427",
"z  c #49122E",
"x  c #4C2F30",
"c  c #763728",
"v  c #662E28",
"b  c #26682C",
"n  c #714634",
"m  c #655D28",
"M  c #141E42",
"N  c #161E48",
"B  c #192246",
"V  c #1C2C5B",
"C  c #182758",
"Z  c #222A4C",
"A  c #35374B",
"S  c #212F5E",
"D  c #282C54",
"F  c #28325B",
"G  c #363858",
"H  c #312D4A",
"J  c #1B2B60",
"K  c #202F60",
"L  c #243264",
"P  c #2A3462",
"I  c #263568",
"U  c #283769",
"Y  c #2B3A6D",
"T  c #2D3965",
"R  c #353D66",
"E  c #2D3C71",
"W  c #303F74",
"Q  c #433148",
"!  c #3D4258",
"~  c #35684E",
"^  c #374167",
"/  c #334171",
"(  c #33437C",
")  c #3B4879",
"_  c #2F437D",
"`  c #474746",
"'  c #464A5A",
"]  c #5C5C5C",
"[  c #545455",
"{  c #545A44",
"}  c #5B634C",
"|  c #706D56",
" . c #585C6C",
".. c #495272",
"X. c #666666",
"o. c #777777",
"O. c #666875",
"+. c #68625A",
"@. c #830700",
"#. c #8A1702",
"$. c #941A07",
"%. c #872607",
"&. c #952806",
"*. c #8C3113",
"=. c #A73707",
"-. c #AD3409",
";. c #8F3A25",
":. c #A01D00",
">. c #C63607",
",. c #F73B02",
"<. c #984818",
"1. c #8F4712",
"2. c #AA4A19",
"3. c #B64D13",
"4. c #955937",
"5. c #8F502C",
"6. c #B75728",
"7. c #AC522E",
"8. c #B26A33",
"9. c #976432",
"0. c #C54907",
"q. c #D25010",
"w. c #EC5206",
"e. c #D06718",
"r. c #E6630A",
"t. c #F5700D",
"y. c #CF5B29",
"u. c #C76827",
"i. c #D7762B",
"p. c #C97939",
"a. c #D1712F",
"s. c #ED762E",
"d. c #8E5346",
"f. c #996F4C",
"g. c #A97151",
"h. c #9C645D",
"j. c #CE7546",
"k. c #E97950",
"l. c #31944F",
"z. c #3DB37F",
"x. c #539B7C",
"c. c #719874",
"v. c #569B5D",
"b. c #49E679",
"n. c #BE983F",
"m. c #FA891B",
"M. c #F28C15",
"N. c #FFAB18",
"B. c #D89137",
"V. c #EB972B",
"C. c #FA962B",
"Z. c #F99838",
"A. c #ED892E",
"S. c #FDA828",
"D. c #E8AA3B",
"F. c #FAAB3A",
"G. c #FBB62E",
"H. c #D0A03B",
"J. c #FAD136",
"K. c #BB8850",
"L. c #918F69",
"P. c #B38F6F",
"I. c #98AA53",
"U. c #C78848",
"Y. c #D39353",
"T. c #F39447",
"R. c #D8AA56",
"E. c #EAA746",
"W. c #FBA948",
"Q. c #F9B847",
"!. c #E9A557",
"~. c #F5BA54",
"^. c #F0B151",
"/. c #CEAE69",
"(. c #EBB978",
"). c #F4B06E",
"_. c #D5936C",
"`. c #FCD052",
"'. c #FACA64",
"]. c #FCDA67",
"[. c #F6CE74",
"{. c #F9E86A",
"}. c #FDE679",
"|. c #FFF67A",
" X c #F5F06E",
".X c #FFE956",
"XX c #374986",
"oX c #3C4F91",
"OX c #3E5295",
"+X c #495684",
"@X c #41559A",
"#X c #525E86",
"$X c #5A6487",
"%X c #5E6991",
"&X c #636B89",
"*X c #767986",
"=X c #737B98",
"-X c #687293",
";X c #4559A1",
":X c #6D7AA8",
">X c #78888E",
",X c #669394",
"<X c #71CE93",
"1X c #60E499",
"2X c #86878B",
"3X c #898B96",
"4X c #9A9A99",
"5X c #8E9189",
"6X c #ACAA8B",
"7X c #838BA4",
"8X c #959BB3",
"9X c #9AADB0",
"0X c #A6A6A6",
"qX c #B9B7B4",
"wX c #BBAAA6",
"eX c #9BAB95",
"rX c #D6B690",
"tX c #F0B392",
"yX c #C9B1A7",
"uX c #C18682",
"iX c #9BCCAE",
"pX c #B6C8BA",
"aX c #9DCA98",
"sX c #FCCA95",
"dX c #FAD796",
"fX c #F1CC8D",
"gX c #FFFB88",
"hX c #FCE896",
"jX c #FFF491",
"kX c #D3C6B0",
"lX c #F0D4B0",
"zX c #F9E8A6",
"xX c #FDF8A8",
"cX c #FBEDB7",
"vX c #DEC685",
"bX c #ACB2C7",
"nX c #B1D0C7",
"mX c #ABE3C5",
"MX c #CED1CD",
"NX c #FEFAC3",
"BX c #E1E4DD",
"VX c #FDF9D7",
"CX c #F8EACF",
"ZX c #DCDDE2",
"AX c #DEFCF9",
"SX c #E8E9E9",
"DX c #FCFAE8",
"FX c #E9FDFA",
"GX c #F3FEFD",
"HX c #FEFFFF",
"JX c #F4F5F5",
"KX c #EDF3E4",
"LX c #D9E1D4",
/* pixels */
"                                                        C K { } F V                                                             ",
"                                                        C 5X X X6XS                                                             ",
"                                                        C L. X X6XS                                                             ",
"                                                        V L { } L V                                                             ",
"                                                      C L I L L U L C                                                           ",
"                            V V V V V V V V V V V V V V V V V V V V V V V V V V V V V V V V V V                                 ",
"                            L E E E E E E E E E E E E E E E E E E E E E E E E E E E E E E E E I                                 ",
"                    V V V V V I L L L L L L L L L L L L L L L L L L L L L L L L L L L L L L I L V V V V                         ",
"                    V Y E E E E E E E E E E E E E E E E E E E E E E E E E E E E E E E E E E E E E E E V                         ",
"                V V V L I I I I L I I I I I I I I I I I I I I I I I I I I I I I I I I I I I I I I I I V V V V                   ",
"              C U E U I U U U U I I U U U U U U U U U U U U I I U U U U U U U U I I U U U U U U U U I U Y Y V                   ",
"          C L S Y E V U I L K L L L L L L L L L L L L L L S L L L L L L L L L K L I L L I L L L L L U V E E V I C               ",
"          C U L Y E V U < 5  .A 1 , ! 2 < ' < 5 ! 1 A H G  .5 1 1 1 1 1 1 1 G  .2 , 3 ' , 6 A H A 1 L L E E S Y C               ",
"          C U L Y E S P . 8 0XO.A [ ] o.+ 0X. 7 3XG *X6 3X2X5 O.5  .Z ' A ! >X2XX.+ o.[ X.7 o.]  ., F L E E S Y C               ",
"          C U L Y E S P . 8 qX` X 2X8 4X9 0X. 7 3X .*X, 3X3X5 6 ' H ' A ! 1 2X5X] + 0X9 0X+ X.X.H , F L E E V Y C               ",
"          C U L Y E S P . 8 o.. . 9 X.[ @ 0X] 7 2X5 O.A *X3X5 < ' 2 G 6 A , *X5X[ @ ` O.7 8 o.[ O., F L E E V Y C               ",
"          C U L Y E V U B B Z M M 2 D B M D D B Z M Z Z Z F B B M B M B M B Z F B M M D 2 B Z B Z B U L E E S Y C               ",
"            K V Y E S L L P G G G G G ^ G G G G D S V D D V F F R G G G G D F G R F F F ^ R R R T L L V E E V L C               ",
"              C Y W E Y C A 3.r.2.7.D.J.S.M.w.q.%.y # y k c 6.-.T.s.i.q.i.4.;.y.E.q.2.u 8.!.j.d. .C U E E E V                   ",
"              C Y W / E V I A c 9.V.G.N.N.N.t.t.t.1.n 4.<.5.n *.<.<.2.3.C.F.p.g.Q.t.t.>.k 8.4.N U K U W W E V                   ",
"              C Y W W E V ) ) H n.J.J.G.N.S.w.t.w.=.u.5.f.j.7.7.d.7.6.p.Z.C.C.8.7.A.0.r.u.y 6 ( ) S U W W E V                   ",
"              C Y W W E V %XbX+X' K.G.N.G.S.,.w.t.e.%.w h.rXyXwXwXwXyXvXsX}..X`.a.8.k &.v H +X9X>XV U W W E V                   ",
"              C Y W W Y V $X0X2X%X^ 5.M.N.S.w.t.M.B.f.c yXDXDXFXJXKXCXVXDXxX|.E.C.Z.r.;.P #X3X4X=XV U W W E V                   ",
"              C Y W W Y V $X5X` o.#XL H.J.m.q.m.`.{.[.5.yXCXcXcXNXzX/.xXNX|. XgX|.{.V.P ..*X[ o.=XV U W W E V                   ",
"              C Y W W Y C $X5X7 7 ' / a.`.t.r.Z.'.~.dXd.g.hXhXsXsXsX(.zXdX}.jX|.{.|.V.R ..7 7 o.=XV U W W E V                   ",
"              C Y W W Y C -XqX` 9 ' / i.C.t.r.F.`.].gXR.j /.gX[.).).hXzXhX}.gX|.`.`.M.R ..9 ` 4X7XV U W W E V                   ",
"              C Y W W Y C &XLX0XX.../ B.m.t.r.~.E.F.}.fXP.U.^.).).(.}.fX).'.}.|.'.F.V.^ ..] 4XLX7XV U W W E V                   ",
"              C Y W W Y C &XkXo.2X*XY B.M.r.e.^.p.F.}.U.g.Y.!.(.tXsXxXlX!.Q.dXjX'.F.V.R $X2Xo.qX7XV U W W E V                   ",
"              V Y W W Y V &XMXX.] &XY a.r.-.i.~.'.].].R.E.sXsXlXLXlXxXxXdX[.jXxX`.].V.R $XO.[ qX7XV U W W E V                   ",
"              C Y E W Y V -XMXX.] &XY 3.0.=.j.i.A.Z.~.u.B.fXCXSXFXDXNXhX~.S.'.gXi.D.E.^ $XX.] MX7XV U W W E V                   ",
"              C Y W W Y V +X8X4X4X*XY 2.=.g p.^.^.{.E.!.'.lXJXGXAXFXDXzXfX~.].`.`.E.E.^ &X4X4X8X$XV U W W E V                   ",
"              C Y W W E V E L ..=X$XY e.0.%.a.e.V.D.'.E.C.lXGXGXFXGXDXdX^.i.E.].C.!.y.R #X=X+XU Y L U W W E V                   ",
"              V Y W W Y V / / L L U U =.g t 6.i.F.F.}.[.A.lXGXFXAXFXKX6X8.>.s.Q.W.T.y.T U L L I Y K U W W E V                   ",
"              V Y W W Y C %XMX>XY K L i 0 w y k U.[.fXrX<.c.AXGXFXHXMX9 $ f %.1.8.1.f.P S Y E E Y S U W W E V                   ",
"              C Y W W Y C -XSXMX8X/ L @ $ $ # # y j : ; o x.FXHXHXHXLX~ O O ; j x : x U L ..#XY Y S U W W E V                   ",
"              C Y W W Y C -XSXSXSX$XJ = e *.1.<.p./.K.P.f.MXHXHXHXHXGXMXg.<.K.vX(.4.d...L &X7X/ Y S U W W E V                   ",
"              C Y E W E C -XSXMXZX$XJ i #.p.2.^.Z.hXE.(.vXBXGXHXHXHXGXMXP.!.(.NX[.rXkX&XL $X=XE Y S U W W E V                   ",
"              C Y W E E C -XJXZXZX$XJ i e.`.e.F.dXcXNX(.U.iXmXiX,Xc.9XMXlXY.lXVXhXR.U.O.L ) +XY Y S U W W E V                   ",
"              C Y W W E C -XSXMXbX..K %.Q.].V.m.D.sXkXvXlXLXmXeXmXmXpXMXkXdXhXVXcXT.Y./ L E E Y Y K U W W E V                   ",
"              C Y W W E V +X8X:XOXE L =.Q.'.u.3.R.CXkXh.4.L.v.b 1X<X| f._.rXfXKXcXj._./ L oXoXoX( S U W W E V                   ",
"              C Y W W Y V ( oXoXOX( U k 0.1.k 5.g.f.L.} | c.v.l.z.x.{ j 5.1.6XL.<.6.rX/ E OXOXOXXXS U W W E V                   ",
"              C Y W W Y V E L L L L L 5.6.y m > O X ~ ,XiX<Xb.1X1X1Xl.b ; ; L.aXc.L.P.T L I L L Y L U W W E V                   ",
"              C Y W W Y V Y U E E L L n 7.k I.wXy : O.x.~ c.z.<Xl.v.v.b > v c f.+.kXI.T L E E U Y L U W W E V                   ",
"              V Y W W Y V Y Y W W L L 7.T.C.D.j.c h.4X5XeX9XpXMXnXnXpXpXyXh.v 5.u.a.B.T L W W Y Y S U W W E V                   ",
"              C Y W W Y V Y Y W E L L ;.Z.G.Q.j.tXlXkXBXHXHXHXHXHXHXHXHXHXqXg.j.s.u n P L W W E Y S U W W E V                   ",
"              C Y W W Y V Y Y W E L L 7.s.e.!.tXlXCXrXLX4X] ] ] ] X.] ] | K.!.W.k.h : L L W W E Y S U W W E V                   ",
"              C Y W W Y V Y Y W W L L h 2.u.s.y.8.sXrXrX} X . . @ @ . . % 6.^.Z.<.k Y.T K W W E Y S U W W E V                   ",
"              C Y W W Y V Y E E W L L l e g q.a.1.8._.tXP.x : - X - ; : ;.y.s.0.9.8.2.P L E E E Y S U W W E V                   ",
"              C Y W W Y V Y Y ( oX( U * $ y & O O X n g.uX5X| 9 X - v 5.6.2.k o # - O L E oX( Y Y K U W W E V                   ",
"              C Y W W Y V ( @X;XOX( U i t y o . O # O # # > > - X O # & & $ $ & @ + X L W oX@X;X( V U W W E V                   ",
"              C Y W W Y V ( XXE U S L *.#.*.g t k v $ $ # y y h.; ;.k j o o & c c v = L V I E XXXXS U W W E V                   ",
"              C Y W W Y V Y L U Y L L 2.3.0.-.=.&.g u $ # o o # # y u w # o % t s s f P K E U I Y L U W W E V                   ",
"              V Y W W Y V E Y W W L L U.F.m.t.r.w.-.%.& X # % q q e e e 0 $ t f g %.%.P L W W Y Y L U W W E V                   ",
"              C Y W W Y V Y Y W W L L R.Q.C.C.C.s.3.u w 0 p a d d d d a s u u t f %.&.P L W W E Y S U W W E V                   ",
"              C Y W W Y V Y Y W W L L /.W.Z.Z.A.u.*.# 0 d @.@.@.@.@.d a s f w 0 t g %.P L W W E Y S U W W E V                   ",
"              C Y W W Y V Y Y W W L L Y.W.W.s.=.; w $ q d a a p p p p a e q q 0 % r d P L W W E Y S U W W E V                   ",
"              V Y W W Y V Y Y W E U L Y.W.T.-.s w f g d @.d a s q g &.=.&.%.#.g f f t P L E W E Y S U W W E V                   ",
"              C Y W W Y V Y Y E oXXXP U.T.a.g e g &.:.:.#.d d f 0 =.q.q.q.q.-.=.&.%.w D ( @XW Y Y S U W W E V                   ",
"              C Y W W Y V Y W @XoXG *.=.*.f a r d d @.@.a p p t $ &.3.>.q.0.-.&.#.g s i H XX@X( Y K U W W E V                   ",
"              C Y W W Y V ( @XXXQ h f s r % p r r r a a e q q 0 $ g &.-.-.=.&.g d s s r r x ( @XXXV U W W E V                   ",
"              C Y W W Y V ( XXQ f r q 0 0 % r e q q r e 0 % % % 0 g #.:.#.d d s p p s e s s l _ ( S U W W E V                   ",
"            V V Y W W E V Y H i e e 0 q % # q q % 0 q % $ $ $ % q p d g a a s h p e i i t h w 5 U L U W W E V V                 ",
"          C L V I U U U C D z z = = = = * * = = * = = * * * * = = l l l l l z z l 4 4 z 4 z l * Z V L U U U V L C               ",
"                                                            C C                                                                 "
};
