/* XPM */
static char *_ee0277364f54c5bcdfaf5b652967d057B9PFFBE3QcRVA6R[] = {
/* columns rows colors chars-per-pixel */
"64 64 179 2 ",
"   c None",
".  c #010101",
"X  c #0A0B0C",
"o  c #0E0E11",
"O  c #141414",
"+  c #1B1A1A",
"@  c #040926",
"#  c #0A0F24",
"$  c #060C29",
"%  c #0C1126",
"&  c #0F1429",
"*  c #161A2F",
"=  c #0E1534",
"-  c #161B32",
";  c #181E37",
":  c #1A213B",
">  c #1C2136",
",  c #212122",
"<  c #2B2B2C",
"1  c #22273F",
"2  c #2F3138",
"3  c #343434",
"4  c #3D3D3D",
"5  c #37383B",
"6  c #40403F",
"7  c #161F44",
"8  c #172046",
"9  c #192245",
"0  c #172148",
"q  c #1A244A",
"w  c #1F294E",
"e  c #192957",
"r  c #1D2C5C",
"t  c #242940",
"y  c #292E45",
"u  c #212949",
"i  c #2F344A",
"p  c #31364C",
"a  c #393C48",
"s  c #242D52",
"d  c #212F5D",
"f  c #293256",
"g  c #26315A",
"h  c #363B50",
"j  c #3A3E54",
"k  c #202F60",
"l  c #243364",
"z  c #2D3A67",
"x  c #263568",
"c  c #28376A",
"v  c #2B3A6D",
"b  c #283662",
"n  c #2F3E72",
"m  c #303F74",
"M  c #3D4256",
"N  c #3E496A",
"B  c #2F407A",
"V  c #314075",
"C  c #394777",
"Z  c #3D4A77",
"A  c #33437B",
"S  c #3E4B79",
"D  c #434343",
"F  c #454649",
"G  c #4B4B4B",
"H  c #41465C",
"J  c #45495D",
"K  c #484B58",
"L  c #535352",
"P  c #5A5A5A",
"I  c #585857",
"U  c #605F5E",
"Y  c #454A61",
"T  c #4A4F64",
"R  c #4E5266",
"E  c #535665",
"W  c #54596C",
"Q  c #4A5472",
"!  c #47527B",
"~  c #525C7E",
"^  c #505976",
"/  c #5D647D",
"(  c #636363",
")  c #6C6C6C",
"_  c #706F6E",
"`  c #70706F",
"'  c #686D7E",
"]  c #747473",
"[  c #7C7B7B",
"{  c #787877",
"}  c #80807F",
"|  c #334582",
" . c #384A87",
".. c #3A4C8C",
"X. c #364884",
"o. c #3C4F92",
"O. c #3F5194",
"+. c #42538F",
"@. c #415499",
"#. c #5F6B92",
"$. c #777B88",
"%. c #626D93",
"&. c #667197",
"*. c #767D97",
"=. c #656C87",
"-. c #465BA6",
";. c #465CAA",
":. c #4A5FAC",
">. c #4B60AE",
",. c #4C62B1",
"<. c #4D65BA",
"1. c #5168BC",
"2. c #5067BA",
"3. c #727EA8",
"4. c #536AC0",
"5. c #7F8188",
"6. c #7C839F",
"7. c #7681AA",
"8. c #7984AB",
"9. c #858584",
"0. c #8C8C8C",
"q. c #86888F",
"w. c #92918F",
"e. c #878A96",
"r. c #8F9092",
"t. c #919191",
"y. c #95969B",
"u. c #9C9C9B",
"i. c #A1A09F",
"p. c #858EAD",
"a. c #868EAE",
"s. c #828BAB",
"d. c #8A8EA0",
"f. c #8790AF",
"g. c #9A9DAA",
"h. c #8F97B0",
"j. c #969EB8",
"k. c #9AA2BC",
"l. c #9AA0B7",
"z. c #A6A6A4",
"x. c #A4A5AB",
"c. c #ACACAC",
"v. c #B0AFAF",
"b. c #B0B0AE",
"n. c #A8ACBA",
"m. c #B2B2B2",
"M. c #BCBCBC",
"N. c #B7B7B8",
"B. c #9FA7C1",
"V. c #A5ACC2",
"C. c #ACB2C3",
"Z. c #B9BECC",
"A. c #B3B8C6",
"S. c #B8BDD0",
"D. c #C2C2C2",
"F. c #CBCBCC",
"G. c #C6C6C8",
"H. c #D0D0CE",
"J. c #CCCDD2",
"K. c #C6CAD9",
"L. c #C7CBD9",
"P. c #D4D4D4",
"I. c #DBDBDB",
"U. c #E1E0DF",
"Y. c #D6D9E2",
"T. c #D3D6E0",
"R. c #D8DFF8",
"E. c #D8DFF7",
"W. c #DFE4F7",
"Q. c #DCE2F9",
"!. c #E3E3E3",
"~. c #E4E6EB",
"^. c #EAEAEA",
"/. c #E8E8E7",
"(. c #F0F0EF",
"). c #E2E7FA",
"_. c #EBEDF2",
"`. c #F3F3F3",
"'. c #FEFEFE",
/* pixels */
"                                                          e e e                                                                 ",
"                                                        l Q ' ^ l                                                               ",
"                                                        N 0.w.0.Q                                                               ",
"                                                        b / 5.' z e                                                             ",
"                                                      r l l z l l r                                                             ",
"                                    e e e e e e e e e r l k k k l r e e e e e r e e e e e                                       ",
"                        e l l l l l l l l l l l l l l l l l l l l l l l l l l l l l l l l l l l e                               ",
"                        e l n v v v v v v v v v v v v v v v v v v v v v v v v v v v v v v v v x e                               ",
"                  k x x l x x x x x x x x x x x x x x x x x c c x x x x x x x x x x x x x x x x l x x l e                       ",
"                e l v v v v v v v v v v v v v v v v v v v v v v v v v v v v v v v v v v v v v v v v v l e                       ",
"            r x l l l l l l l l l l l l l l l l l l l l l l l l l l l l l l l l l l l l l l l l l l l l l x k                   ",
"        r d l V c l l l l l l l l l l l l l l l l l l l l l l l l l l l l l l l l x l l l l l l l l l l x V l r r               ",
"        k v l V x l g 9 u f w 0 7 s 9 9 s 0 q s 0 q s w f s 0 0 0 0 8 0 8 0 s f 9 9 8 f 7 q s q s 0 d x l V l x l               ",
"        k v l V x x : . ) r.E * 2 ) F o y.o O y.- E W j x.J 1 y y t i : h ; r.$.F X a ) 5 , 0.< e.@ 9 c l V l c l               ",
"        k v l V x x : . [ y.I O u.< z., c.X O c.p x.@ J N.J y M j h H p J : x.[ ( O m.+ c.O ( ) K $ 9 c l V l c l               ",
"        k v l V x x : . [ ( . . ( I [ + m.G + c.t 5.j J m.H @ M j J p R y $ x.] ( O ] L ] , t.6 q.@ 9 c l V l c l               ",
"        k v l V x l w # h t % % # J - % T R - Y = 9 H t W j = = = = = = = = Y W * % & Y % - H > H = w c l V l c l               ",
"        r l l V x k x l l l l l l l l l k k l l l l l l d l l l l l l l l l l k l l l k l l l l l l l l l V l l d               ",
"            l m n v l l v v x x x x x x x x x x x x x c v l l v v v x x x x x x x x x x x x x c v l r v v m l e                 ",
"            l m m V l l V c &.p.p.p.p.p.p.p.p.p.p.p.7.o.m x l V m c %.p.p.p.p.p.p.p.p.p.p.p.8.O.m c l V m m l                   ",
"            l m m m l l V r Z.u.) ] /.9.` [ ^.] _ w.Q.<.n x l m m r C.z.) ` !.0.` { ^.[ ` 0.).4.n c l m m m l                   ",
"            l m m m l l V r Z.] 3 3 I.L 3 D I.4 3 ( Q.<.n x l m m r C.[ 3 3 P.P 3 4 !.D 3 I W.1.n c l m m m l                   ",
"            l m m m l l V r Z.] 3 4 I.L 3 G !.4 3 ( Q.<.n x l m m r C.9.3 3 P.P 3 D !.D 3 P W.1.n c l m m m l                   ",
"            l m m m l l V r Z.[ 4 D I.P 4 L !.D 4 ) Q.<.n x l m m r C.9.4 4 P.( 4 G !.G 4 U W.1.n c l m m m l                   ",
"            l m m m l x V r Z.P.M.M.`.N.z.m.`.M.M.F.E.<.n x l m m r C.P.M.M.`.M.z.c.`.D.M.G.W.1.n c l m m m l                   ",
"            l m m m l x V r Z.N.0.t.^.P 4 G ^.y.t.z.R.<.n x l m m r C.M.0.t.^.( 4 G ^.y.t.z.W.1.n c l m m m l                   ",
"            l m m m l l V r Z.m.0.0.^.L 3 G ^.t.0.z.R.<.n x l m m r C.M.0.0.!.P 3 D ~.t.0.i.W.1.n c l m m m l                   ",
"            l m m m l l V r Z.b.0.0.^.G 3 D ^.0.0.z.R.<.n x l m m r C.N.9.0.!.P 3 4 !.t.0.u.W.1.n c l m m m l                   ",
"            l m m m l l V r Z.F.c.m.`.9.] } `.m.c.D.Q.<.n x l m m r C.H.c.c.(.0.] [ `.N.v.M.).4.n c l m m m l                   ",
"            l m m m l l m c &.s.s.s.s.s.s.s.s.s.s.s.3...m x l m m c #.s.s.s.s.s.s.s.s.s.s.s.7.O.m c l m m m l                   ",
"            l m m m l l m v x l l l l l l l l l l l l c m x l m m v x l l l l l l l l l l l l c m c l m m m l                   ",
"            l m m m l l V l l C S S S S S S S S Z C A @.n x l m m l l c c c c c c c c c c c n @.m c l m m m l                   ",
"            l m m m l l V l x S.J.~.J.G.~.F.~.J._.K...1.n x l m m l c V m m n n m n n m m n ..4.n c l m m m l                   ",
"            l m m m l l V l l L.!.`.P.I.^.I.'.!.'.Y.+.1.n x l ! ! l x m m n C *.l.e.Z m m n ..4.n c l m m m l                   ",
"            l m m m l l V l l L.'.'.F.`.F.'.'.'.'.!.6.<.n x l ~ ~ l x m m n g.C.j.n.n.C m n ..4.n c l m m m l                   ",
"            l m m m l l V l l L.'.F.D.`.G.D.`.F.'.!.*.<.n x l ~ ~ l x m m n d.C.j.C.g.C m n ..4.n c l m m m l                   ",
"            l m m m l l V l l L.I.^.`.P.`.`.P.^.I.T...1.n x l ~ ~ l x m m n V =.h.$.C m m n ..4.n c l m m m l                   ",
"            l m m m l x V l l L.M.^.F.U.'.F.I.G.^.Y...1.n x l C C l x m m m n n n n n n m n ..4.n c l m m m l                   ",
"            l m m m l l V l x s.k.k.k.B.B.k.B.k.V.f.o.1.n x l m m l c A V V V V V V V V V V ..4.n c l m m m l                   ",
"            l m m m l l V l o.:.;.;.;.;.;.;.;.;.;.;.,.:.n x l m m l ..>.:.:.:.:.:.:.:.:.:.:.,.,.n c l m m m l                   ",
"            l m m m l l m n m V V V V V V V V V V V m n m x l m m n m V V V V V V V V V V V m n m c l m m m l                   ",
"            l m m m l l V l l l l l l l l l l l l l x B m x l m m l l l l l l l l l l l l l x B m c l m m m l                   ",
"            l m m m l l V l c m n n n n n n n n n n ..2.n x l m m l x m n n n n n n n n n n ..1.n c l m m m l                   ",
"            l m m m l l V l c V m m m m m m m m m n ..1.n x l m m l x m m m m m m n n m m n ..4.n c l m m m l                   ",
"            l m m m l l V l c m m m m m m m m m m n ..1.n x l m m l x m m m m m m m m m m n ..4.n c l m m m l                   ",
"            l m m m l l V l c m m m m m m m m m m n ..1.n x l m m l x m m m m m m m m m m n ..4.n c l m m m l                   ",
"            l m m m l l V l c m m m m m m m m m m n ..1.n x l m m l x m m m m m m m m m m n ..4.n c l m m m l                   ",
"            l m m m l l V l c m m m m m m m m m m n ..1.n x l m m l x m m m m m m m m m m n ..4.n c l m m m l                   ",
"            l m m m l x V l c n n n n n n n n n n n ..1.n x l m m l l n n n n n n n n n n n  .4.n c l m m m l                   ",
"            l m m m l x V l | @.@.@.@.@.@.@.@.@.@.@.:.1.n x l m m l | @.@.@.@.@.@.@.@.@.@.@.-.4.n c l m m m l                   ",
"            l m m m l l m v  .O.O.O.O.O.O.O.O.O.O.O.O...m x l m m v X.O.O.O.O.O.O.O.O.O.O.O.O...m c l m m m l                   ",
"            l m m m l l m v l l l l l l l l l l l l l c m x l m m v l l l l l l l l l l l l l c m c l m m m l                   ",
"            l m m m l l V l l v v v v v v v v v v c A -.n x l m m l l v v v v v v v v v v c A -.m c l m m m l                   ",
"            l m m m l l V l c m m m m m m m m m m n ..1.n x l m m l x m m m m m m m m m m n ..4.n c l m m m l                   ",
"            l m m m l l V l c m m m m m m m m m m n ..1.n x l m m l x m m m m m m m m m m n ..4.n c l m m m l                   ",
"            l m m m l l V l c m m m m m m m m m m n ..1.n x l m m l x m m m m m m m m m m n ..4.n c l m m m l                   ",
"            l m m m l l V l c m m m m m m m m m m n ..1.n x l m m l x m m m m m m m m m m n ..4.n c l m m m l                   ",
"            l m m m l l V l c m m m m m m m m m m n ..1.n x l m m l x m m m m m m m m m m n ..4.n c l m m m l                   ",
"            l m m m l l V l c m n n n n n n n n n n ..1.n x l m m l x m n n n n n n n n n n ..4.n c l m m m l                   ",
"            l m m m l l V l v A A A A A A A A A A A O.1.n x l m m l v A A A A A A A A A A A ..4.n c l m m m l                   ",
"          e l m m m l l V l o.>.:.:.:.:.:.:.:.:.:.:.,.-.n x l m m l ..>.:.:.:.:.:.:.:.:.:.:.,.:.m c l m m m l e                 ",
"        r l l n n n l l n n n n n n n n n n n n n n n n n l l n n n n n n n n n n n n n n n n n n x k n n n l l r               ",
"        r r r r r r r r r r r r r r r r r r r r r r r r r r r r r r r r r r r r r r r r r r r r r r r r r r r r r               ",
"                                                        e e e e e                                                               "
};
