/* XPM */
static char *d96c441034304dfb9020860f4854357b[] = {
/* columns rows colors chars-per-pixel */
"64 64 249 2 ",
"   c #020102",
".  c #0C0706",
"X  c #1B0301",
"o  c #170805",
"O  c #161012",
"+  c #1A1819",
"@  c #260603",
"#  c #340300",
"$  c #3B0100",
"%  c #330B05",
"&  c #2F170D",
"*  c #280E1E",
"=  c #370E1D",
"-  c #281815",
";  c #2D2D12",
":  c #372519",
">  c #060B25",
",  c #0D1229",
"<  c #101429",
"1  c #0D1433",
"2  c #171D39",
"3  c #36162F",
"4  c #1D223A",
"5  c #2B2E29",
"6  c #24283B",
"7  c #343434",
"8  c #3B3B3C",
"9  c #430200",
"0  c #4B0200",
"q  c #470A05",
"w  c #540301",
"e  c #5A0201",
"r  c #570C04",
"t  c #481707",
"y  c #581505",
"u  c #4F1015",
"i  c #630201",
"p  c #6B0300",
"a  c #660B03",
"s  c #760801",
"d  c #6A1607",
"f  c #771702",
"g  c #671114",
"h  c #4F2616",
"j  c #712D11",
"k  c #461427",
"l  c #49122E",
"z  c #4C2F30",
"x  c #662E28",
"c  c #763728",
"v  c #26682C",
"b  c #655D28",
"n  c #714634",
"m  c #141E42",
"M  c #161E48",
"N  c #192246",
"B  c #182758",
"V  c #1C2C5B",
"C  c #222A4C",
"Z  c #312D4A",
"A  c #35374B",
"S  c #282C54",
"D  c #202F5E",
"F  c #28325B",
"G  c #363858",
"H  c #1B2B60",
"J  c #202F60",
"K  c #243264",
"L  c #2A3462",
"P  c #2D3965",
"I  c #263568",
"U  c #283769",
"Y  c #2B3A6D",
"T  c #353D65",
"R  c #2D3C71",
"E  c #303F74",
"W  c #433148",
"Q  c #3D4258",
"!  c #35684E",
"~  c #374167",
"^  c #2F437D",
"/  c #334171",
"(  c #33437C",
")  c #3B4879",
"_  c #474746",
"`  c #545A44",
"'  c #464A5A",
"]  c #595A5A",
"[  c #5B634C",
"{  c #68625A",
"}  c #706D56",
"|  c #585C6C",
" . c #495272",
".. c gray40",
"X. c #666875",
"o. c #777777",
"O. c #830700",
"+. c #8A1702",
"@. c #A01D00",
"#. c #872607",
"$. c #952806",
"%. c #8C3113",
"&. c #A73707",
"*. c #AD3409",
"=. c #8F3A25",
"-. c #C63607",
";. c #F73B02",
":. c #8F4712",
">. c #984818",
",. c #AA4A19",
"<. c #B64D13",
"1. c #91522F",
"2. c #AC522E",
"3. c #B75728",
"4. c #976432",
"5. c #B26A33",
"6. c #C54907",
"7. c #D25010",
"8. c #EC5206",
"9. c #D06718",
"0. c #E6630A",
"q. c #F5700D",
"w. c #CF5B29",
"e. c #C76827",
"r. c #D7762B",
"t. c #D1712F",
"y. c #C97939",
"u. c #ED762E",
"i. c #8E5346",
"p. c #996F4C",
"a. c #9C645D",
"s. c #A97151",
"d. c #CE7546",
"f. c #E97950",
"g. c #31944F",
"h. c #3DB37F",
"j. c #569B5D",
"k. c #539B7C",
"l. c #719874",
"z. c #49E679",
"x. c #BE983F",
"c. c #F28C15",
"v. c #FA891B",
"b. c #FFAB18",
"n. c #D89137",
"m. c #ED892E",
"M. c #EB972B",
"N. c #FA962B",
"B. c #F99838",
"V. c #D0A03B",
"C. c #FDA828",
"Z. c #FBB62E",
"A. c #E8AA3B",
"S. c #FAAB3A",
"D. c #FAD136",
"F. c #BB8850",
"G. c #98AA53",
"H. c #918F69",
"J. c #B38F6F",
"K. c #C78848",
"L. c #D39353",
"P. c #F39447",
"I. c #D8AA56",
"U. c #EAA746",
"Y. c #FBA948",
"T. c #F9B847",
"R. c #E9A557",
"E. c #F0B151",
"W. c #F5BA54",
"Q. c #D5936C",
"!. c #CEAE69",
"~. c #F4B06E",
"^. c #EBB978",
"/. c #FCD052",
"(. c #FFE956",
"). c #FACA64",
"_. c #FCDA67",
"`. c #F6CE74",
"'. c #F9E86A",
"]. c #F5F06E",
"[. c #FDE679",
"{. c #FFF67A",
"}. c #374986",
"|. c #3C4F91",
" X c #3E5295",
".X c #495684",
"XX c #525E86",
"oX c #41559A",
"OX c #5A6487",
"+X c #5E6991",
"@X c #626B89",
"#X c #767986",
"$X c #687293",
"%X c #737B98",
"&X c #4559A1",
"*X c #6D7AA8",
"=X c #78888E",
"-X c #669393",
";X c #71CE93",
":X c #60E499",
">X c #86878B",
",X c #8E9189",
"<X c #898B96",
"1X c #9A9A99",
"2X c #9BAB95",
"3X c #ACAA8B",
"4X c #838BA4",
"5X c #949BB3",
"6X c #9AADB0",
"7X c gray65",
"8X c #BBAAA6",
"9X c #B9B7B4",
"0X c #C18682",
"qX c #D6B690",
"wX c #F0B392",
"eX c #C9B1A7",
"rX c #9DCA98",
"tX c #9BCCAE",
"yX c #B6C7BA",
"uX c #DEC685",
"iX c #F1CC8D",
"pX c #FCCA95",
"aX c #FAD796",
"sX c #FFF78C",
"dX c #FCE896",
"fX c #D3C6B0",
"gX c #F0D4B0",
"hX c #F9E8A6",
"jX c #FDF8A8",
"kX c #FBEDB7",
"lX c #ACB2C7",
"zX c #80C2DA",
"xX c #B1D0C7",
"cX c #ABE3C5",
"vX c #CED1CD",
"bX c #D9E1D4",
"nX c #F8EACF",
"mX c #FEFAC3",
"MX c #E1E4DD",
"NX c #FDF9D7",
"BX c #DCDDE2",
"VX c #DEFCF9",
"CX c #E8E9E9",
"ZX c #EDF3E4",
"AX c #FCFAE8",
"SX c #E9FDFA",
"DX c #F4F5F5",
"FX c #F3FEFD",
"GX c #FEFFFF",
/* pixels */
"zXzXzXzXzXzXzXzXzXzXzXzXzXzXzXzXzXzXzXzXzXzXzXzXzXzXzXzXB J ` [ F V zXzXzXzXzXzXzXzXzXzXzXzXzXzXzXzXzXzXzXzXzXzXzXzXzXzXzXzXzXzX",
"zXzXzXzXzXzXzXzXzXzXzXzXzXzXzXzXzXzXzXzXzXzXzXzXzXzXzXzXB ,X].].3XD zXzXzXzXzXzXzXzXzXzXzXzXzXzXzXzXzXzXzXzXzXzXzXzXzXzXzXzXzXzX",
"zXzXzXzXzXzXzXzXzXzXzXzXzXzXzXzXzXzXzXzXzXzXzXzXzXzXzXzXB H.].].3XD zXzXzXzXzXzXzXzXzXzXzXzXzXzXzXzXzXzXzXzXzXzXzXzXzXzXzXzXzXzX",
"zXzXzXzXzXzXzXzXzXzXzXzXzXzXzXzXzXzXzXzXzXzXzXzXzXzXzXzXV K ` [ L V zXzXzXzXzXzXzXzXzXzXzXzXzXzXzXzXzXzXzXzXzXzXzXzXzXzXzXzXzXzX",
"zXzXzXzXzXzXzXzXzXzXzXzXzXzXzXzXzXzXzXzXzXzXzXzXzXzXzXB K I K K U K B zXzXzXzXzXzXzXzXzXzXzXzXzXzXzXzXzXzXzXzXzXzXzXzXzXzXzXzXzX",
"zXzXzXzXzXzXzXzXzXzXzXzXzXzXV V V V V V V V V V V V V V V V V V V V V V V V V V V V V V V V V V zXzXzXzXzXzXzXzXzXzXzXzXzXzXzXzX",
"zXzXzXzXzXzXzXzXzXzXzXzXzXzXK R R R R R R R R R R R R R R R R R R R R R R R R R R R R R R R R I zXzXzXzXzXzXzXzXzXzXzXzXzXzXzXzX",
"zXzXzXzXzXzXzXzXzXzXV V V V V I K K K K K K K K K K K K K K K K K K K K K K K K K K K K K K I K V V V V zXzXzXzXzXzXzXzXzXzXzXzX",
"zXzXzXzXzXzXzXzXzXzXV Y R R R R R R R R R R R R R R R R R R R R R R R R R R R R R R R R R R R R R R R V zXzXzXzXzXzXzXzXzXzXzXzX",
"zXzXzXzXzXzXzXzXV V V K I I I I K I I I I I I I I I I I I I I I I I I I I I I I I I I I I I I I I I I V V V V zXzXzXzXzXzXzXzXzX",
"zXzXzXzXzXzXzXB U R U I U U U U I I U U U U U U U U U U U U I I U U U U U U U U I I U U U U U U U U I U Y Y V zXzXzXzXzXzXzXzXzX",
"zXzXzXzXzXB K D Y R V U I K J K K K K K K K K K K K K K K D K K K K K K K K K J K I K K I K K K K K U V R R V I B zXzXzXzXzXzXzX",
"zXzXzXzXzXB U K Y R V U , 4 | A 1 > Q 2 , ' , 4 Q 1 A Z G | 4 1 1 1 1 1 1 1 G | 2 > < ' > 6 A Z A 1 K K R R D Y B zXzXzXzXzXzXzX",
"zXzXzXzXzXB U K Y R D L   8 7XX.A ] ] o.+ 7X  7 <XG #X6 <X>X4 X.4 | C ' A Q =X>X..+ o.] ..7 o.{ | > F K R R D Y B zXzXzXzXzXzXzX",
"zXzXzXzXzXB U K Y R D L   8 9X_ . >X8 1X5 7X  7 <X| #X> <X<X4 6 ' Z ' A Q 1 >X,X] + 7X5 7X+ ....Z > F K R R V Y B zXzXzXzXzXzXzX",
"zXzXzXzXzXB U K Y R D L   8 o.    5 ..' O 7X..7 >X4 X.A #X<X4 , ' 2 G 6 A > #X,X' O _ X.7 8 o.] X.> F K R R V Y B zXzXzXzXzXzXzX",
"zXzXzXzXzXB U K Y R V U N N C m m 2 S N m S S N C m C C C F N N m N m N m N C F N m m S 2 N C N C N U K R R D Y B zXzXzXzXzXzXzX",
"zXzXzXzXzXzXJ V Y R D K K L G G G G G ~ G G G G S D V S S V F F T G G G G S F G T F F F ~ T T T P K K V R R V K B zXzXzXzXzXzXzX",
"zXzXzXzXzXzXzXB Y E R Y B A <.0.,.2.A.D.C.c.8.7.#.t @ t j c 3.*.P.u.r.7.r.1.=.w.U.7.,.y 5.R.d.i.| B U R R R V zXzXzXzXzXzXzXzXzX",
"zXzXzXzXzXzXzXB Y E / R V I A c 4.M.Z.b.b.b.q.q.q.:.n 4.>.1.n %.>.>.,.<.N.S.y.s.T.q.q.-.j 5.4.M U J U E E R V zXzXzXzXzXzXzXzXzX",
"zXzXzXzXzXzXzXB Y E E R V ) ) Z x.D.D.Z.b.C.8.q.8.&.e.1.p.d.2.2.i.2.3.y.B.N.N.5.2.m.6.0.e.t 6 ( ) D U E E R V zXzXzXzXzXzXzXzXzX",
"zXzXzXzXzXzXzXB Y E E R V +XlX.X' F.Z.b.Z.C.;.8.q.9.#.q a.qXeX8X8X8XeXuXpX[.(./.t.5.j $.x Z .X6X=XV U E E R V zXzXzXzXzXzXzXzXzX",
"zXzXzXzXzXzXzXB Y E E Y V OX7X>X+X~ 1.c.b.C.8.q.c.n.p.c eXAXAXSXDXZXnXNXAXjX{.U.N.B.0.=.L XX<X1X%XV U E E R V zXzXzXzXzXzXzXzXzX",
"zXzXzXzXzXzXzXB Y E E Y V OX,X_ o.XXK V.D.v.7.v./.'.`.1.eXnXkXkXmXhX!.jXmX{.].sX{.'.M.L  .#X_ o.%XV U E E R V zXzXzXzXzXzXzXzXzX",
"zXzXzXzXzXzXzXB Y E E Y B OX,X7 7 ' / t./.q.0.B.).W.aXi.s.dXdXpXpXpX^.hXaX[.sX{.'.{.M.T  .7 7 o.%XV U E E R V zXzXzXzXzXzXzXzXzX",
"zXzXzXzXzXzXzXB Y E E Y B $X9X_ 5 ' / r.N.q.0.S./._.sXI.h !.sX`.~.~.dXhXdX[.sX{././.c.T  .5 _ 1X4XV U E E R V zXzXzXzXzXzXzXzXzX",
"zXzXzXzXzXzXzXB Y E E Y B @XbX7X.. ./ n.v.q.0.W.U.S.[.iXJ.K.E.~.~.^.[.iX~.).[.{.).S.M.~  .] 1XbX4XV U E E R V zXzXzXzXzXzXzXzXzX",
"zXzXzXzXzXzXzXB Y E E Y B @XfXo.>X#XY n.c.0.9.E.y.S.[.K.s.L.R.^.wXpXjXgXR.T.aXdX).S.M.T OX>Xo.9X4XV U E E R V zXzXzXzXzXzXzXzXzX",
"zXzXzXzXzXzXzXV Y E E Y V @XvX..] @XY t.0.*.r.W.)._._.I.U.pXpXgXbXgXjXjXaX`.dXjX/._.M.T OXX.] 9X4XV U E E R V zXzXzXzXzXzXzXzXzX",
"zXzXzXzXzXzXzXB Y E E R B $XvX..] @XY <.6.&.d.r.m.B.W.e.n.iXnXCXSXAXmXdXW.C.).sXr.A.U.~ OX..] vX4XV U E E R V zXzXzXzXzXzXzXzXzX",
"zXzXzXzXzXzXzXB Y E E Y V .X5X1X1X#XY ,.&.f y.E.E.'.U.R.).gXDXFXVXSXAXhXiXW._././.U.U.~ @X1X1X5XOXV U E E R V zXzXzXzXzXzXzXzXzX",
"zXzXzXzXzXzXzXB Y E E Y V Y K .X%XOXY 9.6.#.t.9.M.A.).U.N.gXFXFXSXFXAXaXE.r.U._.N.R.w.T XX%X.XU Y K U E E R V zXzXzXzXzXzXzXzXzX",
"zXzXzXzXzXzXzXV Y E E Y V / / K K U U &.f r 3.r.S.S.[.`.m.gXFXSXVXSXZX3X5.-.u.T.Y.P.w.P U K K I Y J U E E R V zXzXzXzXzXzXzXzXzX",
"zXzXzXzXzXzXzXV Y E E Y B +XvX=XY J K u 9 q t j K.`.iXqX>.l.VXFXSXGXvX5 # d #.:.5.:.p.L D Y R R Y D U E E R V zXzXzXzXzXzXzXzXzX",
"zXzXzXzXzXzXzXB Y E E Y B $XCXvX5X/ K O # # @ @ t h : & X k.SXGXGXGXbX! o o & h z : z U K  .XXY Y D U E E R V zXzXzXzXzXzXzXzXzX",
"zXzXzXzXzXzXzXB Y E E Y B $XCXCXCXOXH = w %.:.>.y.!.F.J.p.vXGXGXGXGXFXvXs.>.F.uX^.4.i. .K +X4X/ Y D U E E R V zXzXzXzXzXzXzXzXzX",
"zXzXzXzXzXzXzXB Y R E R B $XCXvXBXOXH u +.y.,.E.B.dXU.^.uXMXFXGXGXGXFXvXJ.R.^.mX`.qXfX@XK OX%XR Y D U E E R V zXzXzXzXzXzXzXzXzX",
"zXzXzXzXzXzXzXB Y E R R B $XDXBXBXOXH u 9./.9.S.aXkXmX^.K.tXcXtX-Xl.6XvXgXL.gXNXdXI.K.X.K ) .XY Y D U E E R V zXzXzXzXzXzXzXzXzX",
"zXzXzXzXzXzXzXB Y E E R B $XCXvXlX .J #.T./.M.v.A.pXfXuXgXbXcX2XcXcXyXvXfXaXdXNXkXP.L./ K R R Y Y J U E E R V zXzXzXzXzXzXzXzXzX",
"zXzXzXzXzXzXzXB Y E E R V .X5X*X XR K &.T.).e.<.I.nXfXa.4.H.j.v :X;X} p.Q.qXiXZXkXd.Q./ K |.|.|.( D U E E R V zXzXzXzXzXzXzXzXzX",
"zXzXzXzXzXzXzXB Y E E Y V ( |.|. X( U j 6.:.j 1.s.p.H.[ } l.j.g.h.k.` h 1.:.3XH.>.3.qX/ R  X X X}.D U E E R V zXzXzXzXzXzXzXzXzX",
"zXzXzXzXzXzXzXB Y E E Y V R K K K K K 1.3.t b ; . . ! -XtX;Xz.:X:X:Xg.v & & H.rXl.H.J.P K I K K Y K U E E R V zXzXzXzXzXzXzXzXzX",
"zXzXzXzXzXzXzXB Y E E Y V Y U R R K K n 2.j G.8Xt : X.k.! l.h.;Xg.j.j.v ; x c p.{ fXG.P K R R U Y K U E E R V zXzXzXzXzXzXzXzXzX",
"zXzXzXzXzXzXzXV Y E E Y V Y Y E E K K 2.P.N.A.d.c a.1X,X2X6XyXvXxXxXyXyXeXa.x 1.e.t.n.P K E E Y Y D U E E R V zXzXzXzXzXzXzXzXzX",
"zXzXzXzXzXzXzXB Y E E Y V Y Y E R K K =.B.Z.T.d.wXgXfXMXGXGXGXGXGXGXGXGXGX9Xs.d.u.y n L K E E R Y D U E E R V zXzXzXzXzXzXzXzXzX",
"zXzXzXzXzXzXzXB Y E E Y V Y Y E R K K 2.u.9.R.wXgXnXqXbX1X] ] ......] ] } F.R.Y.f.g : K K E E R Y D U E E R V zXzXzXzXzXzXzXzXzX",
"zXzXzXzXzXzXzXB Y E E Y V Y Y E E K K g ,.e.u.w.5.pXqXqX[ .     O O     $ 3.E.B.>.j L.P J E E R Y D U E E R V zXzXzXzXzXzXzXzXzX",
"zXzXzXzXzXzXzXB Y E E Y V Y R R E K K k w f 7.t.:.5.Q.wXJ.z : - . - & : =.w.u.6.4.5.,.L K R R R Y D U E E R V zXzXzXzXzXzXzXzXzX",
"zXzXzXzXzXzXzXB Y E E Y V Y Y ( |.( U * # t % o o . n s.0X,X} 5 . - x 1.3.,.j X @ - o K R |.( Y Y J U E E R V zXzXzXzXzXzXzXzXzX",
"zXzXzXzXzXzXzXB Y E E Y V ( oX&X X( U u r t X   o @ o @ @ ; ; - . o @ % % # # % O + . K E |.oX&X( V U E E R V zXzXzXzXzXzXzXzXzX",
"zXzXzXzXzXzXzXB Y E E Y V ( }.R U D K %.+.%.f r j x # # @ t t a.& =.j h X X % c c x = K V I R }.}.D U E E R V zXzXzXzXzXzXzXzXzX",
"zXzXzXzXzXzXzXB Y E E Y V Y K U Y K K ,.<.6.*.&.$.f y # @ X X @ @ t y q @ X $ r a a d L J R U I Y K U E E R V zXzXzXzXzXzXzXzXzX",
"zXzXzXzXzXzXzXV Y E E Y V R Y E E K K K.S.v.q.0.8.*.#.% . @ $ 0 0 w w w 9 # r d f #.#.L K E E Y Y K U E E R V zXzXzXzXzXzXzXzXzX",
"zXzXzXzXzXzXzXB Y E E Y V Y Y E E K K I.T.N.N.N.u.<.y q 9 i p s s s s p a y y r d #.$.L K E E R Y D U E E R V zXzXzXzXzXzXzXzXzX",
"zXzXzXzXzXzXzXB Y E E Y V Y Y E E K K !.Y.B.B.m.e.%.@ 9 s O.O.O.O.O.s p a d q 9 r f #.L K E E R Y D U E E R V zXzXzXzXzXzXzXzXzX",
"zXzXzXzXzXzXzXB Y E E Y V Y Y E E K K L.Y.Y.u.&.& q # 0 s p p i i i i p w 0 0 9 $ e s L K E E R Y D U E E R V zXzXzXzXzXzXzXzXzX",
"zXzXzXzXzXzXzXV Y E E Y V Y Y E R U K L.Y.P.*.a q d f s O.s p a 0 f $.&.$.#.+.f d d r L K R E R Y D U E E R V zXzXzXzXzXzXzXzXzX",
"zXzXzXzXzXzXzXB Y E E Y V Y Y R |.}.L K.P.t.f w f $.@.@.+.s s d 9 &.7.7.7.7.*.&.$.#.q S ( oXE Y Y D U E E R V zXzXzXzXzXzXzXzXzX",
"zXzXzXzXzXzXzXB Y E E Y V Y E oX|.G %.&.%.d p e s s O.O.p i i r # $.<.-.7.6.*.$.+.f a u Z }.oX( Y J U E E R V zXzXzXzXzXzXzXzXzX",
"zXzXzXzXzXzXzXB Y E E Y V ( oX}.W g d a e $ i e e e p p w 0 0 9 # f $.*.*.&.$.f s a a e e z ( oX}.V U E E R V zXzXzXzXzXzXzXzXzX",
"zXzXzXzXzXzXzXB Y E E Y V ( }.W d e 0 9 9 $ e w 0 0 e w 9 $ $ $ 9 f +.@.+.s s a i i a w a a k ^ ( D U E E R V zXzXzXzXzXzXzXzXzX",
"zXzXzXzXzXzXV V Y E E R V Y Z u w w 9 0 $ @ 0 0 $ 9 0 $ # # # $ 0 i s f p p a g i w u u r g q 4 U K U E E R V V zXzXzXzXzXzXzXzX",
"zXzXzXzXzXB K V I U U U B S l l = = = = * * = = * = = * * * * = = k k k k k l l k 3 3 l 3 l k * C V K U U U V K B zXzXzXzXzXzXzX",
"zXzXzXzXzXzXzXzXzXzXzXzXzXzXzXzXzXzXzXzXzXzXzXzXzXzXzXzXzXzXB B zXzXzXzXzXzXzXzXzXzXzXzXzXzXzXzXzXzXzXzXzXzXzXzXzXzXzXzXzXzXzXzX"
};
