/* XPM */
static char *_c914b72aa7144d3abdfd413868be024[] = {
/* columns rows colors chars-per-pixel */
"64 64 217 2 ",
"   c #000203",
".  c #05070C",
"X  c #040D14",
"o  c #0E0F11",
"O  c #161718",
"+  c #21211F",
"@  c #080B28",
"#  c #0D1129",
"$  c #14182A",
"%  c #0D1436",
"&  c #151935",
"*  c #151C3B",
"=  c #1B223A",
"-  c #28292C",
";  c #31332C",
":  c #23273C",
">  c #302E31",
",  c #343432",
"<  c #383838",
"1  c #3C3B3A",
"2  c #423C3C",
"3  c #3F413E",
"4  c #42413C",
"5  c #151C45",
"6  c #1B2144",
"7  c #1B234A",
"8  c #1A2748",
"9  c #142455",
"0  c #1A2553",
"q  c #1C2B55",
"w  c #1D255C",
"e  c #1D2B5B",
"r  c #1E3054",
"t  c #1F315E",
"y  c #242648",
"u  c #23294B",
"i  c #2A2D4C",
"p  c #2E344A",
"a  c #373A47",
"s  c #232C53",
"d  c #282E52",
"f  c #262B5A",
"g  c #222C5D",
"h  c #243355",
"j  c #2A3155",
"k  c #23325D",
"l  c #2A325C",
"z  c #29395B",
"x  c #393C55",
"c  c #1D2764",
"v  c #1E2C62",
"b  c #1E3262",
"n  c #1E316A",
"m  c #222D62",
"M  c #282E68",
"N  c #243364",
"B  c #2A3464",
"V  c #263964",
"C  c #2A3B65",
"Z  c #26356B",
"A  c #29356A",
"S  c #263A6C",
"D  c #2B3B6C",
"F  c #2A3A6D",
"G  c #303E6E",
"H  c #242F71",
"J  c #243472",
"K  c #2A3572",
"L  c #263A76",
"P  c #2D3D73",
"I  c #2D3D7A",
"U  c #323E73",
"Y  c #323E7A",
"T  c #423B43",
"R  c #384259",
"E  c #1F4075",
"W  c #2B4467",
"Q  c #2D416D",
"!  c #384365",
"~  c #32426C",
"^  c #39436C",
"/  c #2E4174",
"(  c #2D4079",
")  c #314174",
"_  c #33437B",
"`  c #384679",
"'  c #3C497B",
"]  c #434443",
"[  c #494A49",
"{  c #464959",
"}  c #4E5153",
"|  c #555654",
" . c #595A5A",
".. c #63635E",
"X. c #474963",
"o. c #4C5065",
"O. c #575B68",
"+. c #434C7B",
"@. c #4D5679",
"#. c #525878",
"$. c #625F68",
"%. c #646467",
"&. c #6C6C6C",
"*. c #73726E",
"=. c #6A6F76",
"-. c #6F7075",
";. c #757675",
":. c #7B7B75",
">. c #7B7C7A",
",. c #7F807B",
"<. c #82827C",
"1. c #2F3B85",
"2. c #333E80",
"3. c #2F4481",
"4. c #334482",
"5. c #364484",
"6. c #354A84",
"7. c #3A4B85",
"8. c #364B8D",
"9. c #394D8C",
"0. c #39528B",
"q. c #3B4E92",
"w. c #394B98",
"e. c #3D5194",
"r. c #4A5182",
"t. c #465489",
"y. c #414E92",
"u. c #424F9C",
"i. c #425193",
"p. c #4F5E97",
"a. c #44539C",
"s. c #5D6789",
"d. c #6D748D",
"f. c #727C99",
"g. c #455CA4",
"h. c #4A5DA5",
"j. c #445DA9",
"k. c #4B5EAC",
"l. c #4B5CB2",
"z. c #4A5CBB",
"x. c #4C61A5",
"c. c #4C63AB",
"v. c #5566AC",
"b. c #4C63B7",
"n. c #5368B5",
"m. c #5465BC",
"M. c #5469BC",
"N. c #5A69BE",
"B. c #4C66C5",
"V. c #546AC2",
"C. c #5668C5",
"Z. c #7C878B",
"A. c #7A879E",
"S. c #7A86A8",
"D. c #7885B2",
"F. c #8D8C86",
"G. c #83848B",
"H. c #8D8D8C",
"J. c #8D908C",
"K. c #898B95",
"L. c #918D94",
"P. c #8D9195",
"I. c #959698",
"U. c #A29E98",
"Y. c #A5A79A",
"T. c #838AA6",
"R. c #848BAC",
"E. c #898EAB",
"W. c #8792AC",
"Q. c #999CA5",
"!. c #808FB6",
"~. c #898EB4",
"^. c #8691B1",
"/. c #8B92B2",
"(. c #969EB9",
"). c #99A3A9",
"_. c #99A1B9",
"`. c #A9A8A7",
"'. c #A4A7AA",
"]. c #B1B2AC",
"[. c #A6ACB1",
"{. c #AAAAB2",
"}. c #ABB1BA",
"|. c #B6B7B5",
" X c #BBBBBC",
".X c #C1BDBC",
"XX c #C3C2BE",
"oX c #9EAAC2",
"OX c #A6ADC4",
"+X c #ABB3C4",
"@X c #ADB4CB",
"#X c #B7BBC7",
"$X c #BABDD4",
"%X c #80C2DA",
"&X c #BAC2C7",
"*X c #BDC7D7",
"=X c #C6C7C8",
"-X c #CBCCCC",
";X c #D1D1CD",
":X c #C8CDD6",
">X c #CBD1DA",
",X c #D5D5D5",
"<X c #DBDADB",
"1X c #DEE2DE",
"2X c #E0E0DE",
"3X c #D8DBE6",
"4X c #D1D7EF",
"5X c #E1DFE7",
"6X c #DAE4F9",
"7X c #E6E6E5",
"8X c #EAEAEC",
"9X c #EAEFEE",
"0X c #F2F3EF",
"qX c #ECECF1",
"wX c #E5EBFC",
"eX c #F4F4F3",
"rX c #FEFDFD",
/* pixels */
"%X%X%X%X%X%X%X%X%X%X%X%X%X%X%X%X%X%X%X%X%X%X%X%X%X%X%X%X  e 9 q   %X%X%X%X%X%X%X%X%X%X%X%X%X%X%X%X%X%X%X%X%X%X%X%X%X%X%X%X%X%X%X",
"%X%X%X%X%X%X%X%X%X%X%X%X%X%X%X%X%X%X%X%X%X%X%X%X%X%X%X%Xp @.d.#.B %X%X%X%X%X%X%X%X%X%X%X%X%X%X%X%X%X%X%X%X%X%X%X%X%X%X%X%X%X%X%X",
"%X%X%X%X%X%X%X%X%X%X%X%X%X%X%X%X%X%X%X%X%X%X%X%X%X%X%X%X+.K.F.F.{ %X%X%X%X%X%X%X%X%X%X%X%X%X%X%X%X%X%X%X%X%X%X%X%X%X%X%X%X%X%X%X",
"%X%X%X%X%X%X%X%X%X%X%X%X%X%X%X%X%X%X%X%X%X%X%X%X%X%X%X%XB s.Z.=./ %X%X%X%X%X%X%X%X%X%X%X%X%X%X%X%X%X%X%X%X%X%X%X%X%X%X%X%X%X%X%X",
"%X%X%X%X%X%X%X%X%X%X%X%X%X%X%X%X%X%X%X%X%X%X%X%X%X%X%Xj k b C M e g %X%X%X%X%X%X%X%X%X%X%X%X%X%X%X%X%X%X%X%X%X%X%X%X%X%X%X%X%X%X",
"%X%X%X%X%X%X%X%X%X%X%X%X.         X = q e v w w w 0 h e k N N g N h 0 q 0 e g e w 9 0 s = %X%X%X%X%X%X%X%X%X%X%X%X%X%X%X%X%X%X%X",
"%X%X%X%X%X%X%X%X%X%X%X%X6 f A B k N S Z n b b N b J m k N Z k N H g A B h N N M A N N Z Z m m B 6 %X%X%X%X%X%X%X%X%X%X%X%X%X%X%X",
"%X%X%X%X%X%X%X%X%X%X%X%Xs Z P D U A D D D D D D C L K R I S S D C I D S L D D D B D D Z S D D N s %X%X%X%X%X%X%X%X%X%X%X%X%X%X%X",
"%X%X%X%X%X%X%X%X%Xd B N N Z N B Z A A N A A N B A D Z Z D A B A Z A Z Z Z N N Z Z N Z D N N D N Z k K N s %X%X%X%X%X%X%X%X%X%X%X",
"%X%X%X%X%X%X%X%X7 m P D C S P Z P Z K P D Z ) K D Z D D Z D C D D D Z D D D D D D D D D D P P D D D P g 0 %X%X%X%X%X%X%X%X%X%X%X",
"%X%X%X%X%X%Xu A Z J Z b V N Z Z k C N k k k N N Z Z N N D N Z N N N N Z N N N t N N N N k Z q Z N N Z C N f j %X%X%X%X%X%X%X%X%X",
"%X%X%X%Xu h D P z b N N e N Z B A e A N N D N N N k A N e B m A N N k N m N N B A M m N D A D N B g Z q Z ` N s y %X%X%X%X%X%X%X",
"%X%X%X%XM Z N ) z N l 6 u j 7 * 5 d 6 6 d 6 6 d 5 = j s z j 5 6 5 7 7 7 7 5 d i * u 6 j * 7 u 6 i 6 k Z S D k Z B %X%X%X%X%X%X%X",
"%X%X%X%XA P t ) J A *   &.I.O.$ > =.] o I.. O I.* } O.x '.R u : i : p & x : K.d.[ . < =.< + P.- K.@ 5 K N ) k I N %X%X%X%X%X%X%X",
"%X%X%X%XM L t ~ J A =   :.I.| O I.- `.- `.o o {.p '.X { |.} i a x a { a X.$ {.:.%.o  XO {.O O.&.} @ 8 D k U N N m %X%X%X%X%X%X%X",
"%X%X%X%Xg S S Y N C &   >.$..   %. .>.O |.[ O {.y d.x X.}.{ @ { x { p o.y # {.*...O *.| ;.+ L.4 G.# * B B 1.N z A %X%X%X%X%X%X%X",
"%X%X%X%XM D m _ S t u # x : # # # { $ # o.o.= { % 6 R : #.x % % % % # % % % X.O.$ @ & X.# & X.: ! 5 8 D Z G N V l %X%X%X%X%X%X%X",
"%X%X%X%Xs h Z D N k B l k B g g m Z N N N m m Z A m B r e B l k t V N k N m N q N Z N g N B e B f N k N M ` Z k u %X%X%X%X%X%X%X",
"%X%X%X%X%X%XN ` D D m A K K Z D D Z Z N S N Z N m B Z L Z A N D L Z b D N D N S N Z N C k V Z J B A e D P U g 8 %X%X%X%X%X%X%X%X",
"%X%X%X%X%X%XN Q P _ m v _ N f.A.R.R.~.E.~.E./.E./.R.D.8._ D N Q U D s.R.E.T./.R.~.~.R.E./.S.D.a.P Z k P P ` M %X%X%X%X%X%X%X%X%X",
"%X%X%X%X%X%XA D / / Z N ) s @X).*.;.8X<.*.:.7X*.=.P.6Xv.S m B Q U s @X{.&.&.7XL.&.>.8X>.&.J.6Xv.P S Z _ D ) B %X%X%X%X%X%X%X%X%X",
"%X%X%X%X%X%XB ( ) D N Z U g $X=.> , <X .> ] 3XT , ..6Xn.S K B P P q +X>., , ;X| < 1 1X4 <  .6XN./ Z g _ ) D f %X%X%X%X%X%X%X%X%X",
"%X%X%X%X%X%XB P P _ N Z P g $X;., 3 1X[ < [ 7X1 , ..6Xm./ A e _ ( k @XG.; < ,X .; ] <X] < | 6XN.P D N I Q _ M %X%X%X%X%X%X%X%X%X",
"%X%X%X%X%X%XB / Y ) N Z / q #X:.4 ] <X .1 | 7X] 1 &.6Xz./ Z k / ) 0 +XG.2 1 ,X%.1 } 7X[ T ..6XC.P A A Y Q ( M %X%X%X%X%X%X%X%X%X",
"%X%X%X%X%X%XN ) _ D N N _ 0 *X,X X.X0X|.`.].eX|.#X;X6XB.U Z k Y P s +X,X X|.eX|.`.Y.0X&X#X=X6XV.G Z N U ) ( N %X%X%X%X%X%X%X%X%X",
"%X%X%X%X%X%XN ) P ) k Z _ k $X|.H.H.8X .1 [ 8XI.L.`.4Xb.P D N Y _ 0 +X#XH.L.8X%.a } 8XQ.L.`.wXb.G Z N U ) ( N %X%X%X%X%X%X%X%X%X",
"%X%X%X%X%X%XN ) P ) Z Z P g #X].H.F.7X} < [ 7XH.H.Y.6Xb.P Z k ) Y g +X XH.F.7X ., [ 5XP.H.U.3XC.G Z N U ) ( N %X%X%X%X%X%X%X%X%X",
"%X%X%X%X%X%XN ) / P Z N _ q #X|.H.H.qX} < T qXL.H.`.6Xn.U Z k ) P q +X X<.F.7X| ; 4 8XJ.J.U.wXm.U Z N U ) ( N %X%X%X%X%X%X%X%X%X",
"%X%X%X%X%X%XN ) / P A Z _ k @X=X].].0X,.:.>.0X|.[.=X4Xc.Y Z N P ) h OX>X'.}.qXP.*.:.qX#X[.#XwXM.U Z N U ) ( N %X%X%X%X%X%X%X%X%X",
"%X%X%X%X%X%XN ) P ) N Z P B f.T.R.R.R.S.R.R.^.S.T.E.D.8.Y N N P I A s.R.E.T./.R.R.T.~.W.S.E.f.a.U Z N U ) ( N %X%X%X%X%X%X%X%X%X",
"%X%X%X%X%X%XN ) ) P e A ) D N h N N N G g g Z B l f e E Y N N ( _ D B k g N m B Z B M k Z N k J ) Z N U ) ( N %X%X%X%X%X%X%X%X%X",
"%X%X%X%X%X%XN ) ) P Z N P Z v ' ' +.' ` r.' ' ' ` r.5.0.U k N I D N k D Z K Z D Z N D V Z K ~ i.) Z N U P ( N %X%X%X%X%X%X%X%X%X",
"%X%X%X%X%X%XN ) ( U k Z Q N A &X-XqX=X=X8X=X7X:X9X:X7.C.I Z S U ) m K / ) ) U U ^ K 2.I ) K w.V.G Z N U ) ( N %X%X%X%X%X%X%X%X%X",
"%X%X%X%X%X%XN ) ) P N N ) N m :X8X8X<X<X8X3XrX5XrX>Xt.n.D N t @.@.k Z D ) ~ C f.).A.! ) ) P 0.v.G Z N U ) ( N %X%X%X%X%X%X%X%X%X",
"%X%X%X%X%X%XN ) / P Z m _ Z B >XrXrX=X0X-XrXrXrXrX2XS.x.) D N @.#.k Z _ P ~ (.+X(.}.+X^ U I 8.V.G Z N U ) ( N %X%X%X%X%X%X%X%X%X",
"%X%X%X%X%X%XN ) ) ) N Z U g B *XrX-X=XeX=X=X0X-XrX8XS.b._ v N s.r.f Z I _ G E.OX_.}.).! U ) 8.C.G Z N U ) ( N %X%X%X%X%X%X%X%X%X",
"%X%X%X%X%X%XN ) / P N A ~ k N >X<X8XqX-XeXrX,X8X<X3X7.C.L V k #.t.N Z / ) G ^ d.W.f.! Y _ ~ 7.V.G Z N U ) ( N %X%X%X%X%X%X%X%X%X",
"%X%X%X%X%X%XN ) / P A N ) C m *XXX7X-X7XrX=X<X=X9X3X7.C.P V Z ` ' N N ) D D G D ~ C U I P C 6.V.G Z N U ) ( N %X%X%X%X%X%X%X%X%X",
"%X%X%X%X%X%XN ) ) ) A m Q b J !.(.(._.oXoX_.OX_.oXW.0.m.` N n Y ~ e D _ 4._ ( _ I ( / _ / ) e.n.G Z N U ) ( N %X%X%X%X%X%X%X%X%X",
"%X%X%X%X%X%XN ) Q ) N D / Z u.p.k.k.k.g.c.j.j.j.l.h.c.z.D D b ~ Q S 9.v.h.k.j.g.c.c.j.j.k.l.l.b.G Z N U ) ( N %X%X%X%X%X%X%X%X%X",
"%X%X%X%X%X%XN ) P ) N N ` P P ) ) ) ) ) ) ) ) ) _ Q Q I ~ N A U ) P P ) P ) ) ) ) ) ) Y _ ) D P U Z N U ) ( N %X%X%X%X%X%X%X%X%X",
"%X%X%X%X%X%XN ) ) ) N m G N N Z N N N N N N N N Z N S 5.D N N P D N N Z Z N Z N Z N t N Z N S 4.G Z N U ) ( N %X%X%X%X%X%X%X%X%X",
"%X%X%X%X%X%XN ) P P N N ) Z D ) P P P P P P P P U ) 6.k.) D N ) ) Z Z P P P P P Y D D P U P 7.n.U S N U ) ( N %X%X%X%X%X%X%X%X%X",
"%X%X%X%X%X%XN ) ) ) N Z ) N Z ) P P P P P P P P U / 7.M.P Z k ) P N N P ) P ) ) U P D ) ) P 9.V.U Z N U ) ( N %X%X%X%X%X%X%X%X%X",
"%X%X%X%X%X%XN ) ) ) N Z ) N Z P ) ) ) ) ) ) / ) ) P 9.V.I Z Z ) ) Z Z ) ) ) ) ) U ) / _ U P q.C.U Z N U ) ( N %X%X%X%X%X%X%X%X%X",
"%X%X%X%X%X%XN ) P P N Z ) N D _ ) ) ) ) ) ) ) ) ) P 9.N.L N N P P N N P ) P P P U ) / P U P q.V.U Z N U ) ( N %X%X%X%X%X%X%X%X%X",
"%X%X%X%X%X%XN ) P ) N N G N Z P ) ) ) ) ) ) ) ) U P 9.N./ Z Z _ ) Z Z ) ) ) ) _ ) ) U Y U Q q.V.U Z N U ) ( N %X%X%X%X%X%X%X%X%X",
"%X%X%X%X%X%XN ) P ) N N ) Z D ) ) ) ) ) ) ) ) ) U / 8.N.D Z N Y D Z Z P P P U P ) P P _ ) D 9.N.U Z N U ) ( N %X%X%X%X%X%X%X%X%X",
"%X%X%X%X%X%XN ) ) P N B ` Z Z L P P P P P P P P P D 9.M.L Z B U ~ k Z P / L P / P / P L K P q.N.) Z N U ) / N %X%X%X%X%X%X%X%X%X",
"%X%X%X%X%X%XN ) U ) Z Z D Z _ i.a.a.a.a.a.a.a.a.a.a.h.m._ m N ) I J 5.i.a.a.a.a.u.a.a.a.a.i.h.V.U Z N U ) ( N %X%X%X%X%X%X%X%X%X",
"%X%X%X%X%X%XN ) P ) N N ) D _ t.i.i.i.i.i.i.i.i.y.i.q.w.) Z N ) _ I 5.y.i.i.y.e.q.i.e.y.i.t.9.w.U Z N U ) ( N %X%X%X%X%X%X%X%X%X",
"%X%X%X%X%X%XN ) ) P N N ) D Z Z N N N N N N N N N N b I D B N P Q N N Z N N N N N Z N Z N k k L U Z N U ) ( N %X%X%X%X%X%X%X%X%X",
"%X%X%X%X%X%XN ) P ) N N G N Z Z D D D D D D D D D C / a.~ C N _ ) Z Z D D D D S D D S K A D _ a.U Z N U ) ( N %X%X%X%X%X%X%X%X%X",
"%X%X%X%X%X%XN ) P ) Z N G N A ) ) ) ) ) ) ) ) ) 2.I 9.N.P N N ) P N Z P ) _ U P ) ) ) _ Y P q.N.U Z N U ) ( N %X%X%X%X%X%X%X%X%X",
"%X%X%X%X%X%XN ) ) P N Z ) Z A U U U U U U U U U 2.I 8.V.I Z Z ) ) N Z D ) ) P ) U ~ Q ) U D 9.N.U Z N U ) ( N %X%X%X%X%X%X%X%X%X",
"%X%X%X%X%X%XN ) ) P N N U N A ) ) ) ) ) ) ) ) ) G D 7.M.L Z N P ) N D ) ) U P _ Y U P U ) P q.V.U Z N U ) ( N %X%X%X%X%X%X%X%X%X",
"%X%X%X%X%X%XZ / Q ) Z N ) N C ) ) ) ) ) ) ) ) ) Y L 6.M.P Z N ~ _ v Z / P _ _ I P _ Y U ) P q.V./ C A _ Q I A %X%X%X%X%X%X%X%X%X",
"%X%X%X%X%X%XM ) / / N N _ N S P / / / / / / / / _ I 9.N.P Z N ~ U Z B ) ` P D ` Q / / ) / P 8.n.P Z Z _ W ( B %X%X%X%X%X%X%X%X%X",
"%X%X%X%X%X%XB I _ U m N ) N P ( P P P P P P P P D P 9.n.P Z Z P P N A P Y P D G U U U U U I q.N.I D Z _ Q ) l %X%X%X%X%X%X%X%X%X",
"%X%X%X%X%X%XB ) U ) B C ~ g D Y _ _ _ _ _ _ _ _ ` 6.a.v.L Z N I ) N D _ _ 4.6./ 4.4.3._ _ 3.e.n.) B N G ~ D f %X%X%X%X%X%X%X%X%X",
"%X%X%X%X%X6 k / Y U m N D D y.x.j.j.j.j.j.j.j.j.l.z.z.l.I N N U ( n 6.x.c.h.h.g.g.h.x.x.h.g.h.b.) Z Z Y _ I K 7 %X%X%X%X%X%X%X%X",
"%X%X%X%Xs K J I P P N V Q S / ( U U U U U U U U W Q P W S k B U D D ) P L I I _ I U ) U U Y I L D N b D P L S b y %X%X%X%X%X%X%X",
"%X%X%X%Xl g s f m m e w m m w v e e e e e e e e m g g 8 K e q e c v m g g M g w m e e e e m g e m g e m m m m e y %X%X%X%X%X%X%X",
"%X%X%X%X%X%X%X%X%X%X%X%X%X%X%X%X%X%X%X%X%X%X%X%X%X%X%X%X%X%X%X%X%X%X%X%X%X%X%X%X%X%X%X%X%X%X%X%X%X%X%X%X%X%X%X%X%X%X%X%X%X%X%X%X"
};
