/* XPM */
static char *result[] = {
/* columns rows colors chars-per-pixel */
"64 64 142 2 ",
"   c black",
".  c #010101",
"X  c #020202",
"o  c #030202",
"O  c gray1",
"+  c #070707",
"@  c gray3",
"#  c gray4",
"$  c #0D0D0C",
"%  c #0E0E0E",
"&  c #0F0F0E",
"*  c gray6",
"=  c #101010",
"-  c #111111",
";  c gray7",
":  c #131313",
">  c #141313",
",  c #151515",
"<  c #161616",
"1  c #181818",
"2  c #191818",
"3  c #191919",
"4  c gray10",
"5  c gray11",
"6  c #1D1C1C",
"7  c #202020",
"8  c #212020",
"9  c gray13",
"0  c #222222",
"q  c #232323",
"w  c #252525",
"e  c gray15",
"r  c #282828",
"t  c #292828",
"y  c #2A2A2A",
"u  c #2C2C2C",
"i  c gray19",
"p  c gray20",
"a  c #363535",
"s  c #383837",
"d  c gray23",
"f  c #3E3E3E",
"g  c gray25",
"h  c #414141",
"j  c #434343",
"k  c #464645",
"l  c #4B4B4B",
"z  c #4C4C4C",
"x  c gray30",
"c  c #4E4D4D",
"v  c #4E4E4E",
"b  c #4F4E4E",
"n  c #4F4F4E",
"m  c gray31",
"M  c #505050",
"N  c #515050",
"B  c #515151",
"V  c gray32",
"C  c #545453",
"Z  c #565656",
"A  c gray34",
"S  c #585858",
"D  c #5A5A5A",
"F  c gray36",
"G  c #5F5F5F",
"H  c #606060",
"J  c gray38",
"K  c #626262",
"L  c gray39",
"P  c #646463",
"I  c #646464",
"U  c #656565",
"Y  c #666665",
"T  c gray40",
"R  c #676767",
"E  c #686867",
"W  c #686868",
"Q  c #696968",
"!  c DimGray",
"~  c gray42",
"^  c #6C6C6C",
"/  c #6D6D6D",
"(  c gray43",
")  c #6F6F6F",
"_  c #6F7070",
"`  c gray44",
"'  c #727272",
"]  c #727373",
"[  c gray45",
"{  c #747474",
"}  c #747575",
"|  c #767676",
" . c gray47",
".. c #7C7C7C",
"X. c #848484",
"o. c #8B8B8B",
"O. c #8C8D8C",
"+. c #8D8D8D",
"@. c #8E8E8E",
"#. c gray57",
"$. c #929292",
"%. c #939393",
"&. c #959595",
"*. c gray59",
"=. c #989999",
"-. c #9C9C9B",
";. c gray61",
":. c #9D9D9D",
">. c gray62",
",. c #9F9F9F",
"<. c gray63",
"1. c #A2A2A2",
"2. c #A4A4A4",
"3. c #A5A5A5",
"4. c #A6A5A5",
"5. c gray65",
"6. c #A7A7A6",
"7. c #A7A7A7",
"8. c #AAAAAA",
"9. c gray67",
"0. c #ACACAC",
"q. c gray68",
"w. c #ADAEAD",
"e. c #AEAEAE",
"r. c #AEAFAF",
"t. c #AFAFAF",
"y. c #AFB0B0",
"u. c gray69",
"i. c #B1B1B1",
"p. c #B2B2B2",
"a. c gray70",
"s. c #B4B4B4",
"d. c gray71",
"f. c #B4B6B6",
"g. c #B4B6B7",
"h. c #B6B6B6",
"j. c #B7B7B7",
"k. c gray72",
"l. c #B9B9B9",
"z. c gray73",
"x. c #BBBBBB",
"c. c None",
/* pixels */
"c.c.c.c.c.c.c.c.c.c.c.c.c.c.c.c.c.c.c.c.c.c.c.c.c.c.c.c.c.c.c.c.c.c.c.c.c.c.c.c.c.c.c.c.c.c.c.c.c.c.c.c.c.c.c.c.c.c.c.c.c.c.c.c.",
"c.c.c.c.c.c.c.c.c.c.c.c.c.c.c.c.c.c.c.c.c.c.c.c.c.c.c.c.c.c.c.c.c.c.c.c.c.c.c.c.c.c.c.c.c.c.c.c.c.c.c.c.c.c.c.c.c.c.c.c.c.c.c.c.",
"c.c.c.c.c.c.c.c.c.c.c.c.c.c.c.c.c.c.c.c.c.c.c.c.c.c.c.c.c.c.c.c.c.c.c.c.c.c.c.c.c.c.c.c.c.c.c.c.c.c.c.c.c.c.c.c.c.c.c.c.c.c.c.c.",
"c.c.c.c.c.c.c.c.c.c.c.c.c.c.c.c.c.c.c.c.c.c.c.c.c.c.c.c.c.c.c.c.c.c.c.c.c.c.c.c.c.c.c.c.c.c.c.c.c.c.c.c.c.c.c.c.c.c.c.c.c.c.c.c.",
"c.c.c.c.c.c.c.c.c.c.c.c.c.c.c.c.c.c.c.c.c.c.c.c.c.c.c.c.c.c.c.c.c.c.c.c.c.c.c.c.c.c.c.c.c.c.c.c.c.c.c.c.c.c.c.c.c.c.c.c.c.c.c.c.",
"c.c.c.c.c.c.c.c.c.c.c.c.c.c.c.c.c.c.c.c.c.c.c.c.c.c.c.c.c.c.c.c.c.c.c.c.c.c.c.c.c.c.c.c.c.c.c.c.c.c.c.c.c.c.c.c.c.c.c.c.c.c.c.c.",
"c.c.c.c.c.c.c.c.c.c.c.c.c.c.c.c.c.c.c.c.c.c.c.c.c.c.c.c.c.c.c.c.c.c.c.c.c.c.c.c.c.c.c.c.c.c.c.c.c.c.c.c.c.c.c.c.c.c.c.c.c.c.c.c.",
"c.c.c.c.c.c.c.c.c.c.c.c.c.c.c.c.c.c.c.c.c.c.c.c.c.c.c.c.c.c.c.c.c.c.c.c.c.c.c.c.c.c.c.c.c.c.c.c.c.c.c.c.c.c.c.c.c.c.c.c.c.c.c.c.",
"c.c.c.c.c.c.c.c.c.c.c.c.c.c.c.c.c.c.t.2.( J ] s.j.j.h.x.$.L L +.p.q.c.c.c.c.c.c.c.c.c.c.c.c.c.c.c.c.c.c.c.c.c.c.c.c.c.c.c.c.c.c.",
"c.c.c.c.c.c.c.c.c.c.c.c.c.c.c.c.c.q.e.3.( J { f.j.j.j.z.#.L L +.i.q.c.c.c.c.c.c.c.c.c.c.c.c.c.c.c.c.c.c.c.c.c.c.c.c.c.c.c.c.c.c.",
"c.c.c.c.c.c.c.c.c.c.c.c.c.c.c.c.c.q.t.3./ J { g.j.k.j.z.#.L L +.i.q.e.c.c.c.c.c.c.c.c.c.c.c.c.c.c.c.c.c.c.c.c.c.c.c.c.c.c.c.c.c.",
"c.c.c.c.c.c.c.c.c.c.c.c.c.c.q.e.e.q.e.3./ J { g.j.k.j.z.#.L L +.u.q.e.e.e.c.c.c.c.c.c.c.c.c.c.c.c.c.c.c.c.c.c.c.c.c.c.c.c.c.c.c.",
"c.c.c.c.c.c.c.c.c.c.c.c.c.c.e.e.e.q.e.3./ J { g.j.k.j.z.#.L L +.u.q.e.e.e.c.c.c.c.c.c.c.c.c.c.c.c.c.c.c.c.c.c.c.c.c.c.c.c.c.c.c.",
"c.c.c.c.c.c.c.c.c.c.c.t.e.e.q.q.q.q.e.3./ J { g.j.k.j.z.#.L L +.u.0.q.q.q.e.e.t.c.c.c.c.c.c.c.c.c.c.c.c.c.c.c.c.c.c.c.c.c.c.c.c.",
"c.c.c.c.c.c.c.c.c.c.c.u.t.t.t.t.t.t.u.5.( J { g.j.k.j.z.#.L L @.p.e.t.t.t.t.t.t.c.c.c.c.c.c.c.c.c.c.c.c.c.c.c.c.c.c.c.c.c.c.c.c.",
"c.c.c.c.c.c.c.c.c.c.c.h.h.h.j.j.j.j.j.w.) K } g.j.j.j.z.$.L L %.z.h.j.j.j.j.h.d.c.c.c.c.c.c.c.c.c.c.c.c.c.c.c.c.c.c.c.c.c.c.c.c.",
"c.c.c.c.c.c.c.c.c.c.c.9.t.t.y.y.y.y.t.6.( K { d.h.h.d.l.#.L L @.a.t.y.y.y.t.r.r.c.c.c.c.c.c.c.c.c.c.c.c.c.c.c.c.c.c.c.c.c.c.c.c.",
"c.c.c.c.c.c.c.c.c.U T ^ ) ) ) ) ) ) ` ) T L [ q.e.e.e.i.O.L U ~ ` ) ) ) ) ) _ ( W U T c.c.c.c.c.c.c.c.c.c.c.c.c.c.c.c.c.c.c.c.c.",
"c.c.c.c.c.c.c.c.c.T T T T T T T T T T U U I ' 9.9.9.9.e.o.P U U T T T T T T T Y T T R c.c.c.c.c.c.c.c.c.c.c.c.c.c.c.c.c.c.c.c.c.",
"c.c.c.c.c.c.c.c.c.-.;.;.;.;.;.;.;.;.:.*.^ L W | | | | | ( U I X.,.-.;.;.;.;.;.;.;.:.:.c.c.c.c.c.c.c.c.c.c.c.c.c.c.c.c.c.c.c.c.c.",
"c.c.c.c.c.c.c.c.c.e.e.e.e.e.e.e.e.e.t.5./ K I L L L L L I I K +.i.e.e.e.e.e.e.e.e.e.t.c.c.c.c.c.c.c.c.c.c.c.c.c.c.c.c.c.c.c.c.c.",
"c.c.c.c.c.c.c.c.c.q.q.q.q.q.q.q.q.q.q.8.&.#.$.%.%.%.%.%.$.$.#.<.e.q.q.q.q.q.q.q.q.q.e.c.c.c.c.c.c.c.c.c.c.c.c.c.c.c.c.c.c.c.c.c.",
"c.c.c.c.c.c.c.c.c.q.e.e.e.e.e.e.e.q.q.q.e.t.t.t.t.t.t.t.t.t.t.e.q.q.e.e.e.e.e.e.e.q.e.c.c.c.c.c.c.c.c.c.c.c.c.c.c.c.c.c.c.c.c.c.",
"c.c.c.c.c.c.c.c.c.q.e.e.e.e.e.e.e.e.q.q.q.q.q.q.q.q.q.q.q.q.q.q.e.q.e.e.e.e.e.e.e.q.e.c.c.c.c.c.c.c.c.c.c.c.c.c.c.c.c.c.c.c.c.c.",
"c.c.c.c.c.c.c.c.c.q.e.e.e.e.e.e.e.e.e.e.e.e.e.e.e.e.e.e.e.e.e.e.e.e.e.e.e.e.e.e.e.q.e.c.c.c.c.c.c.c.c.c.c.c.c.c.c.c.c.c.c.c.c.c.",
"c.c.c.c.c.c.c.c.c.q.q.q.q.q.q.q.q.q.e.e.e.e.e.e.e.e.e.e.e.e.e.e.q.e.q.q.q.q.q.q.q.q.e.c.c.c.c.c.c.c.c.c.c.c.c.c.c.c.c.c.c.c.c.c.",
"c.c.c.c.c.c.c.c.c.t.t.e.e.e.e.e.e.q.q.q.e.e.e.e.e.e.e.e.e.e.e.e.q.q.e.e.e.e.e.e.e.e.t.c.c.c.c.c.c.c.c.c.c.c.c.c.c.c.c.c.c.c.c.c.",
"c.c.c.c.c.c.c.c.c.,.>.,.,.,.,.>.,.8.e.q.e.e.e.e.e.e.e.e.e.e.e.e.q.q.1.>.,.,.,.,.,.>.:.c.c.c.c.c.c.c.c.c.c.c.c.c.c.c.c.c.c.c.c.c.",
"c.c.c.c.c.c.c.c.c.R W W W W W R ^ ,.t.q.e.e.e.e.e.e.e.e.e.e.e.e.0.e...U ! W W W W R R c.c.c.c.c.c.c.c.c.c.c.c.c.c.c.c.c.c.c.c.c.",
"c.c.c.c.c.c.c.c.c.U U U U U U I ! =.7.4.5.5.5.5.5.5.5.5.5.5.5.5.3.7. .L T U U U U U U c.c.c.c.c.c.c.c.c.c.c.c.c.c.c.c.c.c.c.c.c.",
"c.c.c.c.c.c.c.c.c.c.c.U U U T T T ~ / / / / / / / / / / / / / / / / R U T U U T c.c.c.c.c.c.c.c.c.c.c.c.c.c.c.c.c.c.c.c.c.c.c.c.",
"c.c.c.c.c.c.c.c.c.c.c.T U U L K K L I I I I I I I I I I I I I I I I L K K U U U c.c.c.c.c.c.c.c.c.c.c.c.c.c.c.c.c.c.c.c.c.c.c.c.",
"c.c.c.c.c.c.c.c.c.c.c.c.c.c.7 3 8 C T U U U U U U U U U U U U U I U i 4 4 c.c.c.c.c.c.c.c.c.c.c.c.c.c.c.c.c.c.c.c.c.c.c.c.c.c.c.",
"c.c.c.c.c.c.c.c.c.c.c.c.c.c.    @ N Q T T T T T T T T T T T T T U E 7     c.c.c.c.c.c.c.c.c.c.c.c.c.c.c.c.c.c.c.c.c.c.c.c.c.c.c.",
"c.c.c.c.c.c.c.c.c.c.c.c.v v *   o 6 e w w w w w w w w w w w w w w e $   . d m v c.c.c.c.c.c.c.c.c.c.c.c.c.c.c.c.c.c.c.c.c.c.c.c.",
"c.c.c.c.c.c.c.c.c.c.c.b v m <                                           X g m v c.c.c.c.c.c.c.c.c.c.c.c.c.c.c.c.c.c.c.c.c.c.c.c.",
"c.c.c.c.c.c.c.c.c.m n v v m <                                           X g m v m m c.c.c.c.c.c.c.c.c.c.c.c.c.c.c.c.c.c.c.c.c.c.",
"c.c.c.c.c.c.c.c.c.v v m M B <                                           X j B M m v v c.c.c.c.c.c.c.c.c.c.c.c.c.c.c.c.c.c.c.c.c.",
"c.c.c.c.c.c.c.c.c.v m f p p %                                           . y p s l m v c.c.c.c.c.c.c.c.c.c.c.c.c.c.c.c.c.c.c.c.c.",
"c.c.c.c.c.c.c.c.c.c B q O X                                               X X & k m v c.c.c.c.c.c.c.c.c.c.c.c.c.c.c.c.c.c.c.c.c.",
"c.c.c.c.c.c.c.c.c.v M 5                                                       # h m v c.c.c.c.c.c.c.c.c.c.c.c.c.c.c.c.c.c.c.c.c.",
"c.c.c.c.c.c.c.c.c.c.c..                                                         c.c.c.c.c.c.c.c.c.c.c.c.c.c.c.c.c.c.c.c.c.c.c.c.",
"c.c.c.c.c.c.c.c.c.c.c.                                                          c.c.c.c.c.c.c.c.c.c.c.c.c.c.c.c.c.c.c.c.c.c.c.c.",
"c.c.c.c.c.c.c.c.c.c.c.                                                          c.c.c.c.c.c.c.c.c.c.c.c.c.c.c.c.c.c.c.c.c.c.c.c.",
"c.c.c.c.c.c.c.c.c.c.c.                                                          c.c.c.c.c.c.c.c.c.c.c.c.c.c.c.c.c.c.c.c.c.c.c.c.",
"c.c.c.c.c.c.c.c.c.c.c.                                                          c.c.c.c.c.c.c.c.c.c.c.c.c.c.c.c.c.c.c.c.c.c.c.c.",
"c.c.c.c.c.c.c.c.c.c.c.                                                          c.c.c.c.c.c.c.c.c.c.c.c.c.c.c.c.c.c.c.c.c.c.c.c.",
"c.c.c.c.c.c.c.c.c.c.c.                                                          c.c.c.c.c.c.c.c.c.c.c.c.c.c.c.c.c.c.c.c.c.c.c.c.",
"c.c.c.c.c.c.c.c.c.c.c.                                                          c.c.c.c.c.c.c.c.c.c.c.c.c.c.c.c.c.c.c.c.c.c.c.c.",
"c.c.c.c.c.c.c.c.c.c.c.                                                          c.c.c.c.c.c.c.c.c.c.c.c.c.c.c.c.c.c.c.c.c.c.c.c.",
"c.c.c.c.c.c.c.c.c.c.c.                                                          c.c.c.c.c.c.c.c.c.c.c.c.c.c.c.c.c.c.c.c.c.c.c.c.",
"c.c.c.c.c.c.c.c.c.c.c.                + w u r 0 9 9 9 0 =                       c.c.c.c.c.c.c.c.c.c.c.c.c.c.c.c.c.c.c.c.c.c.c.c.",
"c.c.c.c.c.c.c.c.c.c.c.                - D ! J m v v v B t                       c.c.c.c.c.c.c.c.c.c.c.c.c.c.c.c.c.c.c.c.c.c.c.c.",
"c.c.c.c.c.c.c.c.c.c.c.c.        X % > 0 F R H m v v v M a 2 1 , : ; +         X c.c.c.c.c.c.c.c.c.c.c.c.c.c.c.c.c.c.c.c.c.c.c.c.",
"c.c.c.c.c.c.c.c.c.c.c.c.c.c.c.c.c.z x M L T J m m m m x S I I A z x c.c.c.c.c.c.c.c.c.c.c.c.c.c.c.c.c.c.c.c.c.c.c.c.c.c.c.c.c.c.",
"c.c.c.c.c.c.c.c.c.c.c.c.c.c.c.c.c.m v M H L G m v v b x S K K Z x v c.c.c.c.c.c.c.c.c.c.c.c.c.c.c.c.c.c.c.c.c.c.c.c.c.c.c.c.c.c.",
"c.c.c.c.c.c.c.c.c.c.c.c.c.c.c.c.c.m v v M M B c.c.c.c.c.V M M m c v c.c.c.c.c.c.c.c.c.c.c.c.c.c.c.c.c.c.c.c.c.c.c.c.c.c.c.c.c.c.",
"c.c.c.c.c.c.c.c.c.c.c.c.c.c.c.c.c.m v v v v v c.c.c.c.c.c.v v v v m c.c.c.c.c.c.c.c.c.c.c.c.c.c.c.c.c.c.c.c.c.c.c.c.c.c.c.c.c.c.",
"c.c.c.c.c.c.c.c.c.c.c.c.c.c.c.c.c.c.c.c.c.c.c.c.c.c.c.c.c.c.c.c.c.c.c.c.c.c.c.c.c.c.c.c.c.c.c.c.c.c.c.c.c.c.c.c.c.c.c.c.c.c.c.c.",
"c.c.c.c.c.c.c.c.c.c.c.c.c.c.c.c.c.c.c.c.c.c.c.c.c.c.c.c.c.c.c.c.c.c.c.c.c.c.c.c.c.c.c.c.c.c.c.c.c.c.c.c.c.c.c.c.c.c.c.c.c.c.c.c.",
"c.c.c.c.c.c.c.c.c.c.c.c.c.c.c.c.c.c.c.c.c.c.c.c.c.c.c.c.c.c.c.c.c.c.c.c.c.c.c.c.c.c.c.c.c.c.c.c.c.c.c.c.c.c.c.c.c.c.c.c.c.c.c.c.",
"c.c.c.c.c.c.c.c.c.c.c.c.c.c.c.c.c.c.c.c.c.c.c.c.c.c.c.c.c.c.c.c.c.c.c.c.c.c.c.c.c.c.c.c.c.c.c.c.c.c.c.c.c.c.c.c.c.c.c.c.c.c.c.c.",
"c.c.c.c.c.c.c.c.c.c.c.c.c.c.c.c.c.c.c.c.c.c.c.c.c.c.c.c.c.c.c.c.c.c.c.c.c.c.c.c.c.c.c.c.c.c.c.c.c.c.c.c.c.c.c.c.c.c.c.c.c.c.c.c.",
"c.c.c.c.c.c.c.c.c.c.c.c.c.c.c.c.c.c.c.c.c.c.c.c.c.c.c.c.c.c.c.c.c.c.c.c.c.c.c.c.c.c.c.c.c.c.c.c.c.c.c.c.c.c.c.c.c.c.c.c.c.c.c.c."
};
