/* XPM */
static char *result[] = {
/* columns rows colors chars-per-pixel */
"64 64 86 1 ",
"  c black",
". c #040303",
"X c #090606",
"o c #100C0B",
"O c #001013",
"+ c #011519",
"@ c gray9",
"# c #17191A",
"$ c #1F1E1E",
"% c gray14",
"& c #343334",
"* c gray21",
"= c #551400",
"- c #571500",
"; c #551702",
": c #541B03",
"> c #542410",
", c #542A18",
"< c #662301",
"1 c #7F3800",
"2 c #5C3828",
"3 c #403531",
"4 c #503C33",
"5 c #7E4C17",
"6 c #5D4737",
"7 c #504038",
"8 c #5F4D3E",
"9 c #765722",
"0 c #785A30",
"q c #384041",
"w c #3A5556",
"e c #317167",
"r c #434342",
"t c #4E4744",
"y c #4D4C4C",
"u c #4D4E4F",
"i c #4E4F4F",
"p c #504B49",
"a c #5C514C",
"s c #455A5B",
"d c gray32",
"f c gray36",
"g c #61514A",
"h c #64584D",
"j c #695C4F",
"k c #625D5A",
"l c #75604D",
"z c #686055",
"x c #5A5D60",
"c c #417468",
"v c #656565",
"b c #67696A",
"n c gray42",
"m c #767676",
"M c gray49",
"N c #823A00",
"B c #944B03",
"V c #9B4C00",
"C c #984E01",
"Z c #9C5002",
"A c #8D5319",
"S c #8C541B",
"D c #A28E7B",
"F c #AB957F",
"G c #007385",
"H c #037384",
"J c #158191",
"K c #1F8797",
"L c #258593",
"P c #248999",
"I c #848484",
"U c #898988",
"Y c #8E8E8E",
"T c #909191",
"R c gray58",
"E c #999898",
"W c #9E9E9D",
"Q c #8D9FA1",
"! c #86A1A6",
"~ c #9EA9AB",
"^ c #A6A7A7",
"/ c #AEAFAF",
"( c #AEB2B3",
") c gray71",
"_ c #B9BABA",
"` c #80C2DA",
/* pixels */
"````````````````````````````````````````````````````````````````",
"````````````````````````````````````````````````````````````````",
"````````````````````````````````````````````````````````````````",
"````````````````````````````````````````````````````````````````",
"````````````````````````````````````````````````````````````````",
"````````````````````````````````````````````````````````````````",
"````````````````````````````````````````````````````````````````",
"````````````````````````````````````````````````````````````````",
"````````````````````````````````````````````````````````````````",
"````````````````````````````````````````````````````````````````",
"````````````````````````````````````````````````````````````````",
"````````````````````````````````````````````````````````````````",
"````````````````````````````````````````````````````````````````",
"`````````````````````````````````_)___)___)___________``````````",
"`````````````````````````````````)))))__))__)____))))))`````````",
"``````````````````````````````)_)))/)////)//////YmmmmmY__)``````",
"`````````````````````````````))))///////////////IvnvvxI()/``````",
"```````````````````````````))//////////////(////^^^Ivvnmmm``````",
"```````````````````````````)))////////////////////)Uvvvvvv``````",
"```````````````````````````/)////////)////////////)Ukvvbvv``````",
"```````````````````````````////////////////////////Ynmnvvv``````",
"```````````````````````````)//))////////)///(///////^/Yvvvbvv```",
"``````````````````````````vIIIIIR//////WWWWWW^///////(Tvvvbvb```",
"```````````````````````    . .  %///)/^vvvbbvW(//////(Tvvvvbv```",
"```````````````````````      @&&f//^WERIMMIMMREE^/////Yvvbvnv```",
"```````````````````````      i////)Wnvn/_)))_MvvR////)Yvvvvvv```",
"```````````````````````trttrrm/////Wnvm/___)_MvvR/////Rbvvvvv```",
"```````````````````````/((())/////)Wvbn/___)_MkvR////)Yvvvvnv```",
"```````````````````````//(EIIIIIIIIMvvnRRR(_)MxvR)///)Rvvvnvn```",
"```````````````````````//)Mrutyyyytdvvvzkb^__MvvR/////Yvvvvvv```",
"```````````````````````MMMvyuuuuyyydvvnYRE/__MvvR/////Rvvnnvv```",
"```````````````````````ytyyuyyyyyyydvvn)___)_MkvR/////Rvvvvvv```",
"```````````````````````pyydffffffyydvvn^)/(/)MvvR//EMImvvv``````",
"```````````````````````dyyfbvbvvxyydvvn^/////mxvY//Yvvvvvv``````",
"```````````````````````kfxzbbvvvxuydvbn^/////Mvby**r````````````",
"```````````````````````vbbvvvvvvkuydkvn^/^/^/mkv$  `````````````",
"```````````````````````vvvbvvnvvxyuydddvvvxvvddd$   ````````````",
"```````````````````````bvvvvvvvvktyydyyyyyyyyyyd#   ````````````",
"`````````````````````````````dddt::,pduxvvvxvdpu#   ````````````",
"``````````````````````````````yy7:;>7rrfffkvvddd#   ````````````",
"``````````````````````````````yyytp3o..XXorddfxk%  $dy``````````",
"``````````````````````````````dddyu7%$@OO+qidkbb%  %dyi`````````",
"``````````````````````````````vvxurvW^~HGHwpuxbv%  %dyp`````````",
"``````````````````````````````vvx86z!!QPKLsppkvb%  %dyu`````````",
"``````````````````````````````vvlCV9eJJ~(~zuuxbv%  %dyy`````````",
"``````````````````````````````fvjSA0eecDFDg44kbv%  @dp``````````",
"``````````````````````````````yydvblABBCZB<-;gbv%   ````````````",
"``````````````````````````````yydxfh955NN1:-;gbb%   ````````````",
"`````````````````````````````````yyyyyy======abv%   ````````````",
"`````````````````````````````````yiyyyy222222aff&$$`````````````",
"````````````````````````````````````pypvvvvvbdtyydyy````````````",
"`````````````````````````````````iyyfffvvvfdffffdyyy````````````",
"`````````````````````````````````iydvbvvvvdyyfbvdypu````````````",
"```````````````````````````````````ddffdfdd``ffddyyu````````````",
"````````````````````````````````````yuyyyy```yyuypii````````````",
"````````````````````````````````````````````````````````````````",
"````````````````````````````````````````````````````````````````",
"````````````````````````````````````````````````````````````````",
"````````````````````````````````````````````````````````````````",
"````````````````````````````````````````````````````````````````",
"````````````````````````````````````````````````````````````````",
"````````````````````````````````````````````````````````````````",
"````````````````````````````````````````````````````````````````",
"````````````````````````````````````````````````````````````````"
};
