/* XPM */
static char *result[] = {
/* columns rows colors chars-per-pixel */
"64 64 101 2 ",
"   c #010101",
".  c #0B0B0B",
"X  c #131313",
"o  c #181717",
"O  c #181817",
"+  c #1B1B1B",
"@  c #230700",
"#  c #240A02",
"$  c #321A13",
"%  c #232222",
"&  c #2C2C2B",
"*  c #313131",
"=  c #3C3B3B",
"-  c #421703",
";  c #471A04",
":  c #551702",
">  c #561C02",
",  c #581D01",
"<  c #561D0C",
"1  c #581F0C",
"2  c #5A220E",
"3  c #49281B",
"4  c #542313",
"5  c #5C2611",
"6  c #5F2814",
"7  c #56291B",
"8  c #592E1D",
"9  c #7C3600",
"0  c #743D11",
"q  c #5D3322",
"w  c #5C3B2F",
"e  c #513A31",
"r  c #7F5023",
"t  c #795C3D",
"y  c #474746",
"u  c #4E4E4E",
"i  c #5E4A43",
"p  c #535353",
"a  c #5F5953",
"s  c #5C5C5C",
"d  c #624C42",
"f  c #725F4C",
"g  c #685A56",
"h  c #625E5D",
"j  c #7B624B",
"k  c #60605F",
"l  c #646464",
"z  c #646669",
"x  c #6B6B6B",
"c  c #756B68",
"v  c #747474",
"b  c #787877",
"n  c #777879",
"m  c #7B7B7B",
"M  c #873F00",
"N  c #9A4D01",
"B  c #9C5001",
"V  c #854B1B",
"C  c #8A5015",
"Z  c #8B5419",
"A  c #865624",
"S  c #845729",
"D  c #9D5D25",
"F  c #805931",
"G  c #89603B",
"H  c #836340",
"J  c #826E58",
"K  c #826F66",
"L  c #827168",
"P  c #867773",
"I  c #837B76",
"U  c #82817F",
"Y  c #7F7F80",
"T  c #838383",
"R  c #858788",
"E  c #878888",
"W  c #8B8C8B",
"Q  c #928885",
"!  c #9A8C86",
"~  c #938F8D",
"^  c #988D88",
"/  c #97908E",
"(  c #999189",
")  c #949494",
"_  c #999796",
"`  c #9D9D9D",
"'  c #A09E9E",
"]  c #A3A3A3",
"[  c #ADA8A3",
"{  c #A6A7A8",
"}  c #A7A9A9",
"|  c #ADADAD",
" . c #B2ACA6",
".. c #AFB0AF",
"X. c #B0B0AF",
"o. c #AEAFB0",
"O. c #AEB0B1",
"+. c #B3B3B3",
"@. c #B7B8B8",
"#. c #B8B8B8",
"$. c None",
/* pixels */
"$.$.$.$.$.$.$.$.$.$.$.$.$.$.$.$.$.$.$.$.$.$.$.$.$.$.$.$.$.$.$.$.$.$.$.$.$.$.$.$.$.$.$.$.$.$.$.$.$.$.$.$.$.$.$.$.$.$.$.$.$.$.$.$.",
"$.$.$.$.$.$.$.$.$.$.$.$.$.$.$.$.$.$.$.$.$.$.$.$.$.$.$.$.$.$.$.$.$.$.$.$.$.$.$.$.$.$.$.$.$.$.$.$.$.$.$.$.$.$.$.$.$.$.$.$.$.$.$.$.",
"$.$.$.$.$.$.$.$.$.$.$.$.$.$.$.$.$.$.$.$.$.$.$.$.$.$.$.$.$.$.$.$.$.$.$.$.$.$.$.$.$.$.$.$.$.$.$.$.$.$.$.$.$.$.$.$.$.$.$.$.$.$.$.$.",
"$.$.$.$.$.$.$.$.$.$.$.$.$.$.$.$.$.$.$.$.$.$.$.$.$.$.$.$.$.$.$.$.$.$.$.$.$.$.$.$.$.$.$.$.$.$.$.$.$.$.$.$.$.$.$.$.$.$.$.$.$.$.$.$.",
"$.$.$.$.$.$.$.$.$.$.$.$.$.$.$.$.$.$.$.$.$.$.$.$.$.$.$.$.$.$.$.$.$.$.$.$.$.$.$.$.$.$.$.$.$.$.$.$.$.$.$.$.$.$.$.$.$.$.$.$.$.$.$.$.",
"$.$.$.$.$.$.$.$.$.$.$.$.$.$.$.$.$.$.$.$.$.$.$.$.$.$.$.$.$.$.$.$.$.$.$.$.$.$.$.$.$.$.$.$.$.$.$.$.$.$.$.$.$.$.$.$.$.$.$.$.$.$.$.$.",
"$.$.$.$.$.$.$.$.$.$.$.$.$.$.$.$.$.$.$.$.$.$.$.$.$.$.$.$.$.$.$.$.$.$.$.$.$.$.$.$.$.$.$.$.$.$.$.$.$.$.$.$.$.$.$.$.$.$.$.$.$.$.$.$.",
"$.$.$.$.$.$.$.$.$.$.$.$.$.$.$.$.$.$.$.| +.` x k x o.@.@.@.@.#.b l l W +.| $.$.$.$.$.$.$.$.$.$.$.$.$.$.$.$.$.$.$.$.$.$.$.$.$.$.$.",
"$.$.$.$.$.$.$.$.$.$.$.$.$.$.$.$.$.$.$.| o.' x l x o.#.#.#.#.@.m l l W +.| | $.$.$.$.$.$.$.$.$.$.$.$.$.$.$.$.$.$.$.$.$.$.$.$.$.$.",
"$.$.$.$.$.$.$.$.$.$.$.$.$.$.$.$.| | | | | ] x k c X.+.@.#.@.@.m l l W +.| | | o.| $.$.$.$.$.$.$.$.$.$.$.$.$.$.$.$.$.$.$.$.$.$.$.",
"$.$.$.$.$.$.$.$.$.$.$.$.$.$.$.$.X.| X.| | ' x l x o.+.#.#.+.@.m l l W +.| | | | | $.$.$.$.$.$.$.$.$.$.$.$.$.$.$.$.$.$.$.$.$.$.$.",
"$.$.$.$.$.$.$.$.$.$.$.$.$.| | | o.| | | +.` x l x O.#.#.@.#.@.m l l W +.| o.| | o.| | X.$.$.$.$.$.$.$.$.$.$.$.$.$.$.$.$.$.$.$.$.",
"$.$.$.$.$.$.$.$.$.$.$.$.| | | | | o.| | o.` x l x O.@.@.@.@.@.m l l ~ O.o.| | | X.| | X.$.$.$.$.$.$.$.$.$.$.$.$.$.$.$.$.$.$.$.$.",
"$.$.$.$.$.$.$.$.$.$.$.$.+.| | | | | | | o.` x k x +.@.@.@.+.@.m l l W O.| | | | | | | X.$.$.$.$.$.$.$.$.$.$.$.$.$.$.$.$.$.$.$.$.",
"$.$.$.$.$.$.$.$.$.$.$.$.$.+.+.+.o.o.o.| o.' x l x o.@.@.@.@.#.m l l W +.| | +.+.+.+.+.@.$.$.$.$.$.$.$.$.$.$.$.$.$.$.$.$.$.$.$.$.",
"$.$.$.$.$.$.$.$.$.$.$.$.s b b b m b W o.o.` x l x o.+.+.@.+.#.b h l ~ O.O.) b m b b n l $.$.$.$.$.$.$.$.$.$.$.$.$.$.$.$.$.$.$.$.",
"$.$.$.$.$.$.$.$.$.        . . .   . * +.| ` x l x } X.| O.| | b l l / | #.p . . . . .         $.$.$.$.$.$.$.$.$.$.$.$.$.$.$.$.$.",
"$.$.$.$.$.$.$.$.$.o o O .           & ` ` W k p s ) ` _ _ ` ` x s s m ` ] u           . o O O $.$.$.$.$.$.$.$.$.$.$.$.$.$.$.$.$.",
"$.$.$.$.$.$.$.$.$.] ` ] u .         . . X . . . . X . X X X . .   . . X X .           * ` ` ` $.$.$.$.$.$.$.$.$.$.$.$.$.$.$.$.$.",
"$.$.$.$.$.$.$.$.$.| ] +.s . . . . . .                                     . . . . . . = | } | $.$.$.$.$.$.$.$.$.$.$.$.$.$.$.$.$.",
"$.$.$.$.$.$.$.$.$.l l l v T Y T T T s .                                   y E U T T T b l l l $.$.$.$.$.$.$.$.$.$.$.$.$.$.$.$.$.",
"$.$.$.$.$.$.$.$.$.u u u I @.X.X.| @.T .                                   s @.X.+.X.#.) u u u $.$.$.$.$.$.$.$.$.$.$.$.$.$.$.$.$.",
"$.$.$.$.$.$.$.$.$.u u u x E T ) | +.` l s l l l s .           u l s l s l T | | ' T W v p u u $.$.$.$.$.$.$.$.$.$.$.$.$.$.$.$.$.",
"$.$.$.$.$.$.$.$.$.u u u s z l T X.X.| +.+.+.| +.] X           T #.+.+.+.+.O.O.+.) l l s u u u $.$.$.$.$.$.$.$.$.$.$.$.$.$.$.$.$.",
"$.$.$.$.$.$.$.$.$.u p u s l l b _ ) ` | | | | X.' X           T +.| | | | ] ) _ T l z k u u u $.$.$.$.$.$.$.$.$.$.$.$.$.$.$.$.$.",
"$.$.$.$.$.$.$.$.$.u u u s l l l l l b | | X.| X.` X           T +.| X.X.+.E l l z l l k u u u $.$.$.$.$.$.$.$.$.$.$.$.$.$.$.$.$.",
"$.$.$.$.$.$.$.$.$.u u u p l s l l l v ] ] ] | X.` X         . m +.| } ] } T l l z k l s u u u $.$.$.$.$.$.$.$.$.$.$.$.$.$.$.$.$.",
"$.$.$.$.$.$.$.$.$.u u u u p u s l l x x x b { +.` X           T +.} E l c x l l s u u u u u u $.$.$.$.$.$.$.$.$.$.$.$.$.$.$.$.$.",
"$.$.$.$.$.$.$.$.$.u u u u u u p z l l l l v { +.` o           T +.| T h z l l x s u u u u u u $.$.$.$.$.$.$.$.$.$.$.$.$.$.$.$.$.",
"$.$.$.$.$.$.$.$.$.$.$.$.u u u s l l l z l v { +.` X           T +.| T l l l l l s u u u $.$.$.$.$.$.$.$.$.$.$.$.$.$.$.$.$.$.$.$.",
"$.$.$.$.$.$.$.$.$.$.$.$.u p u p x l l l l v ] +.` X           T +.| T l l l z l s u u u $.$.$.$.$.$.$.$.$.$.$.$.$.$.$.$.$.$.$.$.",
"$.$.$.$.$.$.$.$.$.$.$.$.$.$.$.p s a s l l v } +.` o           T +.| T l l s s s a $.$.$.$.$.$.$.$.$.$.$.$.$.$.$.$.$.$.$.$.$.$.$.",
"$.$.$.$.$.$.$.$.$.$.$.$.$.$.$.$.u u p z l v { +.` X           Y +.} T l l s u u u $.$.$.$.$.$.$.$.$.$.$.$.$.$.$.$.$.$.$.$.$.$.$.",
"$.$.$.$.$.$.$.$.$.$.$.$.$.$.$.u u u p l l v { +.' $ @ @ @ # # T +.| T l z s u u u $.$.$.$.$.$.$.$.$.$.$.$.$.$.$.$.$.$.$.$.$.$.$.",
"$.$.$.$.$.$.$.$.$.$.$.$.$.u u u u u p z k v } o.] 6 > > , , : Q +.o.T k l s u u u u u u $.$.$.$.$.$.$.$.$.$.$.$.$.$.$.$.$.$.$.$.",
"$.$.$.$.$.$.$.$.$.$.$.$.u u u p p u s x c b _ ` / 5 > , , , > P ` _ T c v s u u p u u u $.$.$.$.$.$.$.$.$.$.$.$.$.$.$.$.$.$.$.$.",
"$.$.$.$.$.$.$.$.$.$.p u u u u p l k b } } ( q 5 5 , , , > > , 2 5 4 K o.} T l l s u u u u u u $.$.$.$.$.$.$.$.$.$.$.$.$.$.$.$.$.",
"$.$.$.$.$.$.$.$.$.u u u u u u p l l b | +.( 8 1 2 2 2 2 5 2 2 2 1 4 L +.+.E l l s u u p u u u $.$.$.$.$.$.$.$.$.$.$.$.$.$.$.$.$.",
"$.$.$.$.$.$.$.$.$.u u u p l k l l k n | | } / ! ^ ^ ^ ^ ! ! ! ^ ^ ^ ' | o.W l l l k l s u u u $.$.$.$.$.$.$.$.$.$.$.$.$.$.$.$.$.",
"$.$.$.$.$.$.$.$.$.u u u s z l l x l n o.| | X.| X.X.+.X.+.o.+.O.o.o.| | +.W l l l l l k u u u $.$.$.$.$.$.$.$.$.$.$.$.$.$.$.$.$.",
"$.$.$.$.$.$.$.$.$.$.$.$.s x l f S S H T T W } X.} E T R T R T ' | | ) T E J S A t l x l $.$.$.$.$.$.$.$.$.$.$.$.$.$.$.$.$.$.$.$.",
"$.$.$.$.$.$.$.$.$.$.$.$.$.l z t N N Z l l v } +.} x k k k k k ` +.| T l z t N N A z l l $.$.$.$.$.$.$.$.$.$.$.$.$.$.$.$.$.$.$.$.",
"$.$.$.$.$.$.$.$.$.$.$.$.l l z t N N C d i g ~ _ ) m Y I I Y m ~ ) ) c i i r N N A z l l $.$.$.$.$.$.$.$.$.$.$.$.$.$.$.$.$.$.$.$.",
"$.$.$.$.$.$.$.$.$.$.$.$.l x z t N N M > : 7 h l x } | X.o.o.o.n l l w : : 9 B N A l l l $.$.$.$.$.$.$.$.$.$.$.$.$.$.$.$.$.$.$.$.",
"$.$.$.$.$.$.$.$.$.$.$.$.z l z j D D V ; - 3 l l x ] X.| | | X.b l l e - - 0 D D G l l l $.$.$.$.$.$.$.$.$.$.$.$.$.$.$.$.$.$.$.$.",
"$.$.$.$.$.$.$.$.$.$.$.$.l l l U {  .I X   + l l x { | | | | | b l l *     g [ [ / l x l $.$.$.$.$.$.$.$.$.$.$.$.$.$.$.$.$.$.$.$.",
"$.$.$.$.$.$.$.$.$.$.$.$.x l l m | @.Y .   o s l x { | X.| | | v l l &     s +.O.) l l l $.$.$.$.$.$.$.$.$.$.$.$.$.$.$.$.$.$.$.$.",
"$.$.$.$.$.$.$.$.$.$.$.$.x l l Y | +.I .   . o o % ` | } | | X.= o o .     s +.O.) l z l $.$.$.$.$.$.$.$.$.$.$.$.$.$.$.$.$.$.$.$.",
"$.$.$.$.$.$.$.$.$.$.$.$.l l l T O.@.T . .       X ' | +.+.| +.&       . . s @.| ) l l l $.$.$.$.$.$.$.$.$.$.$.$.$.$.$.$.$.$.$.$.",
"$.$.$.$.$.$.$.$.$.$.$.$.$.$.$.v T T b x x l l x l p u u u u p s x z l z l v T T m $.$.$.$.$.$.$.$.$.$.$.$.$.$.$.$.$.$.$.$.$.$.$.",
"$.$.$.$.$.$.$.$.$.$.$.$.$.$.$.$.l k b +.X.+.+.@.] o           T #.+.O.O.@.W l l l $.$.$.$.$.$.$.$.$.$.$.$.$.$.$.$.$.$.$.$.$.$.$.",
"$.$.$.$.$.$.$.$.$.$.$.$.$.$.$.$.l l T | | ] ) ) T & + + + % % v ) ) ' | | / l l $.$.$.$.$.$.$.$.$.$.$.$.$.$.$.$.$.$.$.$.$.$.$.$.",
"$.$.$.$.$.$.$.$.$.$.$.$.$.$.$.$.$.$.$...+.` x l l p u u u u u s l l / +.| $.$.$.$.$.$.$.$.$.$.$.$.$.$.$.$.$.$.$.$.$.$.$.$.$.$.$.",
"$.$.$.$.$.$.$.$.$.$.$.$.$.$.$.$.$.$.$.' ] ) x l l u u u u u u l l l R ' ` $.$.$.$.$.$.$.$.$.$.$.$.$.$.$.$.$.$.$.$.$.$.$.$.$.$.$.",
"$.$.$.$.$.$.$.$.$.$.$.$.$.$.$.$.$.$.$.p p p l l l u u u u p u s z l s p p $.$.$.$.$.$.$.$.$.$.$.$.$.$.$.$.$.$.$.$.$.$.$.$.$.$.$.",
"$.$.$.$.$.$.$.$.$.$.$.$.$.$.$.$.$.$.$.u u p l l l p u u u u u s z l p u p $.$.$.$.$.$.$.$.$.$.$.$.$.$.$.$.$.$.$.$.$.$.$.$.$.$.$.",
"$.$.$.$.$.$.$.$.$.$.$.$.$.$.$.$.$.$.$.u u u p p p $.$.$.$.$.$.p p p p u u $.$.$.$.$.$.$.$.$.$.$.$.$.$.$.$.$.$.$.$.$.$.$.$.$.$.$.",
"$.$.$.$.$.$.$.$.$.$.$.$.$.$.$.$.$.$.$.p u u u u u $.$.$.$.$.$.u u u u u u $.$.$.$.$.$.$.$.$.$.$.$.$.$.$.$.$.$.$.$.$.$.$.$.$.$.$.",
"$.$.$.$.$.$.$.$.$.$.$.$.$.$.$.$.$.$.$.$.$.$.$.$.$.$.$.$.$.$.$.$.$.$.$.$.$.$.$.$.$.$.$.$.$.$.$.$.$.$.$.$.$.$.$.$.$.$.$.$.$.$.$.$.",
"$.$.$.$.$.$.$.$.$.$.$.$.$.$.$.$.$.$.$.$.$.$.$.$.$.$.$.$.$.$.$.$.$.$.$.$.$.$.$.$.$.$.$.$.$.$.$.$.$.$.$.$.$.$.$.$.$.$.$.$.$.$.$.$.",
"$.$.$.$.$.$.$.$.$.$.$.$.$.$.$.$.$.$.$.$.$.$.$.$.$.$.$.$.$.$.$.$.$.$.$.$.$.$.$.$.$.$.$.$.$.$.$.$.$.$.$.$.$.$.$.$.$.$.$.$.$.$.$.$.",
"$.$.$.$.$.$.$.$.$.$.$.$.$.$.$.$.$.$.$.$.$.$.$.$.$.$.$.$.$.$.$.$.$.$.$.$.$.$.$.$.$.$.$.$.$.$.$.$.$.$.$.$.$.$.$.$.$.$.$.$.$.$.$.$.",
"$.$.$.$.$.$.$.$.$.$.$.$.$.$.$.$.$.$.$.$.$.$.$.$.$.$.$.$.$.$.$.$.$.$.$.$.$.$.$.$.$.$.$.$.$.$.$.$.$.$.$.$.$.$.$.$.$.$.$.$.$.$.$.$.",
"$.$.$.$.$.$.$.$.$.$.$.$.$.$.$.$.$.$.$.$.$.$.$.$.$.$.$.$.$.$.$.$.$.$.$.$.$.$.$.$.$.$.$.$.$.$.$.$.$.$.$.$.$.$.$.$.$.$.$.$.$.$.$.$."
};
